<?xml version="1.0" encoding="UTF-8" standalone="no"?>
<!-- Created with Inkscape (http://www.inkscape.org/) -->

<svg
   xmlns:dc="http://purl.org/dc/elements/1.1/"
   xmlns:cc="http://creativecommons.org/ns#"
   xmlns:rdf="http://www.w3.org/1999/02/22-rdf-syntax-ns#"
   xmlns:svg="http://www.w3.org/2000/svg"
   xmlns="http://www.w3.org/2000/svg"
   xmlns:sodipodi="http://sodipodi.sourceforge.net/DTD/sodipodi-0.dtd"
   xmlns:inkscape="http://www.inkscape.org/namespaces/inkscape"
   width="382.94794"
   height="382.97919"
   id="svg2"
   version="1.1"
   inkscape:version="0.48.5 r10040"
   sodipodi:docname="atomicelectroncloud.pdf">
  <sodipodi:namedview
     id="base"
     pagecolor="#ffffff"
     bordercolor="#666666"
     borderopacity="1.0"
     inkscape:pageopacity="0.0"
     inkscape:pageshadow="2"
     inkscape:zoom="0.7"
     inkscape:cx="38.719655"
     inkscape:cy="330.33247"
     inkscape:document-units="px"
     inkscape:current-layer="layer1"
     showgrid="false"
     inkscape:window-width="1600"
     inkscape:window-height="837"
     inkscape:window-x="-8"
     inkscape:window-y="-8"
     inkscape:window-maximized="1"
     fit-margin-top="0"
     fit-margin-left="0"
     fit-margin-right="0"
     fit-margin-bottom="0" />
  <defs
     id="defs4">
    <filter
       inkscape:collect="always"
       id="filter4337"
       x="-0.1075525"
       width="1.2151051"
       y="-0.10754184"
       height="1.2150837"
       color-interpolation-filters="sRGB">
      <feGaussianBlur
         inkscape:collect="always"
         stdDeviation="14.123268"
         id="feGaussianBlur4339" />
    </filter>
    <filter
       inkscape:collect="always"
       id="filter4349"
       x="-0.18261775"
       width="1.3652354"
       y="-0.18259965"
       height="1.3651993"
       color-interpolation-filters="sRGB">
      <feGaussianBlur
         inkscape:collect="always"
         stdDeviation="23.98047"
         id="feGaussianBlur4351" />
    </filter>
  </defs>
  <metadata
     id="metadata7">
    <rdf:RDF>
      <cc:Work
         rdf:about="">
        <dc:format>image/svg+xml</dc:format>
        <dc:type
           rdf:resource="http://purl.org/dc/dcmitype/StillImage" />
        <dc:title></dc:title>
      </cc:Work>
    </rdf:RDF>
  </metadata>
  <g
     id="layer1"
     inkscape:groupmode="layer"
     inkscape:label="Layer 1"
     transform="translate(-179.24868,-103.25263)">
    <path
       inkscape:connector-curvature="0"
       id="path2985"
       d="m 370.73827,137.14847 c -87.03113,0 -157.59375,70.56262 -157.59375,157.59375 0,87.03113 70.56262,157.59375 157.59375,157.59375 87.03113,0 157.5625,-70.56262 157.5625,-157.59375 0,-87.03113 -70.53137,-157.59375 -157.5625,-157.59375 z m -0.53125,25.59375 c 73.18751,0 132.53125,59.31249 132.53125,132.5 0,73.18751 -59.34374,132.53125 -132.53125,132.53125 -73.18751,0 -132.5,-59.34374 -132.5,-132.53125 0,-73.18751 59.31249,-132.5 132.5,-132.5 z"
       style="fill:#12e11f;fill-opacity:1;stroke:none;filter:url(#filter4337)" />
    <path
       transform="matrix(0.50294214,0,0,0.50294214,182.41818,137.48322)"
       d="m 365.67523,283.13101 c 0,9.76311 -7.91456,17.67767 -17.67767,17.67767 -9.76311,0 -17.67767,-7.91456 -17.67767,-17.67767 0,-9.76311 7.91456,-17.67767 17.67767,-17.67767 9.76311,0 17.67767,7.91456 17.67767,17.67767 z"
       sodipodi:ry="17.67767"
       sodipodi:rx="17.67767"
       sodipodi:cy="283.13101"
       sodipodi:cx="347.99756"
       id="path3760"
       style="fill:#6137e4;fill-opacity:1;stroke:#000000;stroke-opacity:1"
       sodipodi:type="arc" />
    <path
       transform="matrix(0.50294214,0,0,0.50294214,207.47736,137.46367)"
       d="m 365.67523,283.13101 c 0,9.76311 -7.91456,17.67767 -17.67767,17.67767 -9.76311,0 -17.67767,-7.91456 -17.67767,-17.67767 0,-9.76311 7.91456,-17.67767 17.67767,-17.67767 9.76311,0 17.67767,7.91456 17.67767,17.67767 z"
       sodipodi:ry="17.67767"
       sodipodi:rx="17.67767"
       sodipodi:cy="283.13101"
       sodipodi:cx="347.99756"
       id="path3760-1"
       style="fill:#ffffff;fill-opacity:1;stroke:#000000;stroke-opacity:1"
       sodipodi:type="arc" />
    <path
       transform="matrix(0.50294214,0,0,0.50294214,205.33451,154.24938)"
       d="m 365.67523,283.13101 c 0,9.76311 -7.91456,17.67767 -17.67767,17.67767 -9.76311,0 -17.67767,-7.91456 -17.67767,-17.67767 0,-9.76311 7.91456,-17.67767 17.67767,-17.67767 9.76311,0 17.67767,7.91456 17.67767,17.67767 z"
       sodipodi:ry="17.67767"
       sodipodi:rx="17.67767"
       sodipodi:cy="283.13101"
       sodipodi:cx="347.99756"
       id="path3760-7"
       style="fill:#6137e4;fill-opacity:1;stroke:#000000;stroke-opacity:1"
       sodipodi:type="arc" />
    <path
       transform="matrix(0.50294214,0,0,0.50294214,179.62022,151.74938)"
       d="m 365.67523,283.13101 c 0,9.76311 -7.91456,17.67767 -17.67767,17.67767 -9.76311,0 -17.67767,-7.91456 -17.67767,-17.67767 0,-9.76311 7.91456,-17.67767 17.67767,-17.67767 9.76311,0 17.67767,7.91456 17.67767,17.67767 z"
       sodipodi:ry="17.67767"
       sodipodi:rx="17.67767"
       sodipodi:cy="283.13101"
       sodipodi:cx="347.99756"
       id="path3760-4"
       style="fill:#ffffff;fill-opacity:1;stroke:#000000;stroke-opacity:1"
       sodipodi:type="arc" />
    <path
       transform="matrix(0.50294214,0,0,0.50294214,191.40594,161.03509)"
       d="m 365.67523,283.13101 c 0,9.76311 -7.91456,17.67767 -17.67767,17.67767 -9.76311,0 -17.67767,-7.91456 -17.67767,-17.67767 0,-9.76311 7.91456,-17.67767 17.67767,-17.67767 9.76311,0 17.67767,7.91456 17.67767,17.67767 z"
       sodipodi:ry="17.67767"
       sodipodi:rx="17.67767"
       sodipodi:cy="283.13101"
       sodipodi:cx="347.99756"
       id="path3760-0"
       style="fill:#6137e4;fill-opacity:1;stroke:#000000;stroke-opacity:1"
       sodipodi:type="arc" />
    <path
       transform="matrix(0.50294214,0,0,0.50294214,194.62022,132.10652)"
       d="m 365.67523,283.13101 c 0,9.76311 -7.91456,17.67767 -17.67767,17.67767 -9.76311,0 -17.67767,-7.91456 -17.67767,-17.67767 0,-9.76311 7.91456,-17.67767 17.67767,-17.67767 9.76311,0 17.67767,7.91456 17.67767,17.67767 z"
       sodipodi:ry="17.67767"
       sodipodi:rx="17.67767"
       sodipodi:cy="283.13101"
       sodipodi:cx="347.99756"
       id="path3760-9"
       style="fill:#ffffff;fill-opacity:1;stroke:#000000;stroke-opacity:1"
       sodipodi:type="arc" />
    <path
       transform="matrix(0.50294214,0,0,0.50294214,193.90593,146.39224)"
       d="m 365.67523,283.13101 c 0,9.76311 -7.91456,17.67767 -17.67767,17.67767 -9.76311,0 -17.67767,-7.91456 -17.67767,-17.67767 0,-9.76311 7.91456,-17.67767 17.67767,-17.67767 9.76311,0 17.67767,7.91456 17.67767,17.67767 z"
       sodipodi:ry="17.67767"
       sodipodi:rx="17.67767"
       sodipodi:cy="283.13101"
       sodipodi:cx="347.99756"
       id="path3760-48"
       style="fill:#6137e4;fill-opacity:1;stroke:#000000;stroke-opacity:1"
       sodipodi:type="arc" />
    <path
       transform="matrix(0.50294214,0,0,0.50294214,216.04879,147.82081)"
       d="m 365.67523,283.13101 c 0,9.76311 -7.91456,17.67767 -17.67767,17.67767 -9.76311,0 -17.67767,-7.91456 -17.67767,-17.67767 0,-9.76311 7.91456,-17.67767 17.67767,-17.67767 9.76311,0 17.67767,7.91456 17.67767,17.67767 z"
       sodipodi:ry="17.67767"
       sodipodi:rx="17.67767"
       sodipodi:cy="283.13101"
       sodipodi:cx="347.99756"
       id="path3760-8"
       style="fill:#6137e4;fill-opacity:1;stroke:#000000;stroke-opacity:1"
       sodipodi:type="arc" />
    <path
       transform="matrix(0.50294214,0,0,0.50294214,207.12022,161.74938)"
       d="m 365.67523,283.13101 c 0,9.76311 -7.91456,17.67767 -17.67767,17.67767 -9.76311,0 -17.67767,-7.91456 -17.67767,-17.67767 0,-9.76311 7.91456,-17.67767 17.67767,-17.67767 9.76311,0 17.67767,7.91456 17.67767,17.67767 z"
       sodipodi:ry="17.67767"
       sodipodi:rx="17.67767"
       sodipodi:cy="283.13101"
       sodipodi:cx="347.99756"
       id="path3760-2"
       style="fill:#ffffff;fill-opacity:1;stroke:#000000;stroke-opacity:1"
       sodipodi:type="arc" />
    <path
       transform="matrix(0.60323335,0,0,0.60323335,146.19698,113.62486)"
       inkscape:connector-curvature="0"
       id="path2985-5"
       d="m 376.4442,143.33986 c -87.03113,0 -157.59375,70.56262 -157.59375,157.59375 0,87.03113 70.56262,157.59375 157.59375,157.59375 87.03113,0 157.5625,-70.56262 157.5625,-157.59375 0,-87.03113 -70.53137,-157.59375 -157.5625,-157.59375 z m -0.53125,25.59375 c 73.18751,0 132.53125,59.31249 132.53125,132.5 0,73.18751 -59.34374,132.53125 -132.53125,132.53125 -73.18751,0 -132.5,-59.34374 -132.5,-132.53125 0,-73.18751 59.31249,-132.5 132.5,-132.5 z"
       style="fill:#12e11f;fill-opacity:1;stroke:none;filter:url(#filter4349)" />
    <path
       inkscape:connector-curvature="0"
       id="rect3890"
       d="m 502.78204,278.90025 0,4.875 -100.15625,0 0,5.09375 100.15625,0 0,4.875 6.40625,-3.71875 6.4375,-3.71875 -6.4375,-3.6875 -6.40625,-3.71875 z"
       style="fill:#e78b23;fill-opacity:0.69590646;stroke:#000000;stroke-width:0.676521;stroke-linecap:square;stroke-miterlimit:4;stroke-opacity:0.75438597;stroke-dasharray:none;stroke-dashoffset:0" />
    <path
       inkscape:connector-curvature="0"
       id="rect3890-1"
       d="m 244.7423,293.74401 0,-4.875 100.15625,0 0,-5.09375 -100.15625,0 0,-4.875 -6.40625,3.71875 -6.4375,3.71875 6.4375,3.6875 6.40625,3.71875 z"
       style="fill:#e78b23;fill-opacity:0.69590646;stroke:#000000;stroke-width:0.676521;stroke-linecap:square;stroke-miterlimit:4;stroke-opacity:0.75438597;stroke-dasharray:none;stroke-dashoffset:0" />
    <g
       id="g3935"
       transform="matrix(0.46580673,0,0,0.46580673,356.11274,101.06069)">
      <g
         word-spacing="normal"
         letter-spacing="normal"
         font-size-adjust="none"
         font-stretch="normal"
         font-weight="normal"
         font-variant="normal"
         font-style="normal"
         stroke-miterlimit="10.433"
         xml:space="preserve"
         transform="matrix(1.0629921,0,0,-1.0629921,-186.02362,789.27165)"
         id="content"
         style="font-style:normal;font-variant:normal;font-weight:normal;font-stretch:normal;letter-spacing:normal;word-spacing:normal;text-anchor:start;fill:none;stroke:#000000;stroke-linecap:butt;stroke-linejoin:miter;stroke-miterlimit:10.43299961;stroke-opacity:1;stroke-dasharray:none;stroke-dashoffset:0"><path
           id="path3938"
           d="m 457.16,397.57 -0.01,-0.02 0,-0.03 -0.01,-0.03 0,-0.02 -0.01,-0.03 -0.01,-0.02 0,-0.02 -0.01,-0.03 0,-0.02 -0.01,-0.02 0,-0.02 0,-0.02 -0.01,-0.02 0,-0.02 -0.01,-0.04 -0.01,-0.03 0,-0.03 -0.01,-0.03 -0.01,-0.03 0,-0.03 -0.01,-0.02 0,-0.02 0,-0.03 -0.01,-0.02 0,-0.02 0,-0.01 0,-0.02 0,-0.01 -0.01,-0.02 0,-0.01 0,-0.02 0,-0.01 0,-0.01 0,-0.02 0,-0.02 0,-0.02 c 0,-0.74 0.55,-1.35 1.39,-1.35 1.05,0 1.64,0.91 1.75,1.05 0.23,0.45 1.84,7.13 3.19,12.52 0.98,-2 2.58,-3.35 4.92,-3.35 l -0.05,1.1 c -3.48,0 -4.28,3.98 -4.28,4.43 0,0.21 0.25,1.19 0.39,1.85 1.41,5.58 1.91,7.37 3,9.36 2.14,3.64 4.63,4.73 6.17,4.73 1.85,0 3.44,-1.44 3.44,-4.87 0,-2.75 -1.44,-8.33 -2.78,-10.77 -1.66,-3.14 -4.05,-4.73 -5.94,-4.73 h 0 l 0.05,-1.1 c 5.83,0 12.27,7.03 12.27,14.46 0,5.28 -3.3,8.1 -6.94,8.1 -4.83,0 -10.06,-4.98 -11.55,-11.06 z"
           inkscape:connector-curvature="0"
           style="fill:#000000;stroke-width:0" /><path
           id="path3940"
           d="m 497.8,394.25 0,0.02 0,0.03 0,0.01 0,0.02 -0.01,0.01 0,0.02 -0.01,0.01 0,0.02 -0.01,0.02 -0.01,0.02 -0.02,0.02 -0.01,0.03 -0.02,0.02 -0.01,0.03 -0.03,0.03 -0.02,0.03 -0.03,0.03 -0.03,0.04 -0.01,0.02 -0.02,0.02 -0.01,0.02 -0.02,0.02 -0.02,0.02 -0.02,0.03 -0.02,0.02 -0.03,0.02 -0.02,0.03 -0.02,0.02 -0.03,0.03 -0.02,0.03 -0.03,0.03 -0.03,0.03 -0.02,0.03 -0.03,0.03 -0.04,0.03 -0.03,0.03 -0.03,0.04 -0.03,0.03 -0.04,0.04 -0.04,0.03 -0.03,0.04 -0.04,0.04 c -6.22,6.28 -7.82,15.69 -7.82,23.31 0,8.67 1.9,17.35 8.02,23.56 0.64,0.61 0.64,0.71 0.64,0.86 0,0.35 -0.19,0.49 -0.48,0.49 -0.5,0 -4.99,-3.38 -7.93,-9.7 -2.54,-5.49 -3.14,-11.02 -3.14,-15.21 0,-3.89 0.55,-9.9 3.29,-15.54 2.98,-6.13 7.28,-9.36 7.78,-9.36 0.29,0 0.48,0.14 0.48,0.5 z"
           inkscape:connector-curvature="0"
           style="fill:#000000;stroke-width:0" /><path
           id="path3942"
           d="m 522.76,426.23 -0.13,-0.03 -0.12,-0.03 -0.12,-0.03 -0.12,-0.03 -0.11,-0.04 -0.11,-0.04 -0.11,-0.04 -0.1,-0.05 -0.1,-0.04 -0.1,-0.05 -0.09,-0.05 -0.09,-0.05 -0.18,-0.11 -0.16,-0.12 -0.15,-0.12 -0.14,-0.12 -0.13,-0.13 -0.11,-0.13 -0.11,-0.14 -0.1,-0.14 -0.09,-0.14 -0.09,-0.14 -0.07,-0.13 -0.07,-0.14 -0.06,-0.14 -0.05,-0.13 -0.05,-0.13 -0.04,-0.13 -0.03,-0.12 -0.03,-0.12 -0.02,-0.11 -0.02,-0.11 -0.02,-0.1 -0.01,-0.09 -0.01,-0.08 0,-0.07 -0.01,-0.06 0,-0.05 c 0,-1.11 0.84,-2.3 2.5,-2.3 1.69,0 3.58,1.39 3.58,3.94 0,2.29 -1.8,4.32 -4.88,4.32 -2.79,0 -5.14,-1.39 -6.62,-2.98 -1.2,2.3 -4.05,2.98 -5.83,2.98 -1.84,0 -3.25,-1.04 -4.34,-2.84 -1.19,-1.94 -1.89,-4.62 -1.89,-4.92 0,-0.7 0.75,-0.7 1.2,-0.7 0.55,0 0.73,0 0.98,0.25 0.11,0.09 0.11,0.2 0.41,1.45 0.94,3.78 2.05,4.97 3.39,4.97 0.74,0 1.14,-0.49 1.14,-1.78 0,-0.91 -0.15,-1.46 -0.7,-3.8 -0.25,-0.84 -1.05,-4.13 -1.39,-5.38 -0.21,-0.95 -0.75,-3.18 -1,-4.09 -0.3,-1.28 -0.89,-3.53 -0.89,-3.87 0,-1.05 0.79,-2.21 2.34,-2.21 1,0 2.74,0.61 3.28,2.64 0.05,0.16 3.44,13.71 3.49,14 0.2,0.75 0.2,0.86 0.86,1.61 1.14,1.44 2.98,2.88 5.46,2.88 1.25,0 1.8,-0.55 1.96,-0.69 z"
           inkscape:connector-curvature="0"
           style="fill:#000000;stroke-width:0" /><path
           id="path3944"
           d="m 542.98,418.65 0,0.37 -0.01,0.39 -0.01,0.39 -0.01,0.41 -0.04,0.84 -0.06,0.88 -0.08,0.92 -0.11,0.95 -0.13,0.97 -0.16,1.01 -0.2,1.02 -0.23,1.03 -0.27,1.05 -0.3,1.06 -0.35,1.07 -0.39,1.07 -0.22,0.53 -0.22,0.53 -0.24,0.53 -0.25,0.53 c -2.98,6.12 -7.27,9.36 -7.77,9.36 -0.29,0 -0.5,-0.19 -0.5,-0.49 0,-0.15 0,-0.25 0.94,-1.15 4.89,-4.92 7.73,-12.85 7.73,-23.27 0,-8.51 -1.84,-17.28 -8.03,-23.56 -0.64,-0.59 -0.64,-0.7 -0.64,-0.84 0,-0.3 0.21,-0.5 0.5,-0.5 0.5,0 4.97,3.39 7.92,9.71 2.54,5.47 3.13,11 3.13,15.19 z"
           inkscape:connector-curvature="0"
           style="fill:#000000;stroke-width:0" /></g>    </g>
    <g
       transform="matrix(0.51350256,0,0,0.51350256,31.697413,81.863736)"
       id="g4000">
      <g
         style="font-style:normal;font-variant:normal;font-weight:normal;font-stretch:normal;letter-spacing:normal;word-spacing:normal;text-anchor:start;fill:none;stroke:#000000;stroke-linecap:butt;stroke-linejoin:miter;stroke-miterlimit:10.43299961;stroke-opacity:1;stroke-dasharray:none;stroke-dashoffset:0"
         id="g4002"
         transform="matrix(1.0629921,0,0,-1.0629921,-186.02362,789.27165)"
         xml:space="preserve"
         stroke-miterlimit="10.433"
         font-style="normal"
         font-variant="normal"
         font-weight="normal"
         font-stretch="normal"
         font-size-adjust="none"
         letter-spacing="normal"
         word-spacing="normal"><path
           style="fill:#000000;stroke-width:0"
           inkscape:connector-curvature="0"
           d="m 457.16,397.57 -0.01,-0.02 0,-0.03 -0.01,-0.03 0,-0.02 -0.01,-0.03 -0.01,-0.02 0,-0.02 -0.01,-0.03 0,-0.02 -0.01,-0.02 0,-0.02 0,-0.02 -0.01,-0.02 0,-0.02 -0.01,-0.04 -0.01,-0.03 0,-0.03 -0.01,-0.03 -0.01,-0.03 0,-0.03 -0.01,-0.02 0,-0.02 0,-0.03 -0.01,-0.02 0,-0.02 0,-0.01 0,-0.02 0,-0.01 -0.01,-0.02 0,-0.01 0,-0.02 0,-0.01 0,-0.01 0,-0.02 0,-0.02 0,-0.02 c 0,-0.74 0.55,-1.35 1.39,-1.35 1.05,0 1.64,0.91 1.75,1.05 0.23,0.45 1.84,7.13 3.19,12.52 0.98,-2 2.58,-3.35 4.92,-3.35 l -0.05,1.1 c -3.48,0 -4.28,3.98 -4.28,4.43 0,0.21 0.25,1.19 0.39,1.85 1.41,5.58 1.91,7.37 3,9.36 2.14,3.64 4.63,4.73 6.17,4.73 1.85,0 3.44,-1.44 3.44,-4.87 0,-2.75 -1.44,-8.33 -2.78,-10.77 -1.66,-3.14 -4.05,-4.73 -5.94,-4.73 h 0 l 0.05,-1.1 c 5.83,0 12.27,7.03 12.27,14.46 0,5.28 -3.3,8.1 -6.94,8.1 -4.83,0 -10.06,-4.98 -11.55,-11.06 z"
           id="path4004" /><path
           style="fill:#000000;stroke-width:0"
           inkscape:connector-curvature="0"
           d="m 497.8,394.25 0,0.02 0,0.03 0,0.01 0,0.02 -0.01,0.01 0,0.02 -0.01,0.01 0,0.02 -0.01,0.02 -0.01,0.02 -0.02,0.02 -0.01,0.03 -0.02,0.02 -0.01,0.03 -0.03,0.03 -0.02,0.03 -0.03,0.03 -0.03,0.04 -0.01,0.02 -0.02,0.02 -0.01,0.02 -0.02,0.02 -0.02,0.02 -0.02,0.03 -0.02,0.02 -0.03,0.02 -0.02,0.03 -0.02,0.02 -0.03,0.03 -0.02,0.03 -0.03,0.03 -0.03,0.03 -0.02,0.03 -0.03,0.03 -0.04,0.03 -0.03,0.03 -0.03,0.04 -0.03,0.03 -0.04,0.04 -0.04,0.03 -0.03,0.04 -0.04,0.04 c -6.22,6.28 -7.82,15.69 -7.82,23.31 0,8.67 1.9,17.35 8.02,23.56 0.64,0.61 0.64,0.71 0.64,0.86 0,0.35 -0.19,0.49 -0.48,0.49 -0.5,0 -4.99,-3.38 -7.93,-9.7 -2.54,-5.49 -3.14,-11.02 -3.14,-15.21 0,-3.89 0.55,-9.9 3.29,-15.54 2.98,-6.13 7.28,-9.36 7.78,-9.36 0.29,0 0.48,0.14 0.48,0.5 z"
           id="path4006" /><path
           style="fill:#000000;stroke-width:0"
           inkscape:connector-curvature="0"
           d="m 533.46,417.65 0.16,0 0.16,0 0.16,0.01 0.07,0 0.08,0.01 0.08,0 0.07,0.01 0.07,0.01 0.08,0.01 0.07,0.02 0.06,0.02 0.07,0.02 0.06,0.02 0.06,0.02 0.06,0.03 0.06,0.03 0.05,0.04 0.05,0.03 0.05,0.05 0.04,0.04 0.04,0.05 0.01,0.03 0.02,0.03 0.02,0.03 0.01,0.03 0.02,0.03 0.01,0.03 0.01,0.04 0.01,0.03 0.01,0.04 0.01,0.04 0,0.04 0.01,0.04 0.01,0.04 0,0.04 0,0.05 0,0.04 c 0,1 -0.91,1 -1.75,1 h -26.95 c -0.85,0 -1.74,0 -1.74,-1 0,-1 0.89,-1 1.74,-1 z"
           id="path4008" /><path
           style="fill:#000000;stroke-width:0"
           inkscape:connector-curvature="0"
           d="m 561.52,426.23 -0.13,-0.03 -0.12,-0.03 -0.12,-0.03 -0.12,-0.03 -0.11,-0.04 -0.11,-0.04 -0.11,-0.04 -0.1,-0.05 -0.1,-0.04 -0.1,-0.05 -0.1,-0.05 -0.09,-0.05 -0.17,-0.11 -0.16,-0.12 -0.15,-0.12 -0.14,-0.12 -0.13,-0.13 -0.12,-0.13 -0.11,-0.14 -0.1,-0.14 -0.09,-0.14 -0.08,-0.14 -0.07,-0.13 -0.07,-0.14 -0.06,-0.14 -0.05,-0.13 -0.05,-0.13 -0.04,-0.13 -0.03,-0.12 -0.03,-0.12 -0.03,-0.11 -0.02,-0.11 -0.01,-0.1 -0.01,-0.09 -0.01,-0.08 -0.01,-0.07 0,-0.06 0,-0.05 c 0,-1.11 0.84,-2.3 2.5,-2.3 1.69,0 3.58,1.39 3.58,3.94 0,2.29 -1.8,4.32 -4.88,4.32 -2.79,0 -5.14,-1.39 -6.62,-2.98 -1.21,2.3 -4.05,2.98 -5.83,2.98 -1.84,0 -3.25,-1.04 -4.34,-2.84 -1.19,-1.94 -1.9,-4.62 -1.9,-4.92 0,-0.7 0.75,-0.7 1.21,-0.7 0.54,0 0.73,0 0.98,0.25 0.11,0.09 0.11,0.2 0.41,1.45 0.94,3.78 2.05,4.97 3.39,4.97 0.73,0 1.14,-0.49 1.14,-1.78 0,-0.91 -0.16,-1.46 -0.7,-3.8 -0.25,-0.84 -1.05,-4.13 -1.39,-5.38 -0.21,-0.95 -0.75,-3.18 -1,-4.09 -0.3,-1.28 -0.89,-3.53 -0.89,-3.87 0,-1.05 0.79,-2.21 2.34,-2.21 1,0 2.73,0.61 3.28,2.64 0.05,0.16 3.44,13.71 3.48,14 0.21,0.75 0.21,0.86 0.86,1.61 1.14,1.44 2.99,2.88 5.47,2.88 1.25,0 1.8,-0.55 1.96,-0.69 z"
           id="path4010" /><path
           style="fill:#000000;stroke-width:0"
           inkscape:connector-curvature="0"
           d="m 581.74,418.65 0,0.37 -0.01,0.39 -0.01,0.39 -0.01,0.41 -0.04,0.84 -0.06,0.88 -0.08,0.92 -0.11,0.95 -0.13,0.97 -0.17,1.01 -0.19,1.02 -0.23,1.03 -0.27,1.05 -0.31,1.06 -0.35,1.07 -0.39,1.07 -0.21,0.53 -0.23,0.53 -0.23,0.53 -0.25,0.53 c -2.99,6.12 -7.27,9.36 -7.77,9.36 -0.29,0 -0.5,-0.19 -0.5,-0.49 0,-0.15 0,-0.25 0.94,-1.15 4.89,-4.92 7.73,-12.85 7.73,-23.27 0,-8.51 -1.84,-17.28 -8.03,-23.56 -0.64,-0.59 -0.64,-0.7 -0.64,-0.84 0,-0.3 0.21,-0.5 0.5,-0.5 0.5,0 4.97,3.39 7.92,9.71 2.54,5.47 3.13,11 3.13,15.19 z"
           id="path4012" /></g>    </g>
    <g
       id="g4082"
       transform="matrix(0.57603331,0,0,0.57603331,98.994217,101.23857)">
      <g
         word-spacing="normal"
         letter-spacing="normal"
         font-size-adjust="none"
         font-stretch="normal"
         font-weight="normal"
         font-variant="normal"
         font-style="normal"
         stroke-miterlimit="10.433"
         xml:space="preserve"
         transform="matrix(1.0629921,0,0,-1.0629921,-186.02362,789.27165)"
         id="g4084"
         style="font-style:normal;font-variant:normal;font-weight:normal;font-stretch:normal;letter-spacing:normal;word-spacing:normal;text-anchor:start;fill:none;stroke:#000000;stroke-linecap:butt;stroke-linejoin:miter;stroke-miterlimit:10.43299961;stroke-opacity:1;stroke-dasharray:none;stroke-dashoffset:0"><path
           id="path4086"
           d="m 488.35,417.65 0.16,0 0.16,0 0.15,0.01 0.08,0 0.08,0.01 0.07,0 0.08,0.01 0.07,0.01 0.07,0.01 0.07,0.02 0.07,0.02 0.07,0.02 0.06,0.02 0.06,0.02 0.06,0.03 0.05,0.03 0.06,0.04 0.05,0.03 0.04,0.05 0.04,0.04 0.04,0.05 0.02,0.03 0.02,0.03 0.01,0.03 0.02,0.03 0.01,0.03 0.02,0.03 0.01,0.04 0.01,0.03 0.01,0.04 0,0.04 0.01,0.04 0.01,0.04 0,0.04 0.01,0.04 0,0.05 0,0.04 c 0,1 -0.91,1 -1.75,1 h -26.96 c -0.84,0 -1.73,0 -1.73,-1 0,-1 0.89,-1 1.73,-1 z"
           inkscape:connector-curvature="0"
           style="fill:#000000;stroke-width:0" /><path
           id="path4088"
           d="m 516.4,426.23 -0.13,-0.03 -0.12,-0.03 -0.12,-0.03 -0.12,-0.03 -0.11,-0.04 -0.11,-0.04 -0.11,-0.04 -0.1,-0.05 -0.1,-0.04 -0.1,-0.05 -0.09,-0.05 -0.09,-0.05 -0.17,-0.11 -0.16,-0.12 -0.15,-0.12 -0.14,-0.12 -0.13,-0.13 -0.12,-0.13 -0.11,-0.14 -0.1,-0.14 -0.09,-0.14 -0.08,-0.14 -0.08,-0.13 -0.06,-0.14 -0.06,-0.14 -0.06,-0.13 -0.04,-0.13 -0.04,-0.13 -0.04,-0.12 -0.03,-0.12 -0.02,-0.11 -0.02,-0.11 -0.02,-0.1 -0.01,-0.09 -0.01,-0.08 0,-0.07 0,-0.06 -0.01,-0.05 c 0,-1.11 0.85,-2.3 2.5,-2.3 1.69,0 3.58,1.39 3.58,3.94 0,2.29 -1.79,4.32 -4.87,4.32 -2.8,0 -5.14,-1.39 -6.63,-2.98 -1.2,2.3 -4.04,2.98 -5.82,2.98 -1.85,0 -3.25,-1.04 -4.35,-2.84 -1.19,-1.94 -1.89,-4.62 -1.89,-4.92 0,-0.7 0.75,-0.7 1.2,-0.7 0.55,0 0.74,0 0.99,0.25 0.11,0.09 0.11,0.2 0.4,1.45 0.94,3.78 2.05,4.97 3.4,4.97 0.73,0 1.14,-0.49 1.14,-1.78 0,-0.91 -0.16,-1.46 -0.71,-3.8 -0.25,-0.84 -1.04,-4.13 -1.39,-5.38 -0.2,-0.95 -0.75,-3.18 -1,-4.09 -0.29,-1.28 -0.89,-3.53 -0.89,-3.87 0,-1.05 0.8,-2.21 2.35,-2.21 1,0 2.73,0.61 3.28,2.64 0.04,0.16 3.43,13.71 3.48,14 0.2,0.75 0.2,0.86 0.86,1.61 1.14,1.44 2.98,2.88 5.47,2.88 1.25,0 1.8,-0.55 1.95,-0.69 z"
           inkscape:connector-curvature="0"
           style="fill:#000000;stroke-width:0" /></g>    </g>
    <g
       transform="matrix(0.56694374,0,0,0.56694374,277.85257,102.97668)"
       id="g4166">
      <g
         style="font-style:normal;font-variant:normal;font-weight:normal;font-stretch:normal;letter-spacing:normal;word-spacing:normal;text-anchor:start;fill:none;stroke:#000000;stroke-linecap:butt;stroke-linejoin:miter;stroke-miterlimit:10.43299961;stroke-opacity:1;stroke-dasharray:none;stroke-dashoffset:0"
         id="g4168"
         transform="matrix(1.0629921,0,0,-1.0629921,-186.02362,789.27165)"
         xml:space="preserve"
         stroke-miterlimit="10.433"
         font-style="normal"
         font-variant="normal"
         font-weight="normal"
         font-stretch="normal"
         font-size-adjust="none"
         letter-spacing="normal"
         word-spacing="normal"><path
           style="fill:#000000;stroke-width:0"
           inkscape:connector-curvature="0"
           d="m 477.64,426.23 -0.12,-0.03 -0.13,-0.03 -0.12,-0.03 -0.11,-0.03 -0.12,-0.04 -0.11,-0.04 -0.1,-0.04 -0.11,-0.05 -0.1,-0.04 -0.09,-0.05 -0.1,-0.05 -0.09,-0.05 -0.17,-0.11 -0.16,-0.12 -0.15,-0.12 -0.14,-0.12 -0.13,-0.13 -0.12,-0.13 -0.11,-0.14 -0.1,-0.14 -0.09,-0.14 -0.08,-0.14 -0.07,-0.13 -0.07,-0.14 -0.06,-0.14 -0.05,-0.13 -0.05,-0.13 -0.04,-0.13 -0.03,-0.12 -0.03,-0.12 -0.03,-0.11 -0.02,-0.11 -0.01,-0.1 -0.01,-0.09 -0.01,-0.08 -0.01,-0.07 0,-0.06 0,-0.05 c 0,-1.11 0.84,-2.3 2.5,-2.3 1.69,0 3.58,1.39 3.58,3.94 0,2.29 -1.8,4.32 -4.88,4.32 -2.8,0 -5.14,-1.39 -6.62,-2.98 -1.21,2.3 -4.05,2.98 -5.83,2.98 -1.85,0 -3.25,-1.04 -4.35,-2.84 -1.18,-1.94 -1.89,-4.62 -1.89,-4.92 0,-0.7 0.75,-0.7 1.21,-0.7 0.54,0 0.73,0 0.98,0.25 0.11,0.09 0.11,0.2 0.41,1.45 0.93,3.78 2.04,4.97 3.39,4.97 0.73,0 1.14,-0.49 1.14,-1.78 0,-0.91 -0.16,-1.46 -0.7,-3.8 -0.25,-0.84 -1.05,-4.13 -1.4,-5.38 -0.2,-0.95 -0.75,-3.18 -1,-4.09 -0.29,-1.28 -0.89,-3.53 -0.89,-3.87 0,-1.05 0.8,-2.21 2.35,-2.21 1,0 2.73,0.61 3.28,2.64 0.05,0.16 3.44,13.71 3.48,14 0.21,0.75 0.21,0.86 0.86,1.61 1.14,1.44 2.99,2.88 5.47,2.88 1.25,0 1.8,-0.55 1.95,-0.69 z"
           id="path4170" /></g>    </g>
    <g
       id="g4254"
       transform="matrix(0.60776461,0,0,0.60776461,137.82688,41.957425)">
      <g
         word-spacing="normal"
         letter-spacing="normal"
         font-size-adjust="none"
         font-stretch="normal"
         font-weight="normal"
         font-variant="normal"
         font-style="normal"
         stroke-miterlimit="10.433"
         xml:space="preserve"
         transform="matrix(1.0629921,0,0,-1.0629921,-186.02362,789.27165)"
         id="g4256"
         style="font-style:normal;font-variant:normal;font-weight:normal;font-stretch:normal;letter-spacing:normal;word-spacing:normal;text-anchor:start;fill:none;stroke:#000000;stroke-linecap:butt;stroke-linejoin:miter;stroke-miterlimit:10.43299961;stroke-opacity:1;stroke-dasharray:none;stroke-dashoffset:0"><path
           id="path4258"
           d="m 461,423.34 v -13.36 c 0,-2.23 -0.54,-2.23 -3.89,-2.23 v -1.55 c 1.75,0.05 4.28,0.16 5.63,0.16 1.3,0 3.89,-0.11 5.58,-0.16 v 1.55 c -3.33,0 -3.88,0 -3.88,2.23 v 9.17 c 0,5.19 3.53,7.97 6.72,7.97 3.14,0 3.69,-2.69 3.69,-5.53 v -11.61 c 0,-2.23 -0.55,-2.23 -3.89,-2.23 v -1.55 c 1.75,0.05 4.29,0.16 5.64,0.16 1.29,0 3.87,-0.11 5.58,-0.16 v 1.55 c -2.6,0 -3.85,0 -3.89,1.5 v 9.51 c 0,4.28 0,5.83 -1.55,7.61 -0.69,0.86 -2.35,1.84 -5.22,1.84 -3.64,0 -5.98,-2.14 -7.38,-5.21 v 5.21 l -7.03,-0.54 v -1.55 c 3.49,0 3.89,-0.34 3.89,-2.78 z"
           inkscape:connector-curvature="0"
           style="fill:#000000;stroke-width:0" /><path
           id="path4260"
           d="m 501.28,410.14 v -4.49 l 7.17,0.55 v 1.55 c -3.48,0 -3.89,0.34 -3.89,2.78 v 17.68 l -7.33,-0.54 v -1.55 c 3.5,0 3.9,-0.34 3.9,-2.78 v -8.88 c 0,-4.32 -2.4,-7.71 -6.04,-7.71 -4.17,0 -4.37,2.34 -4.37,4.93 v 16.53 l -7.33,-0.54 v -1.55 c 3.89,0 3.89,-0.14 3.89,-4.58 v -7.47 c 0,-3.89 0,-8.42 7.56,-8.42 2.8,0 4.99,1.39 6.44,4.49 z"
           inkscape:connector-curvature="0"
           style="fill:#000000;stroke-width:0" /><path
           id="path4262"
           d="m 515.34,417.06 0.01,0.38 0.01,0.36 0.01,0.36 0.02,0.35 0.03,0.34 0.03,0.34 0.03,0.32 0.05,0.32 0.04,0.31 0.05,0.3 0.06,0.29 0.06,0.29 0.13,0.55 0.15,0.51 0.17,0.49 0.18,0.46 0.2,0.43 0.21,0.4 0.22,0.38 0.23,0.35 0.24,0.32 0.25,0.3 0.26,0.28 0.26,0.26 0.27,0.23 0.28,0.21 0.28,0.19 0.28,0.16 0.28,0.15 0.28,0.13 0.28,0.12 0.29,0.09 0.28,0.08 0.27,0.06 0.27,0.05 0.27,0.03 0.26,0.02 0.25,0.01 c 0.44,0 3.58,-0.05 5.33,-1.85 -2.05,-0.15 -2.35,-1.64 -2.35,-2.29 0,-1.3 0.89,-2.3 2.3,-2.3 1.28,0 2.28,0.86 2.28,2.34 0,3.39 -3.78,5.33 -7.62,5.33 -6.22,0 -10.82,-5.37 -10.82,-11.55 0,-6.37 4.94,-11.31 10.72,-11.31 6.67,0 8.27,5.99 8.27,6.47 0,0.5 -0.5,0.5 -0.64,0.5 -0.46,0 -0.55,-0.19 -0.66,-0.5 -1.44,-4.62 -4.67,-5.22 -6.51,-5.22 -2.65,0 -7.04,2.14 -7.04,10.16 z"
           inkscape:connector-curvature="0"
           style="fill:#000000;stroke-width:0" /><path
           id="path4264"
           d="m 540.41,440.78 -7.18,-0.55 v -1.55 c 3.49,0 3.9,-0.34 3.9,-2.79 v -25.91 c 0,-2.23 -0.55,-2.23 -3.9,-2.23 v -1.55 c 1.65,0.05 4.29,0.16 5.54,0.16 1.25,0 3.68,-0.11 5.53,-0.16 v 1.55 c -3.35,0 -3.89,0 -3.89,2.23 z"
           inkscape:connector-curvature="0"
           style="fill:#000000;stroke-width:0" /><path
           id="path4266"
           d="m 550.92,417.71 0.05,1.05 c 0.3,7.42 4.48,8.66 6.19,8.66 5.12,0 5.62,-6.72 5.62,-8.66 h -11.81 l -0.05,-1.05 h 13.91 c 1.09,0 1.23,0 1.23,1.05 0,4.92 -2.68,9.75 -8.9,9.75 -5.78,0 -10.38,-5.12 -10.38,-11.36 0,-6.67 5.24,-11.5 10.97,-11.5 6.08,0 8.31,5.53 8.31,6.47 0,0.5 -0.39,0.61 -0.64,0.61 -0.45,0 -0.54,-0.3 -0.65,-0.7 -1.74,-5.13 -6.22,-5.13 -6.72,-5.13 -2.5,0 -4.49,1.49 -5.63,3.33 -1.5,2.39 -1.5,5.69 -1.5,7.48 z"
           inkscape:connector-curvature="0"
           style="fill:#000000;stroke-width:0" /><path
           id="path4268"
           d="m 586.95,410.14 v -4.49 l 7.18,0.55 v 1.55 c -3.49,0 -3.9,0.34 -3.9,2.78 v 17.68 l -7.32,-0.54 v -1.55 c 3.5,0 3.89,-0.34 3.89,-2.78 v -8.88 c 0,-4.32 -2.39,-7.71 -6.03,-7.71 -4.18,0 -4.38,2.34 -4.38,4.93 v 16.53 l -7.33,-0.54 v -1.55 c 3.89,0 3.89,-0.14 3.89,-4.58 v -7.47 c 0,-3.89 0,-8.42 7.57,-8.42 2.79,0 4.98,1.39 6.43,4.49 z"
           inkscape:connector-curvature="0"
           style="fill:#000000;stroke-width:0" /><path
           id="path4270"
           d="m 605.55,415.87 0.11,-0.02 0.13,-0.02 0.14,-0.03 0.15,-0.04 0.17,-0.04 0.18,-0.04 0.19,-0.05 0.2,-0.06 0.2,-0.06 0.21,-0.07 0.22,-0.08 0.22,-0.08 0.22,-0.1 0.22,-0.1 0.22,-0.11 0.22,-0.12 0.22,-0.14 0.21,-0.14 0.2,-0.15 0.2,-0.16 0.19,-0.18 0.18,-0.19 0.17,-0.2 0.16,-0.21 0.14,-0.22 0.07,-0.12 0.06,-0.12 0.06,-0.13 0.05,-0.12 0.05,-0.14 0.05,-0.13 0.04,-0.14 0.03,-0.14 0.03,-0.15 0.03,-0.15 0.02,-0.16 0.01,-0.15 0.01,-0.17 0,-0.16 c 0,-2.53 -1.75,-4.53 -5.62,-4.53 -4.19,0 -5.98,2.84 -6.94,7.07 -0.14,0.64 -0.19,0.85 -0.69,0.85 -0.65,0 -0.65,-0.35 -0.65,-1.25 v -6.58 c 0,-0.84 0,-1.19 0.55,-1.19 0.25,0 0.29,0.05 1.25,1 0.09,0.1 0.09,0.19 1,1.14 2.18,-2.09 4.43,-2.14 5.48,-2.14 5.72,0 8.02,3.35 8.02,6.92 0,2.64 -1.5,4.14 -2.1,4.74 -1.64,1.59 -3.59,2 -5.69,2.39 -2.78,0.55 -6.12,1.2 -6.12,4.09 0,1.74 1.3,3.78 5.58,3.78 5.48,0 5.73,-4.48 5.83,-6.03 0.06,-0.45 0.5,-0.45 0.6,-0.45 0.65,0 0.65,0.25 0.65,1.2 v 5.03 c 0,0.85 0,1.19 -0.55,1.19 -0.25,0 -0.35,0 -1,-0.59 -0.14,-0.21 -0.64,-0.64 -0.85,-0.8 -1.89,1.39 -3.93,1.39 -4.68,1.39 -6.08,0 -7.97,-3.33 -7.97,-6.12 0,-1.74 0.8,-3.14 2.14,-4.24 1.59,-1.29 3,-1.59 6.58,-2.28 z"
           inkscape:connector-curvature="0"
           style="fill:#000000;stroke-width:0" /></g>    </g>
  </g>
</svg>
