<?xml version="1.0" encoding="UTF-8" standalone="no"?>
<!-- Created with Inkscape (http://www.inkscape.org/) -->

<svg
   xmlns:dc="http://purl.org/dc/elements/1.1/"
   xmlns:cc="http://creativecommons.org/ns#"
   xmlns:rdf="http://www.w3.org/1999/02/22-rdf-syntax-ns#"
   xmlns:svg="http://www.w3.org/2000/svg"
   xmlns="http://www.w3.org/2000/svg"
   xmlns:sodipodi="http://sodipodi.sourceforge.net/DTD/sodipodi-0.dtd"
   xmlns:inkscape="http://www.inkscape.org/namespaces/inkscape"
   width="576.96997"
   height="482.89999"
   id="svg2"
   version="1.1"
   inkscape:version="0.48.5 r10040"
   sodipodi:docname="rectangularbravaislattice.svg">
  <sodipodi:namedview
     id="base"
     pagecolor="#ffffff"
     bordercolor="#666666"
     borderopacity="1.0"
     inkscape:pageopacity="0.0"
     inkscape:pageshadow="2"
     inkscape:zoom="0.98994949"
     inkscape:cx="212.67644"
     inkscape:cy="241.18768"
     inkscape:document-units="px"
     inkscape:current-layer="layer1"
     showgrid="false"
     inkscape:window-width="1600"
     inkscape:window-height="837"
     inkscape:window-x="-8"
     inkscape:window-y="-8"
     inkscape:window-maximized="1"
     fit-margin-top="0"
     fit-margin-left="0"
     fit-margin-right="0"
     fit-margin-bottom="0" />
  <defs
     id="defs4" />
  <metadata
     id="metadata7">
    <rdf:RDF>
      <cc:Work
         rdf:about="">
        <dc:format>image/svg+xml</dc:format>
        <dc:type
           rdf:resource="http://purl.org/dc/dcmitype/StillImage" />
        <dc:title></dc:title>
      </cc:Work>
    </rdf:RDF>
  </metadata>
  <g
     inkscape:label="Layer 1"
     inkscape:groupmode="layer"
     id="layer1"
     transform="translate(-86.408671,-164.60005)">
    <path
       sodipodi:type="arc"
       style="fill:#5a5ca6;fill-opacity:0.9005848;stroke:#000000;stroke-width:2;stroke-linecap:square;stroke-miterlimit:4;stroke-opacity:1;stroke-dasharray:none;stroke-dashoffset:0"
       id="path2985"
       sodipodi:cx="117.68277"
       sodipodi:cy="421.52191"
       sodipodi:rx="23.738585"
       sodipodi:ry="23.738585"
       d="m 141.42135,421.52191 c 0,13.11046 -10.62812,23.73859 -23.73858,23.73859 -13.11046,0 -23.738585,-10.62813 -23.738585,-23.73859 0,-13.11046 10.628125,-23.73858 23.738585,-23.73858 13.11046,0 23.73858,10.62812 23.73858,23.73858 z"
       transform="translate(7.9368675,-5.2626875)" />
    <path
       transform="translate(180.42042,-5.2626875)"
       sodipodi:type="arc"
       style="fill:#5a5ca6;fill-opacity:0.9005848;stroke:#000000;stroke-width:2;stroke-linecap:square;stroke-miterlimit:4;stroke-opacity:1;stroke-dasharray:none;stroke-dashoffset:0"
       id="path2985-1"
       sodipodi:cx="117.68277"
       sodipodi:cy="421.52191"
       sodipodi:rx="23.738585"
       sodipodi:ry="23.738585"
       d="m 141.42135,421.52191 c 0,13.11046 -10.62812,23.73859 -23.73858,23.73859 -13.11046,0 -23.738585,-10.62813 -23.738585,-23.73859 0,-13.11046 10.628125,-23.73858 23.738585,-23.73858 13.11046,0 23.73858,10.62812 23.73858,23.73858 z" />
    <path
       transform="translate(180.42042,100.73354)"
       sodipodi:type="arc"
       style="fill:#5a5ca6;fill-opacity:0.9005848;stroke:#000000;stroke-width:2;stroke-linecap:square;stroke-miterlimit:4;stroke-opacity:1;stroke-dasharray:none;stroke-dashoffset:0"
       id="path2985-1-7"
       sodipodi:cx="117.68277"
       sodipodi:cy="421.52191"
       sodipodi:rx="23.738585"
       sodipodi:ry="23.738585"
       d="m 141.42135,421.52191 c 0,13.11046 -10.62812,23.73859 -23.73858,23.73859 -13.11046,0 -23.738585,-10.62813 -23.738585,-23.73859 0,-13.11046 10.628125,-23.73858 23.738585,-23.73858 13.11046,0 23.73858,10.62812 23.73858,23.73858 z" />
    <path
       transform="translate(7.9368675,100.73354)"
       sodipodi:type="arc"
       style="fill:#5a5ca6;fill-opacity:0.9005848;stroke:#000000;stroke-width:2;stroke-linecap:square;stroke-miterlimit:4;stroke-opacity:1;stroke-dasharray:none;stroke-dashoffset:0"
       id="path2985-1-7-4"
       sodipodi:cx="117.68277"
       sodipodi:cy="421.52191"
       sodipodi:rx="23.738585"
       sodipodi:ry="23.738585"
       d="m 141.42135,421.52191 c 0,13.11046 -10.62812,23.73859 -23.73858,23.73859 -13.11046,0 -23.738585,-10.62813 -23.738585,-23.73859 0,-13.11046 10.628125,-23.73858 23.738585,-23.73858 13.11046,0 23.73858,10.62812 23.73858,23.73858 z" />
    <path
       sodipodi:type="arc"
       style="fill:#5a5ca6;fill-opacity:0.9005848;stroke:#000000;stroke-width:2;stroke-linecap:square;stroke-miterlimit:4;stroke-opacity:1;stroke-dasharray:none;stroke-dashoffset:0"
       id="path2985-0"
       sodipodi:cx="117.68277"
       sodipodi:cy="421.52191"
       sodipodi:rx="23.738585"
       sodipodi:ry="23.738585"
       d="m 141.42135,421.52191 c 0,13.11046 -10.62812,23.73859 -23.73858,23.73859 -13.11046,0 -23.738585,-10.62813 -23.738585,-23.73859 0,-13.11046 10.628125,-23.73858 23.738585,-23.73858 13.11046,0 23.73858,10.62812 23.73858,23.73858 z"
       transform="translate(7.9368675,-224.17836)" />
    <path
       transform="translate(180.42042,-224.17836)"
       sodipodi:type="arc"
       style="fill:#5a5ca6;fill-opacity:0.9005848;stroke:#000000;stroke-width:2;stroke-linecap:square;stroke-miterlimit:4;stroke-opacity:1;stroke-dasharray:none;stroke-dashoffset:0"
       id="path2985-1-9"
       sodipodi:cx="117.68277"
       sodipodi:cy="421.52191"
       sodipodi:rx="23.738585"
       sodipodi:ry="23.738585"
       d="m 141.42135,421.52191 c 0,13.11046 -10.62812,23.73859 -23.73858,23.73859 -13.11046,0 -23.738585,-10.62813 -23.738585,-23.73859 0,-13.11046 10.628125,-23.73858 23.738585,-23.73858 13.11046,0 23.73858,10.62812 23.73858,23.73858 z" />
    <path
       transform="translate(180.42042,-118.18213)"
       sodipodi:type="arc"
       style="fill:#5a5ca6;fill-opacity:0.9005848;stroke:#000000;stroke-width:2;stroke-linecap:square;stroke-miterlimit:4;stroke-opacity:1;stroke-dasharray:none;stroke-dashoffset:0"
       id="path2985-1-7-48"
       sodipodi:cx="117.68277"
       sodipodi:cy="421.52191"
       sodipodi:rx="23.738585"
       sodipodi:ry="23.738585"
       d="m 141.42135,421.52191 c 0,13.11046 -10.62812,23.73859 -23.73858,23.73859 -13.11046,0 -23.738585,-10.62813 -23.738585,-23.73859 0,-13.11046 10.628125,-23.73858 23.738585,-23.73858 13.11046,0 23.73858,10.62812 23.73858,23.73858 z" />
    <path
       transform="translate(7.9368675,-118.18213)"
       sodipodi:type="arc"
       style="fill:#5a5ca6;fill-opacity:0.9005848;stroke:#000000;stroke-width:2;stroke-linecap:square;stroke-miterlimit:4;stroke-opacity:1;stroke-dasharray:none;stroke-dashoffset:0"
       id="path2985-1-7-4-8"
       sodipodi:cx="117.68277"
       sodipodi:cy="421.52191"
       sodipodi:rx="23.738585"
       sodipodi:ry="23.738585"
       d="m 141.42135,421.52191 c 0,13.11046 -10.62812,23.73859 -23.73858,23.73859 -13.11046,0 -23.738585,-10.62813 -23.738585,-23.73859 0,-13.11046 10.628125,-23.73858 23.738585,-23.73858 13.11046,0 23.73858,10.62812 23.73858,23.73858 z" />
    <path
       sodipodi:type="arc"
       style="fill:#5a5ca6;fill-opacity:0.9005848;stroke:#000000;stroke-width:2;stroke-linecap:square;stroke-miterlimit:4;stroke-opacity:1;stroke-dasharray:none;stroke-dashoffset:0"
       id="path2985-2"
       sodipodi:cx="117.68277"
       sodipodi:cy="421.52191"
       sodipodi:rx="23.738585"
       sodipodi:ry="23.738585"
       d="m 141.42135,421.52191 c 0,13.11046 -10.62812,23.73859 -23.73858,23.73859 -13.11046,0 -23.738585,-10.62813 -23.738585,-23.73859 0,-13.11046 10.628125,-23.73858 23.738585,-23.73858 13.11046,0 23.73858,10.62812 23.73858,23.73858 z"
       transform="translate(341.47661,-3.6037309)" />
    <path
       transform="translate(513.96016,-3.6037309)"
       sodipodi:type="arc"
       style="fill:#5a5ca6;fill-opacity:0.9005848;stroke:#000000;stroke-width:2;stroke-linecap:square;stroke-miterlimit:4;stroke-opacity:1;stroke-dasharray:none;stroke-dashoffset:0"
       id="path2985-1-4"
       sodipodi:cx="117.68277"
       sodipodi:cy="421.52191"
       sodipodi:rx="23.738585"
       sodipodi:ry="23.738585"
       d="m 141.42135,421.52191 c 0,13.11046 -10.62812,23.73859 -23.73858,23.73859 -13.11046,0 -23.738585,-10.62813 -23.738585,-23.73859 0,-13.11046 10.628125,-23.73858 23.738585,-23.73858 13.11046,0 23.73858,10.62812 23.73858,23.73858 z" />
    <path
       transform="translate(513.96016,102.39249)"
       sodipodi:type="arc"
       style="fill:#5a5ca6;fill-opacity:0.9005848;stroke:#000000;stroke-width:2;stroke-linecap:square;stroke-miterlimit:4;stroke-opacity:1;stroke-dasharray:none;stroke-dashoffset:0"
       id="path2985-1-7-5"
       sodipodi:cx="117.68277"
       sodipodi:cy="421.52191"
       sodipodi:rx="23.738585"
       sodipodi:ry="23.738585"
       d="m 141.42135,421.52191 c 0,13.11046 -10.62812,23.73859 -23.73858,23.73859 -13.11046,0 -23.738585,-10.62813 -23.738585,-23.73859 0,-13.11046 10.628125,-23.73858 23.738585,-23.73858 13.11046,0 23.73858,10.62812 23.73858,23.73858 z" />
    <path
       transform="translate(341.47661,102.39249)"
       sodipodi:type="arc"
       style="fill:#5a5ca6;fill-opacity:0.9005848;stroke:#000000;stroke-width:2;stroke-linecap:square;stroke-miterlimit:4;stroke-opacity:1;stroke-dasharray:none;stroke-dashoffset:0"
       id="path2985-1-7-4-5"
       sodipodi:cx="117.68277"
       sodipodi:cy="421.52191"
       sodipodi:rx="23.738585"
       sodipodi:ry="23.738585"
       d="m 141.42135,421.52191 c 0,13.11046 -10.62812,23.73859 -23.73858,23.73859 -13.11046,0 -23.738585,-10.62813 -23.738585,-23.73859 0,-13.11046 10.628125,-23.73858 23.738585,-23.73858 13.11046,0 23.73858,10.62812 23.73858,23.73858 z" />
    <path
       sodipodi:type="arc"
       style="fill:#5a5ca6;fill-opacity:0.9005848;stroke:#000000;stroke-width:2;stroke-linecap:square;stroke-miterlimit:4;stroke-opacity:1;stroke-dasharray:none;stroke-dashoffset:0"
       id="path2985-0-1"
       sodipodi:cx="117.68277"
       sodipodi:cy="421.52191"
       sodipodi:rx="23.738585"
       sodipodi:ry="23.738585"
       d="m 141.42135,421.52191 c 0,13.11046 -10.62812,23.73859 -23.73858,23.73859 -13.11046,0 -23.738585,-10.62813 -23.738585,-23.73859 0,-13.11046 10.628125,-23.73858 23.738585,-23.73858 13.11046,0 23.73858,10.62812 23.73858,23.73858 z"
       transform="translate(341.47661,-222.51941)" />
    <path
       transform="translate(513.96016,-222.51941)"
       sodipodi:type="arc"
       style="fill:#5a5ca6;fill-opacity:0.9005848;stroke:#000000;stroke-width:2;stroke-linecap:square;stroke-miterlimit:4;stroke-opacity:1;stroke-dasharray:none;stroke-dashoffset:0"
       id="path2985-1-9-7"
       sodipodi:cx="117.68277"
       sodipodi:cy="421.52191"
       sodipodi:rx="23.738585"
       sodipodi:ry="23.738585"
       d="m 141.42135,421.52191 c 0,13.11046 -10.62812,23.73859 -23.73858,23.73859 -13.11046,0 -23.738585,-10.62813 -23.738585,-23.73859 0,-13.11046 10.628125,-23.73858 23.738585,-23.73858 13.11046,0 23.73858,10.62812 23.73858,23.73858 z" />
    <path
       transform="translate(513.96016,-116.52318)"
       sodipodi:type="arc"
       style="fill:#5a5ca6;fill-opacity:0.9005848;stroke:#000000;stroke-width:2;stroke-linecap:square;stroke-miterlimit:4;stroke-opacity:1;stroke-dasharray:none;stroke-dashoffset:0"
       id="path2985-1-7-48-1"
       sodipodi:cx="117.68277"
       sodipodi:cy="421.52191"
       sodipodi:rx="23.738585"
       sodipodi:ry="23.738585"
       d="m 141.42135,421.52191 c 0,13.11046 -10.62812,23.73859 -23.73858,23.73859 -13.11046,0 -23.738585,-10.62813 -23.738585,-23.73859 0,-13.11046 10.628125,-23.73858 23.738585,-23.73858 13.11046,0 23.73858,10.62812 23.73858,23.73858 z" />
    <path
       transform="translate(341.47661,-116.52318)"
       sodipodi:type="arc"
       style="fill:#5a5ca6;fill-opacity:0.9005848;stroke:#000000;stroke-width:2;stroke-linecap:square;stroke-miterlimit:4;stroke-opacity:1;stroke-dasharray:none;stroke-dashoffset:0"
       id="path2985-1-7-4-8-1"
       sodipodi:cx="117.68277"
       sodipodi:cy="421.52191"
       sodipodi:rx="23.738585"
       sodipodi:ry="23.738585"
       d="m 141.42135,421.52191 c 0,13.11046 -10.62812,23.73859 -23.73858,23.73859 -13.11046,0 -23.738585,-10.62813 -23.738585,-23.73859 0,-13.11046 10.628125,-23.73858 23.738585,-23.73858 13.11046,0 23.73858,10.62812 23.73858,23.73858 z" />
    <rect
       style="fill:#5a5ca6;fill-opacity:0.52046784;stroke:#000000;stroke-width:1;stroke-linecap:square;stroke-miterlimit:4;stroke-opacity:1;stroke-dasharray:none;stroke-dashoffset:0"
       id="rect3883"
       width="176.5218"
       height="109.09647"
       x="125.1777"
       y="416.00668" />
    <path
       sodipodi:type="star"
       style="fill:#000000;fill-opacity:1;stroke:#000000;stroke-width:1;stroke-linecap:square;stroke-miterlimit:4;stroke-opacity:1;stroke-dasharray:none;stroke-dashoffset:0"
       id="path3885"
       sodipodi:sides="3"
       sodipodi:cx="46.428574"
       sodipodi:cy="407.00504"
       sodipodi:r1="11.589272"
       sodipodi:r2="5.7946358"
       sodipodi:arg1="2.6179939"
       sodipodi:arg2="3.6651914"
       inkscape:flatsided="false"
       inkscape:rounded="0"
       inkscape:randomized="0"
       d="m 36.39197,412.79967 5.018302,-8.69195 5.018302,-8.69196 5.018301,8.69196 5.018302,8.69195 -10.036603,0 z"
       inkscape:transform-center-y="-2.3571842"
       transform="matrix(0.81357506,0,0,0.81357506,87.254293,94.115712)" />
    <path
       sodipodi:type="star"
       style="fill:#000000;fill-opacity:1;stroke:#000000;stroke-width:1;stroke-linecap:square;stroke-miterlimit:4;stroke-opacity:1;stroke-dasharray:none;stroke-dashoffset:0"
       id="path3885-5"
       sodipodi:sides="3"
       sodipodi:cx="46.428574"
       sodipodi:cy="407.00504"
       sodipodi:r1="11.589272"
       sodipodi:r2="5.7946358"
       sodipodi:arg1="2.6179939"
       sodipodi:arg2="3.6651914"
       inkscape:flatsided="false"
       inkscape:rounded="0"
       inkscape:randomized="0"
       d="m 36.39197,412.79967 5.018302,-8.69195 5.018302,-8.69196 5.018301,8.69196 5.018302,8.69195 -10.036603,0 z"
       transform="matrix(0,0.81357506,-0.81357506,0,623.97005,487.25363)"
       inkscape:transform-center-x="-2.3571799" />
    <path
       sodipodi:type="arc"
       style="fill:none;stroke:#000000;stroke-width:3;stroke-linecap:square;stroke-miterlimit:4;stroke-opacity:1;stroke-dasharray:none;stroke-dashoffset:0"
       id="path3905"
       sodipodi:cx="137.85715"
       sodipodi:cy="519.14789"
       sodipodi:rx="20"
       sodipodi:ry="20"
       d="m 157.85715,519.14789 c 0,11.04569 -8.95431,20 -20,20 l 0,-20 z"
       sodipodi:start="0"
       sodipodi:end="1.5707963"
       transform="matrix(0,-1,1,0,-393.64788,662.29075)" />
    <g
       transform="matrix(0.93389216,0,0,0.93389216,-130.71183,171.41001)"
       id="g3932">
      <g
         style="font-style:normal;font-variant:normal;font-weight:normal;font-stretch:normal;letter-spacing:normal;word-spacing:normal;text-anchor:start;fill:none;stroke:#000000;stroke-linecap:butt;stroke-linejoin:miter;stroke-miterlimit:10.43299961;stroke-opacity:1;stroke-dasharray:none;stroke-dashoffset:0"
         id="content"
         transform="matrix(1.0629921,0,0,-1.0629921,-186.02362,789.27165)"
         xml:space="preserve"
         stroke-miterlimit="10.433"
         font-style="normal"
         font-variant="normal"
         font-weight="normal"
         font-stretch="normal"
         font-size-adjust="none"
         letter-spacing="normal"
         word-spacing="normal"><path
           style="fill:#000000;stroke-width:0"
           inkscape:connector-curvature="0"
           d="m 478.19,431.11 0,0.31 -0.01,0.34 -0.02,0.36 -0.02,0.37 -0.03,0.39 -0.04,0.39 -0.04,0.41 -0.06,0.41 -0.07,0.42 -0.07,0.43 -0.09,0.42 -0.1,0.43 -0.12,0.42 -0.12,0.42 -0.14,0.41 -0.16,0.41 -0.17,0.4 -0.18,0.38 -0.2,0.37 -0.22,0.36 -0.23,0.34 -0.25,0.32 -0.28,0.3 -0.29,0.27 -0.31,0.25 -0.16,0.12 -0.17,0.1 -0.17,0.1 -0.18,0.1 -0.18,0.08 -0.19,0.08 -0.19,0.07 -0.2,0.06 -0.21,0.05 -0.21,0.05 -0.22,0.03 -0.22,0.02 -0.23,0.02 -0.23,0 -0.05,-1.09 c 2.44,0 2.73,-3.19 2.73,-6.03 0,-2.44 -0.39,-4.99 -1.59,-9.92 h -10.41 c 0.85,3.2 1.85,7.18 3.83,10.72 1.36,2.43 3.19,5.23 5.44,5.23 l 0.05,1.09 c -6.92,0 -14.6,-14.04 -14.6,-25.45 0,-4.69 1.44,-10.22 5.99,-10.22 v 1.1 c -1.66,0 -2.71,1.45 -2.71,6.07 0,2.1 0.3,4.99 1.6,9.86 h 10.37 c -0.54,-2.28 -1.59,-6.51 -3.5,-10.11 -1.73,-3.39 -3.62,-5.82 -5.76,-5.82 v -1.1 c 7.01,0 14.59,14.3 14.59,25.46 z"
           id="path3935" /></g>    </g>
    <g
       id="g3991"
       transform="matrix(0.83415503,0,0,0.83415503,-156.30581,183.64862)">
      <g
         word-spacing="normal"
         letter-spacing="normal"
         font-size-adjust="none"
         font-stretch="normal"
         font-weight="normal"
         font-variant="normal"
         font-style="normal"
         stroke-miterlimit="10.433"
         xml:space="preserve"
         transform="matrix(1.0629921,0,0,-1.0629921,-186.02362,789.27165)"
         id="g3993"
         style="font-style:normal;font-variant:normal;font-weight:normal;font-stretch:normal;letter-spacing:normal;word-spacing:normal;text-anchor:start;fill:none;stroke:#000000;stroke-linecap:butt;stroke-linejoin:miter;stroke-miterlimit:10.43299961;stroke-opacity:1;stroke-dasharray:none;stroke-dashoffset:0"><path
           id="path3995"
           d="m 481.18,422 0.02,0.11 0.03,0.13 0.03,0.12 0.04,0.13 0.03,0.13 0.03,0.14 0.07,0.27 0.06,0.28 0.07,0.28 0.06,0.27 0.07,0.27 0.03,0.13 0.02,0.13 0.03,0.13 0.03,0.12 0.02,0.12 0.03,0.12 0.02,0.11 0.02,0.1 0.02,0.1 0.01,0.09 0.02,0.09 0.01,0.08 0.01,0.07 0.01,0.06 0,0.06 0,0.04 c 0,1.6 -1.29,2.19 -2.34,2.19 -0.94,0 -1.94,-0.5 -2.53,-1.25 -0.75,0.8 -2.39,2.09 -5.28,2.09 l 0.09,-1.79 c 2.94,0 4.14,-2.33 4.14,-2.88 l -0.11,-0.7 -3.03,-12.5 c -1.45,-1.7 -3.8,-3.25 -6.19,-3.25 -3.08,0 -3.33,2.69 -3.33,3.8 0,2.57 1.69,8.72 2.49,10.65 1.55,3.64 3.98,4.88 6.03,4.88 l -0.09,1.79 c -8.68,0 -14.07,-7.87 -14.07,-14.68 0,-6.14 4.6,-8.24 8.72,-8.24 3.55,0 6.14,1.96 6.94,2.71 1.89,-2.71 5.17,-2.71 5.72,-2.71 1.84,0 3.3,1.05 4.34,2.85 1.25,2 1.89,4.68 1.89,4.93 0,0.71 -0.75,0.71 -1.2,0.71 -0.55,0 -0.73,0 -0.98,-0.25 -0.11,-0.11 -0.11,-0.21 -0.41,-1.46 -1,-3.98 -2.14,-4.98 -3.39,-4.98 -0.55,0 -1.14,0.2 -1.14,1.84 0,0.85 0.2,1.64 0.7,3.64 0.35,1.39 0.85,3.39 1.1,4.49 z"
           inkscape:connector-curvature="0"
           style="fill:#000000;stroke-width:0" /></g>    </g>
    <g
       transform="matrix(0.74782176,0,0,0.74782176,-27.225332,290.0223)"
       id="g4057">
      <g
         style="font-style:normal;font-variant:normal;font-weight:normal;font-stretch:normal;letter-spacing:normal;word-spacing:normal;text-anchor:start;fill:none;stroke:#000000;stroke-linecap:butt;stroke-linejoin:miter;stroke-miterlimit:10.43299961;stroke-opacity:1;stroke-dasharray:none;stroke-dashoffset:0"
         id="g4059"
         transform="matrix(1.0629921,0,0,-1.0629921,-186.02362,789.27165)"
         xml:space="preserve"
         stroke-miterlimit="10.433"
         font-style="normal"
         font-variant="normal"
         font-weight="normal"
         font-stretch="normal"
         font-size-adjust="none"
         letter-spacing="normal"
         word-spacing="normal"><path
           style="fill:#000000;stroke-width:0"
           inkscape:connector-curvature="0"
           d="m 469.52,439.03 0.01,0.03 0.01,0.03 0.01,0.03 0.01,0.03 0,0.03 0.01,0.03 0.01,0.03 0.01,0.02 0,0.03 0.01,0.02 0.01,0.03 0,0.02 0.01,0.02 0.01,0.03 0,0.02 0.01,0.02 0,0.02 0.01,0.02 0,0.02 0.01,0.01 0,0.02 0.01,0.02 0,0.03 0.01,0.03 0.01,0.03 0,0.02 0.01,0.03 0,0.02 0.01,0.02 0,0.01 0,0.02 0,0.01 0.01,0.02 0,0.01 0,0.01 0,0.01 0,0.01 0,0 0,0.01 0,0.01 0,0 0,0.01 c 0,0.66 -0.54,0.91 -1.09,0.91 -0.2,0 -0.25,0 -0.36,-0.05 l -6.42,-0.3 c -0.71,-0.06 -1.6,-0.11 -1.6,-1.5 0,-0.9 0.94,-0.9 1.3,-0.9 0.55,0 1.44,0 2.09,-0.1 -0.4,-1.68 -0.9,-3.82 -1.4,-5.73 l -3.44,-13.75 c -0.69,-2.78 -0.69,-3.38 -0.69,-4.53 0,-6.38 4.74,-8.13 8.47,-8.13 l 0.1,1.8 c -1.94,0 -3.58,1.05 -3.58,4.14 0,1.59 0.5,3.44 0.84,4.98 0.5,1.9 1.35,5.33 1.69,6.83 0.25,0.85 3.09,3.38 6.12,3.38 3.1,0 3.35,-2.69 3.35,-3.78 0,-2.6 -1.69,-8.72 -2.49,-10.66 -1.7,-4.05 -4.48,-4.89 -5.93,-4.89 h 0 l -0.1,-1.8 c 9.02,0 14.14,8.13 14.14,14.71 0,6.12 -4.58,8.21 -8.72,8.21 -2.39,0 -4.37,-0.93 -5.42,-1.59 z"
           id="path4061" /></g>    </g>
    <g
       id="g4129"
       transform="translate(-131.40105,272.7818)">
      <g
         word-spacing="normal"
         letter-spacing="normal"
         font-size-adjust="none"
         font-stretch="normal"
         font-weight="normal"
         font-variant="normal"
         font-style="normal"
         stroke-miterlimit="10.433"
         xml:space="preserve"
         transform="matrix(1.0629921,0,0,-1.0629921,-186.02362,789.27165)"
         id="g4131"
         style="font-style:normal;font-variant:normal;font-weight:normal;font-stretch:normal;letter-spacing:normal;word-spacing:normal;text-anchor:start;fill:none;stroke:#000000;stroke-linecap:butt;stroke-linejoin:miter;stroke-miterlimit:10.43299961;stroke-opacity:1;stroke-dasharray:none;stroke-dashoffset:0"><path
           id="path4133"
           d="m 463.44,441.78 0,0.16 0,0.17 -0.01,0.16 0,0.08 0,0.08 -0.01,0.08 -0.01,0.08 -0.01,0.07 -0.01,0.07 -0.02,0.07 -0.01,0.07 -0.02,0.07 -0.02,0.06 -0.03,0.06 -0.03,0.06 -0.03,0.06 -0.03,0.05 -0.04,0.05 -0.04,0.05 -0.05,0.04 -0.05,0.04 -0.03,0.01 -0.03,0.02 -0.03,0.02 -0.03,0.01 -0.03,0.01 -0.03,0.02 -0.03,0.01 -0.04,0.01 -0.04,0.01 -0.03,0.01 -0.04,0 -0.04,0.01 -0.04,0 -0.05,0.01 -0.04,0 -0.05,0 c -1,0 -1,-0.89 -1,-1.78 v -46.24 c 0,-0.9 0,-1.79 1,-1.79 1,0 1,0.89 1,1.79 z"
           inkscape:connector-curvature="0"
           style="fill:#000000;stroke-width:0" /><path
           id="path4135"
           d="m 494.97,422 0.03,0.11 0.03,0.13 0.03,0.12 0.03,0.13 0.03,0.13 0.04,0.14 0.06,0.27 0.07,0.28 0.07,0.28 0.06,0.27 0.06,0.27 0.03,0.13 0.03,0.13 0.03,0.13 0.03,0.12 0.02,0.12 0.02,0.12 0.03,0.11 0.02,0.1 0.02,0.1 0.01,0.09 0.02,0.09 0.01,0.08 0.01,0.07 0,0.06 0.01,0.06 0,0.04 c 0,1.6 -1.3,2.19 -2.34,2.19 -0.94,0 -1.94,-0.5 -2.54,-1.25 -0.75,0.8 -2.39,2.09 -5.28,2.09 l 0.1,-1.79 c 2.93,0 4.14,-2.33 4.14,-2.88 l -0.11,-0.7 -3.03,-12.5 c -1.46,-1.7 -3.8,-3.25 -6.19,-3.25 -3.08,0 -3.33,2.69 -3.33,3.8 0,2.57 1.69,8.72 2.49,10.65 1.54,3.64 3.98,4.88 6.03,4.88 l -0.1,1.79 c -8.67,0 -14.06,-7.87 -14.06,-14.68 0,-6.14 4.59,-8.24 8.72,-8.24 3.55,0 6.14,1.96 6.94,2.71 1.89,-2.71 5.17,-2.71 5.72,-2.71 1.84,0 3.29,1.05 4.34,2.85 1.25,2 1.89,4.68 1.89,4.93 0,0.71 -0.75,0.71 -1.2,0.71 -0.55,0 -0.74,0 -0.99,-0.25 -0.11,-0.11 -0.11,-0.21 -0.4,-1.46 -1,-3.98 -2.14,-4.98 -3.39,-4.98 -0.55,0 -1.14,0.2 -1.14,1.84 0,0.85 0.2,1.64 0.7,3.64 0.34,1.39 0.84,3.39 1.09,4.49 z"
           inkscape:connector-curvature="0"
           style="fill:#000000;stroke-width:0" /><path
           id="path4137"
           d="m 508.8,441.78 0,0.16 0,0.17 -0.01,0.16 0,0.08 -0.01,0.08 -0.01,0.08 0,0.08 -0.01,0.07 -0.02,0.07 -0.01,0.07 -0.02,0.07 -0.02,0.07 -0.02,0.06 -0.02,0.06 -0.03,0.06 -0.03,0.06 -0.04,0.05 -0.04,0.05 -0.04,0.05 -0.04,0.04 -0.05,0.04 -0.03,0.01 -0.03,0.02 -0.03,0.02 -0.03,0.01 -0.03,0.01 -0.03,0.02 -0.04,0.01 -0.03,0.01 -0.04,0.01 -0.04,0.01 -0.04,0 -0.04,0.01 -0.04,0 -0.04,0.01 -0.05,0 -0.04,0 c -1,0 -1,-0.89 -1,-1.78 v -46.24 c 0,-0.9 0,-1.79 1,-1.79 1,0 1,0.89 1,1.79 z"
           inkscape:connector-curvature="0"
           style="fill:#000000;stroke-width:0" /><path
           id="path4139"
           d="m 559.98,439.93 0.02,0.04 0.02,0.03 0.02,0.03 0.01,0.03 0.02,0.02 0.01,0.03 0.02,0.03 0.01,0.03 0.02,0.02 0.01,0.03 0.01,0.02 0.02,0.02 0.01,0.03 0.01,0.02 0.01,0.02 0.01,0.02 0.02,0.04 0.02,0.04 0.01,0.03 0.02,0.04 0.01,0.03 0.02,0.02 0.01,0.03 0.01,0.03 0,0.02 0.01,0.02 0.01,0.02 0,0.02 0.01,0.02 0,0.02 0.01,0.02 0,0.01 0,0.02 0,0.01 0,0.03 0,0.02 0.01,0.03 c 0,0.36 -0.3,1 -0.99,1 -0.61,0 -0.75,-0.3 -1.11,-1 l -22.36,-43.48 c -0.4,-0.71 -0.4,-0.8 -0.4,-0.96 0,-0.39 0.36,-1 1,-1 0.59,0 0.75,0.3 1.09,1 z"
           inkscape:connector-curvature="0"
           style="fill:#000000;stroke-width:0" /><path
           id="path4141"
           d="m 562.83,422.5 0.14,0 0.14,0 0.15,0 0.07,0.01 0.07,0 0.07,0.01 0.08,0.01 0.07,0.01 0.07,0.01 0.06,0.01 0.07,0.02 0.06,0.02 0.07,0.02 0.06,0.02 0.06,0.03 0.05,0.03 0.06,0.04 0.05,0.03 0.04,0.05 0.05,0.04 0.04,0.05 0.01,0.03 0.02,0.03 0.02,0.02 0.01,0.03 0.02,0.03 0.01,0.04 0.01,0.03 0.01,0.04 0.01,0.03 0.01,0.04 0.01,0.04 0.01,0.04 0,0.04 0,0.04 0.01,0.04 0,0.05 c 0,1 -0.96,1 -1.64,1 h -29.85 c -0.7,0 -1.64,0 -1.64,-1 0,-0.98 0.94,-0.98 1.69,-0.98 z"
           inkscape:connector-curvature="0"
           style="fill:#000000;stroke-width:0" /><path
           id="path4143"
           d="m 562.88,412.82 0.06,0 0.07,0 0.13,0.01 0.14,0 0.07,0 0.07,0.01 0.07,0.01 0.07,0 0.07,0.01 0.07,0.02 0.06,0.01 0.07,0.02 0.06,0.02 0.06,0.02 0.06,0.02 0.06,0.03 0.06,0.03 0.05,0.04 0.05,0.04 0.04,0.04 0.05,0.05 0.02,0.02 0.02,0.03 0.01,0.02 0.02,0.03 0.02,0.03 0.01,0.03 0.02,0.03 0.01,0.03 0.01,0.04 0.01,0.03 0.01,0.04 0.01,0.04 0.01,0.04 0.01,0.04 0,0.04 0,0.04 0.01,0.05 0,0.04 c 0,1 -0.96,1 -1.69,1 h -29.75 c -0.75,0 -1.69,0 -1.69,-1 0,-1 0.94,-1 1.64,-1 z"
           inkscape:connector-curvature="0"
           style="fill:#000000;stroke-width:0" /><path
           id="path4145"
           d="m 589.07,441.78 0,0.16 0,0.17 -0.01,0.16 0,0.08 -0.01,0.08 0,0.08 -0.01,0.08 -0.01,0.07 -0.01,0.07 -0.02,0.07 -0.01,0.07 -0.02,0.07 -0.02,0.06 -0.03,0.06 -0.03,0.06 -0.03,0.06 -0.03,0.05 -0.04,0.05 -0.04,0.05 -0.05,0.04 -0.05,0.04 -0.03,0.01 -0.03,0.02 -0.03,0.02 -0.03,0.01 -0.03,0.01 -0.03,0.02 -0.03,0.01 -0.04,0.01 -0.04,0.01 -0.03,0.01 -0.04,0 -0.04,0.01 -0.05,0 -0.04,0.01 -0.04,0 -0.05,0 c -1,0 -1,-0.89 -1,-1.78 v -46.24 c 0,-0.9 0,-1.79 1,-1.79 1,0 1,0.89 1,1.79 z"
           inkscape:connector-curvature="0"
           style="fill:#000000;stroke-width:0" /><path
           id="path4147"
           d="m 608.95,439.03 0,0.03 0.01,0.03 0.01,0.03 0.01,0.03 0.01,0.03 0.01,0.03 0,0.03 0.01,0.02 0.01,0.03 0.01,0.02 0,0.03 0.01,0.02 0.01,0.02 0,0.03 0.01,0.02 0,0.02 0.01,0.02 0,0.02 0.01,0.02 0,0.01 0.01,0.02 0,0.02 0.01,0.03 0.01,0.03 0,0.03 0.01,0.02 0,0.03 0.01,0.02 0,0.02 0,0.01 0.01,0.02 0,0.01 0,0.02 0,0.01 0,0.01 0.01,0.01 0,0.01 0,0 0,0.01 0,0.01 0,0 0,0.01 c 0,0.66 -0.55,0.91 -1.1,0.91 -0.2,0 -0.25,0 -0.35,-0.05 l -6.43,-0.3 c -0.7,-0.06 -1.59,-0.11 -1.59,-1.5 0,-0.9 0.94,-0.9 1.3,-0.9 0.54,0 1.43,0 2.09,-0.1 -0.41,-1.68 -0.91,-3.82 -1.41,-5.73 l -3.43,-13.75 c -0.69,-2.78 -0.69,-3.38 -0.69,-4.53 0,-6.38 4.73,-8.13 8.47,-8.13 l 0.09,1.8 c -1.94,0 -3.58,1.05 -3.58,4.14 0,1.59 0.5,3.44 0.85,4.98 0.5,1.9 1.34,5.33 1.68,6.83 0.25,0.85 3.1,3.38 6.13,3.38 3.09,0 3.34,-2.69 3.34,-3.78 0,-2.6 -1.68,-8.72 -2.48,-10.66 -1.7,-4.05 -4.49,-4.89 -5.94,-4.89 h 0 l -0.09,-1.8 c 9.01,0 14.14,8.13 14.14,14.71 0,6.12 -4.58,8.21 -8.72,8.21 -2.39,0 -4.38,-0.93 -5.42,-1.59 z"
           inkscape:connector-curvature="0"
           style="fill:#000000;stroke-width:0" /><path
           id="path4149"
           d="m 628.91,441.78 0,0.16 -0.01,0.17 0,0.16 0,0.08 -0.01,0.08 -0.01,0.08 0,0.08 -0.01,0.07 -0.02,0.07 -0.01,0.07 -0.02,0.07 -0.02,0.07 -0.02,0.06 -0.02,0.06 -0.03,0.06 -0.03,0.06 -0.04,0.05 -0.04,0.05 -0.04,0.05 -0.05,0.04 -0.05,0.04 -0.02,0.01 -0.03,0.02 -0.03,0.02 -0.03,0.01 -0.03,0.01 -0.03,0.02 -0.04,0.01 -0.03,0.01 -0.04,0.01 -0.04,0.01 -0.04,0 -0.04,0.01 -0.04,0 -0.04,0.01 -0.05,0 -0.04,0 c -1,0 -1,-0.89 -1,-1.78 v -46.24 c 0,-0.9 0,-1.79 1,-1.79 1,0 1,0.89 1,1.79 z"
           inkscape:connector-curvature="0"
           style="fill:#000000;stroke-width:0" /><path
           id="path4151"
           d="m 644.89,406.25 0,0.3 -0.01,0.3 -0.02,0.29 -0.03,0.28 -0.03,0.27 -0.04,0.26 -0.04,0.26 -0.05,0.24 -0.06,0.24 -0.07,0.23 -0.07,0.22 -0.07,0.21 -0.09,0.2 -0.08,0.19 -0.1,0.19 -0.1,0.17 -0.11,0.16 -0.11,0.16 -0.12,0.14 -0.12,0.13 -0.13,0.13 -0.13,0.11 -0.14,0.1 -0.14,0.1 -0.15,0.08 -0.16,0.07 -0.16,0.06 -0.16,0.05 -0.17,0.04 -0.17,0.03 -0.18,0.01 -0.18,0.01 c -1.64,0 -2.64,-1.25 -2.64,-2.64 0,-1.34 1,-2.64 2.64,-2.64 0.6,0 1.25,0.2 1.75,0.64 0.14,0.11 0.21,0.16 0.25,0.16 0.05,0 0.1,-0.05 0.1,-0.75 0,-3.69 -1.74,-6.68 -3.39,-8.32 -0.55,-0.54 -0.55,-0.65 -0.55,-0.79 0,-0.36 0.25,-0.55 0.5,-0.55 0.55,0 4.53,3.83 4.53,9.66 z"
           inkscape:connector-curvature="0"
           style="fill:#000000;stroke-width:0" /><path
           id="path4153"
           d="m 729.45,431.11 0,0.31 -0.01,0.34 -0.02,0.36 -0.02,0.37 -0.03,0.39 -0.04,0.39 -0.05,0.41 -0.05,0.41 -0.07,0.42 -0.08,0.43 -0.08,0.42 -0.11,0.43 -0.11,0.42 -0.12,0.42 -0.14,0.41 -0.16,0.41 -0.17,0.4 -0.18,0.38 -0.2,0.37 -0.22,0.36 -0.23,0.34 -0.26,0.32 -0.27,0.3 -0.29,0.27 -0.31,0.25 -0.16,0.12 -0.17,0.1 -0.17,0.1 -0.18,0.1 -0.18,0.08 -0.19,0.08 -0.19,0.07 -0.2,0.06 -0.21,0.05 -0.21,0.05 -0.22,0.03 -0.22,0.02 -0.23,0.02 -0.23,0 -0.05,-1.09 c 2.43,0 2.73,-3.19 2.73,-6.03 0,-2.44 -0.39,-4.99 -1.59,-9.92 h -10.41 c 0.85,3.2 1.85,7.18 3.83,10.72 1.36,2.43 3.19,5.23 5.44,5.23 l 0.05,1.09 c -6.93,0 -14.6,-14.04 -14.6,-25.45 0,-4.69 1.44,-10.22 5.98,-10.22 v 1.1 c -1.65,0 -2.7,1.45 -2.7,6.07 0,2.1 0.3,4.99 1.6,9.86 h 10.37 c -0.55,-2.28 -1.59,-6.51 -3.5,-10.11 -1.73,-3.39 -3.62,-5.82 -5.77,-5.82 v -1.1 c 7.02,0 14.6,14.3 14.6,25.46 z"
           inkscape:connector-curvature="0"
           style="fill:#000000;stroke-width:0" /><path
           id="path4155"
           d="m 779.53,422.5 0.14,0 0.14,0 0.15,0 0.07,0.01 0.07,0 0.08,0.01 0.07,0.01 0.07,0.01 0.07,0.01 0.07,0.01 0.06,0.02 0.07,0.02 0.06,0.02 0.06,0.02 0.06,0.03 0.06,0.03 0.05,0.04 0.05,0.03 0.05,0.05 0.04,0.04 0.04,0.05 0.02,0.03 0.01,0.03 0.02,0.02 0.02,0.03 0.01,0.03 0.01,0.04 0.02,0.03 0.01,0.04 0.01,0.03 0,0.04 0.01,0.04 0.01,0.04 0,0.04 0.01,0.04 0,0.04 0,0.05 c 0,1 -0.95,1 -1.64,1 h -29.85 c -0.7,0 -1.64,0 -1.64,-1 0,-0.98 0.94,-0.98 1.69,-0.98 z"
           inkscape:connector-curvature="0"
           style="fill:#000000;stroke-width:0" /><path
           id="path4157"
           d="m 779.58,412.82 0.06,0 0.07,0 0.14,0.01 0.13,0 0.07,0 0.07,0.01 0.07,0.01 0.07,0 0.07,0.01 0.07,0.02 0.07,0.01 0.06,0.02 0.06,0.02 0.07,0.02 0.06,0.02 0.05,0.03 0.06,0.03 0.05,0.04 0.05,0.04 0.05,0.04 0.04,0.05 0.02,0.02 0.02,0.03 0.02,0.02 0.01,0.03 0.02,0.03 0.02,0.03 0.01,0.03 0.01,0.03 0.02,0.04 0.01,0.03 0.01,0.04 0,0.04 0.01,0.04 0.01,0.04 0,0.04 0.01,0.04 0,0.05 0,0.04 c 0,1 -0.95,1 -1.69,1 h -29.75 c -0.75,0 -1.69,0 -1.69,-1 0,-1 0.94,-1 1.64,-1 z"
           inkscape:connector-curvature="0"
           style="fill:#000000;stroke-width:0" /><path
           id="path4159"
           d="m 816.14,422.04 v -1.59 c 0,-11.66 -5.17,-13.95 -8.07,-13.95 -0.85,0 -3.54,0.11 -4.89,1.79 2.19,0 2.6,1.44 2.6,2.3 0,1.53 -1.21,2.28 -2.3,2.28 -0.8,0 -2.28,-0.44 -2.28,-2.39 0,-3.33 2.69,-5.37 6.92,-5.37 6.42,0 12.5,6.76 12.5,17.48 0,13.41 -5.73,16.8 -10.15,16.8 -2.75,0 -5.19,-0.91 -7.33,-3.14 -2.05,-2.25 -3.19,-4.35 -3.19,-8.08 0,-6.22 4.39,-11.11 9.97,-11.11 l 0.05,1.14 c -0.8,0 -3.1,0 -4.65,3.14 -0.89,1.84 -0.89,4.34 -0.89,6.78 0,2.69 0,5.03 1.05,6.88 1.34,2.48 3.24,3.14 4.99,3.14 2.28,0 3.93,-1.71 4.78,-3.94 0.59,-1.59 0.79,-4.74 0.79,-7.03 0,-4.13 -1.7,-8.97 -6.07,-8.97 h 0 l -0.05,-1.14 c 3.03,0 5.08,2.09 6.22,4.98 z"
           inkscape:connector-curvature="0"
           style="fill:#000000;stroke-width:0" /><path
           id="path4161"
           d="m 845.73,422.14 0,0.74 -0.01,0.75 -0.02,0.75 -0.03,0.74 -0.05,0.75 -0.06,0.74 -0.07,0.74 -0.1,0.73 -0.12,0.73 -0.13,0.73 -0.17,0.72 -0.19,0.72 -0.21,0.72 -0.25,0.7 -0.28,0.7 -0.15,0.35 -0.16,0.34 c -2.28,4.8 -6.37,5.6 -8.46,5.6 -2.99,0 -6.63,-1.3 -8.68,-5.94 -1.59,-3.44 -1.84,-7.33 -1.84,-11.31 0,-3.74 0.2,-8.22 2.25,-12 2.14,-4.03 5.78,-5.03 8.22,-5.03 v 1.09 c -1.94,0 -4.89,1.25 -5.78,6.03 -0.55,2.98 -0.55,7.56 -0.55,10.52 0,3.18 0,6.46 0.41,9.15 0.93,5.94 4.67,6.38 5.92,6.38 1.64,0 4.94,-0.89 5.87,-5.83 0.5,-2.78 0.5,-6.58 0.5,-9.7 0,-3.75 0,-7.13 -0.54,-10.32 -0.75,-4.73 -3.6,-6.23 -5.83,-6.23 h 0 v -1.09 c 2.69,0 6.47,1.04 8.67,5.78 1.59,3.43 1.84,7.31 1.84,11.25 z"
           inkscape:connector-curvature="0"
           style="fill:#000000;stroke-width:0" /><path
           id="path4163"
           d="m 865.47,432.92 -0.01,0.39 -0.03,0.38 -0.04,0.38 -0.07,0.38 -0.09,0.36 -0.1,0.36 -0.12,0.35 -0.13,0.34 -0.15,0.33 -0.17,0.33 -0.18,0.31 -0.2,0.3 -0.21,0.3 -0.22,0.28 -0.24,0.27 -0.25,0.26 -0.26,0.24 -0.27,0.24 -0.28,0.22 -0.3,0.2 -0.3,0.19 -0.32,0.18 -0.32,0.17 -0.33,0.14 -0.34,0.14 -0.35,0.11 -0.35,0.1 -0.36,0.08 -0.37,0.07 -0.38,0.04 -0.37,0.03 -0.39,0.01 v -1.7 c 3.28,0 5.78,-2.66 5.78,-5.75 0,-3.25 -2.57,-5.78 -5.78,-5.78 h 0 c -3.26,0 -5.78,2.64 -5.78,5.75 0,3.23 2.58,5.78 5.78,5.78 v 1.7 c -4.17,0 -7.48,-3.37 -7.48,-7.45 0,-4.22 3.37,-7.5 7.48,-7.5 4.19,0 7.5,3.39 7.5,7.47 z"
           inkscape:connector-curvature="0"
           style="fill:#000000;stroke-width:0" /></g>    </g>
    <path
       style="fill:none;stroke:#000000;stroke-width:3;stroke-linecap:butt;stroke-linejoin:miter;stroke-miterlimit:4;stroke-opacity:1;stroke-dasharray:none"
       d="m 124.92073,525.99802 0,-96.18585"
       id="path4525"
       inkscape:connector-curvature="0" />
    <path
       style="fill:none;stroke:#000000;stroke-width:3;stroke-linecap:butt;stroke-linejoin:miter;stroke-miterlimit:4;stroke-opacity:1;stroke-dasharray:none"
       d="m 124.16312,524.51398 164.81071,0"
       id="path4525-6"
       inkscape:connector-curvature="0" />
  </g>
</svg>
