<?xml version="1.0" encoding="UTF-8" standalone="no"?>
<svg
   xmlns:dc="http://purl.org/dc/elements/1.1/"
   xmlns:cc="http://creativecommons.org/ns#"
   xmlns:rdf="http://www.w3.org/1999/02/22-rdf-syntax-ns#"
   xmlns:svg="http://www.w3.org/2000/svg"
   xmlns="http://www.w3.org/2000/svg"
   xmlns:sodipodi="http://sodipodi.sourceforge.net/DTD/sodipodi-0.dtd"
   xmlns:inkscape="http://www.inkscape.org/namespaces/inkscape"
   version="1.2"
   width="950.61993"
   height="510.91693"
   viewBox="0 0 268.28607 144.19211"
   font-size="3.88"
   id="svg2"
   inkscape:version="0.48.5 r10040"
   sodipodi:docname="intDecSim_Filt2.svg"
   style="font-size:3.88000011px;fill:#000000;stroke:none">
  <metadata
     id="metadata79">
    <rdf:RDF>
      <cc:Work
         rdf:about="">
        <dc:format>image/svg+xml</dc:format>
        <dc:type
           rdf:resource="http://purl.org/dc/dcmitype/StillImage" />
      </cc:Work>
    </rdf:RDF>
  </metadata>
  <sodipodi:namedview
     pagecolor="#ffffff"
     bordercolor="#666666"
     borderopacity="1"
     objecttolerance="10"
     gridtolerance="10"
     guidetolerance="10"
     inkscape:pageopacity="0"
     inkscape:pageshadow="2"
     inkscape:window-width="1280"
     inkscape:window-height="961"
     id="namedview77"
     showgrid="false"
     inkscape:zoom="0.56175705"
     inkscape:cx="373.75025"
     inkscape:cy="213.56984"
     inkscape:window-x="1592"
     inkscape:window-y="-8"
     inkscape:window-maximized="1"
     inkscape:current-layer="img-0e590489-1"
     fit-margin-top="0"
     fit-margin-left="0"
     fit-margin-right="0"
     fit-margin-bottom="0" />
  <g
     class="plotroot xscalable yscalable"
     id="img-0e590489-1"
     transform="translate(-0.09865321,-3.40625)">
    <g
       font-size="7.5"
       id="img-383bab4a-2"
       transform="translate(0,5.0799997)"
       style="font-size:7.5px;fill:#564a55;stroke:#000000;stroke-opacity:0;font-family:'\'PT Sans\',\'Helvetica Neue\',\'Helvetica\',sans-serif'">
      <text
         x="108.57"
         y="140.78999"
         dy="3.3244304e-038"
         id="text6"
         style="text-anchor:middle">Image Number</text>
    </g>
    <g
       class="guide xlabels"
       font-size="5.0"
       id="img-0e590489-3"
       transform="translate(0,3.3866665)"
       style="font-size:5px;fill:#6c606b;font-family:'\'PT Sans Caption\',\'Helvetica Neue\',\'Helvetica\',sans-serif'">
      <text
         x="20.940001"
         y="134.11"
         dy="3.3244304e-038"
         id="text9"
         style="text-anchor:middle">0</text>
      <text
         x="108.57"
         y="134.11"
         dy="3.3244304e-038"
         id="text11"
         style="text-anchor:middle">50</text>
      <text
         x="196.2"
         y="134.11"
         dy="3.3244304e-038"
         id="text13"
         style="text-anchor:middle">100</text>
    </g>
    <g
       clip-path="url(#img-0e590489-4)"
       id="g15">
      <g
         id="img-0e590489-5">
        <g
           pointer-events="visible"
           class="guide background"
           id="img-0e590489-6"
           style="fill:#000000;fill-opacity:0;stroke:#000000;stroke-opacity:0">
          <rect
             x="18.940001"
             y="5"
             width="179.25999"
             height="128.11"
             id="rect19" />
        </g>
        <g
           class="guide ygridlines xfixed"
           id="img-0e590489-7"
           style="stroke:#d0d0e0;stroke-width:0.5;stroke-dasharray:0.5, 0.5">
          <path
             d="m 18.94,131.11 179.26,0"
             id="path22"
             inkscape:connector-curvature="0"
             style="fill:none" />
          <path
             d="m 18.94,106.29 179.26,0"
             id="path24"
             inkscape:connector-curvature="0"
             style="fill:none" />
          <path
             d="m 18.94,81.47 179.26,0"
             id="path26"
             inkscape:connector-curvature="0"
             style="fill:none" />
          <path
             d="m 18.94,56.65 179.26,0"
             id="path28"
             inkscape:connector-curvature="0"
             style="fill:none" />
          <path
             d="m 18.94,31.82 179.26,0"
             id="path30"
             inkscape:connector-curvature="0"
             style="fill:none" />
          <path
             d="M 18.94,7 198.2,7"
             id="path32"
             inkscape:connector-curvature="0"
             style="fill:none" />
        </g>
        <g
           class="guide xgridlines yfixed"
           id="img-0e590489-8"
           style="stroke:#d0d0e0;stroke-width:0.5;stroke-dasharray:0.5, 0.5">
          <path
             d="m 20.94,5 0,128.11"
             id="path35"
             inkscape:connector-curvature="0"
             style="fill:none" />
          <path
             d="m 108.57,5 0,128.11"
             id="path37"
             inkscape:connector-curvature="0"
             style="fill:none" />
          <path
             d="m 196.2,5 0,128.11"
             id="path39"
             inkscape:connector-curvature="0"
             style="fill:none" />
        </g>
        <g
           class="plotpanel"
           id="img-0e590489-9">
          <g
             class="geometry"
             id="img-0e590489-10"
             style="fill:#bde8ff;stroke:#000000;stroke-width:0.30000001;stroke-opacity:0">
            <path
               d="m 196.2,94.77 -1.75,-0.02 -1.76,-0.01 -1.75,-0.02 -1.75,-0.01 -1.75,-0.01 -1.76,-0.01 -1.75,-0.02 -1.75,-0.01 -1.75,-0.01 -1.76,-0.02 -1.75,-0.01 -1.75,-0.01 -1.75,-0.01 -1.76,-0.02 -1.75,-0.01 -1.75,-0.01 -1.75,-0.01 -1.76,-0.01 -1.75,-0.01 -1.75,-0.02 -1.75,-0.01 -1.76,-0.01 -1.75,-0.01 -1.75,-0.01 -1.76,-0.01 -1.75,3.25 -1.75,0.05 -1.75,0.05 -1.76,0.05 -1.75,0.05 -1.75,0.06 -1.75,0.05 -1.76,0.06 -1.75,0.05 -1.75,0.06 -1.75,0.06 -1.76,0.06 -1.75,0.06 -1.75,0.06 -1.75,0.07 -1.76,0.06 -1.75,0.07 -1.75,0.07 -1.75,0.07 -1.76,0.07 -1.75,0.07 -1.75,0.07 -1.76,0.07 -1.75,0.08 -1.75,0.08 -1.75,0.08 -1.76,0.08 -1.75,0.08 -1.75,0.08 -1.75,0.08 -1.76,0.09 -1.75,0.08 -1.75,0.09 -1.75,0.09 -1.76,0.09 -1.75,0.1 -1.75,0.09 -1.75,0.1 -1.76,0.1 -1.75,0.09 -1.75,0.11 -1.75,0.1 -1.76,0.1 -1.75,0.11 -1.75,0.11 -1.76,0.1 -1.75,6.5 -1.75,0.19 -1.75,0.2 -1.76,0.2 -1.75,0.21 -1.75,0.2 -1.75,0.21 -1.76,0.21 -1.75,0.21 -1.75,0.22 -1.75,0.22 -1.76,0.22 -1.75,0.23 -1.75,0.23 -1.75,0.23 -1.76,0.23 -1.75,0.24 -1.75,0.23 -1.75,0.25 -1.76,0.24 -1.75,0.25 -1.75,0.25 -1.76,0.25 -1.75,0.26 -1.75,0.26 -1.75,0.27 -1.76,0.26 -1.75,0.27 -1.75,0.28 0,-91.79 1.75,0.54 1.75,0.53 1.76,0.53 1.75,0.51 1.75,0.52 1.75,0.51 1.76,0.5 1.75,0.5 1.75,0.49 1.76,0.48 1.75,0.48 1.75,0.48 1.75,0.47 1.76,0.46 1.75,0.46 1.75,0.46 1.75,0.45 1.76,0.44 1.75,0.44 1.75,0.44 1.75,0.42 1.76,0.43 1.75,0.42 1.75,0.41 1.75,0.42 1.76,0.4 1.75,0.4 1.75,0.4 1.75,9.15 1.76,0.28 1.75,0.28 1.75,0.28 1.76,0.27 1.75,0.27 1.75,0.26 1.75,0.26 1.76,0.26 1.75,0.26 1.75,0.25 1.75,0.25 1.76,0.24 1.75,0.25 1.75,0.24 1.75,0.23 1.76,0.24 1.75,0.23 1.75,0.22 1.75,0.23 1.76,0.22 1.75,0.22 1.75,0.22 1.75,0.21 1.76,0.21 1.75,0.21 1.75,0.21 1.76,0.2 1.75,0.2 1.75,0.2 1.75,0.19 1.76,0.19 1.75,0.19 1.75,0.19 1.75,0.19 1.76,0.18 1.75,0.18 1.75,0.18 1.75,0.17 1.76,0.18 1.75,0.17 1.75,0.17 1.75,0.16 1.76,0.17 1.75,0.16 1.75,0.16 1.75,4.9 1.76,0.08 1.75,0.08 1.75,0.08 1.76,0.08 1.75,0.08 1.75,0.08 1.75,0.07 1.76,0.08 1.75,0.07 1.75,0.08 1.75,0.07 1.76,0.07 1.75,0.07 1.75,0.07 1.75,0.07 1.76,0.07 1.75,0.06 1.75,0.07 1.75,0.06 1.76,0.07 1.75,0.06 1.75,0.06 1.75,0.06 1.76,0.06 1.75,0.06 z"
               id="path43"
               inkscape:connector-curvature="0" />
          </g>
          <g
             class="geometry"
             id="img-0e590489-11"
             style="fill:#000000;fill-opacity:0;stroke:#00bfff;stroke-width:1;stroke-dasharray:none">
            <path
               d="m 20.94,68.28 1.75,0.14 1.75,0.13 1.76,0.13 1.75,0.12 1.75,0.13 1.75,0.13 1.76,0.12 1.75,0.12 1.75,0.12 1.76,0.12 1.75,0.12 1.75,0.12 1.75,0.12 1.76,0.11 1.75,0.12 1.75,0.11 1.75,0.11 1.76,0.12 1.75,0.11 1.75,0.1 1.75,0.11 1.76,0.11 1.75,0.11 1.75,0.1 1.75,0.1 1.76,0.11 1.75,0.1 1.75,0.1 1.75,1.33 1.76,0.08 1.75,0.09 1.75,0.08 1.76,0.09 1.75,0.08 1.75,0.08 1.75,0.08 1.76,0.08 1.75,0.08 1.75,0.08 1.75,0.08 1.76,0.08 1.75,0.07 1.75,0.08 1.75,0.08 1.76,0.07 1.75,0.07 1.75,0.08 1.75,0.07 1.76,0.07 1.75,0.07 1.75,0.07 1.75,0.07 1.76,0.07 1.75,0.06 1.75,0.07 1.76,0.07 1.75,0.06 1.75,0.07 1.75,0.06 1.76,0.07 1.75,0.06 1.75,0.06 1.75,0.06 1.76,0.07 1.75,0.06 1.75,0.06 1.75,0.06 1.76,0.05 1.75,0.06 1.75,0.06 1.75,0.06 1.76,0.05 1.75,0.06 1.75,0.05 1.75,0.83 1.76,0.05 1.75,0.04 1.75,0.05 1.76,0.04 1.75,0.05 1.75,0.04 1.75,0.05 1.76,0.04 1.75,0.04 1.75,0.04 1.75,0.05 1.76,0.04 1.75,0.04 1.75,0.04 1.75,0.04 1.76,0.04 1.75,0.04 1.75,0.04 1.75,0.04 1.76,0.04 1.75,0.04 1.75,0.03 1.75,0.04 1.76,0.04 1.75,0.03"
               id="path46"
               inkscape:connector-curvature="0"
               style="fill:none" />
          </g>
          <g
             class="yfixed"
             id="img-0e590489-12"
             style="stroke:#d4ca3a;stroke-width:0.52999997;stroke-dasharray:none">
            <path
               d="m 71.76,5 0,128.11"
               id="path49"
               inkscape:connector-curvature="0"
               style="fill:none" />
            <path
               d="m 152.38,5 0,128.11"
               id="path51"
               inkscape:connector-curvature="0"
               style="fill:none" />
          </g>
          <g
             class="geometry"
             id="img-0e590489-13"
             style="fill:#000000;fill-opacity:0;stroke:#ff5ea0;stroke-width:1;stroke-dasharray:none">
            <path
               d="m 22.69,56.65 1.75,0.24 1.76,0.25 1.75,0.24 1.75,0.24 1.75,0.24 1.76,0.24 1.75,0.23 1.75,0.23 1.76,0.23 1.75,0.23 1.75,0.22 1.75,0.23 1.76,0.22 1.75,0.21 1.75,0.22 1.75,0.21 1.76,0.21 1.75,0.21 1.75,0.21 1.75,0.21 1.76,0.2 1.75,0.2 1.75,0.2 1.75,0.2 1.76,0.19 1.75,0.19 1.75,0.2 1.75,0.18 1.76,0.19 1.75,0.19 1.75,0.18 1.76,0.18 1.75,0.18 1.75,0.18 1.75,0.18 1.76,0.17 1.75,0.17 1.75,0.18 1.75,0.17 1.76,0.16 1.75,0.17 1.75,0.16 1.75,0.17 1.76,0.16 1.75,0.16 1.75,0.15 1.75,0.16 1.76,0.16 1.75,0.15 1.75,0.15 1.75,0.15 1.76,0.15 1.75,0.15 1.75,0.14 1.76,0.15 1.75,0.14 1.75,0.14 1.75,0.14 1.76,0.14 1.75,0.14 1.75,0.13 1.75,0.14 1.76,0.13 1.75,0.13 1.75,0.13 1.75,0.13 1.76,0.13 1.75,0.13 1.75,0.12 1.75,0.13 1.76,0.12 1.75,0.12 1.75,0.12 1.75,0.12 1.76,0.12 1.75,0.11 1.75,0.12 1.76,0.11 1.75,0.12 1.75,0.11 1.75,0.11 1.76,0.11 1.75,0.11 1.75,0.11 1.75,0.1 1.76,0.11 1.75,0.1 1.75,0.11 1.75,0.1 1.76,0.1 1.75,0.1 1.75,0.1 1.75,0.1 1.76,0.1 1.75,0.09 1.75,0.1 1.75,0.09 1.76,0.1 1.75,0.09"
               id="path54"
               inkscape:connector-curvature="0"
               style="fill:none" />
          </g>
          <g
             class="geometry"
             id="img-54f67f96-13"
             style="fill:#000000;fill-opacity:0;stroke:#000000;stroke-width:0.30000001;stroke-dasharray:none">
            <path
               d="m 21.59,100.09 1.76,0 1.77,0 1.76,0 1.76,0 1.77,0 1.76,0 1.77,0 1.76,0 1.76,0 1.77,0 1.76,0 1.76,0 1.77,0 1.76,0 1.77,0 1.76,0 1.76,0 1.77,0 1.76,0 1.76,0 1.77,0 1.76,0 1.77,0 1.76,0 1.76,0 1.77,0 1.76,0 1.76,0 1.77,0 1.76,0 1.77,0 1.76,0 1.76,0 1.77,0 1.76,0 1.76,0 1.77,0 1.76,0 1.77,0 1.76,0 1.76,0 1.77,0 1.76,0 1.76,0 1.77,0 1.76,0 1.77,0 1.76,0 1.76,0 1.77,0 1.76,0 1.76,0 1.77,0 1.76,0 1.77,0 1.76,0 1.76,0 1.77,0 1.76,0 1.76,0 1.77,0 1.76,0 1.77,0 1.76,0 1.76,0 1.77,0 1.76,0 1.76,0 1.77,0 1.76,0 1.77,0 1.76,0 1.76,0 1.77,0 1.76,0 1.76,0 1.77,0 1.76,0 1.77,0 1.76,0 1.76,0 1.77,0 1.76,0 1.76,0 1.77,0 1.76,0 1.77,0 1.76,0 1.76,0 1.77,0 1.76,0 1.76,0 1.77,0 1.76,0 1.77,0 1.76,0 1.76,0 1.77,0 1.76,0"
               id="path55"
               inkscape:connector-curvature="0"
               style="fill:none" />
          </g>
        </g>
      </g>
    </g>
    <g
       class="guide ylabels"
       font-size="5.0"
       id="img-0e590489-14"
       style="font-size:5px;fill:#6c606b;font-family:'\'PT Sans Caption\',\'Helvetica Neue\',\'Helvetica\',sans-serif'">
      <text
         x="17.940001"
         y="131.11"
         dy="3.3244304e-038"
         id="text57"
         style="text-anchor:end">-200</text>
      <text
         x="17.940001"
         y="106.29"
         dy="3.3244304e-038"
         id="text59"
         style="text-anchor:end">-100</text>
      <text
         x="17.940001"
         y="81.470001"
         dy="3.3244304e-038"
         id="text61"
         style="text-anchor:end">0</text>
      <text
         x="17.940001"
         y="56.650002"
         dy="3.3244304e-038"
         id="text63"
         style="text-anchor:end">100</text>
      <text
         x="17.940001"
         y="31.82"
         dy="3.3244304e-038"
         id="text65"
         style="text-anchor:end">200</text>
      <text
         x="17.940001"
         y="7"
         dy="3.3244304e-038"
         id="text67"
         style="text-anchor:end">300</text>
    </g>
    <g
       font-size="7.5"
       id="img-383bab4a-16"
       transform="matrix(0,-1,1,0,-63.442692,61.207522)"
       style="font-size:7.5px;fill:#564a55;stroke:#000000;stroke-opacity:0;font-family:'\'PT Sans\',\'Helvetica Neue\',\'Helvetica\',sans-serif'">
      <text
         x="8.8100004"
         y="69.059998"
         dy="3.3244304e-038"
         id="text73"
         style="text-anchor:end">Amplitude</text>
    </g>
    <g
       font-size="7.5"
       id="img-383bab4a-2-0"
       transform="translate(140.21907,-92.75075)"
       style="font-size:7.5px;fill:#564a55;stroke:#000000;stroke-opacity:0;font-family:'\'PT Sans\',\'Helvetica Neue\',\'Helvetica\',sans-serif'">
      <g
         id="g3944"
         transform="translate(-12.417775,-2.2577777)">
        <rect
           y="79.491272"
           x="212.58875"
           height="7.0334873"
           width="7.0334873"
           id="rect3024"
           style="fill:#ff5ea0;fill-opacity:1;stroke:none"
           transform="translate(-140.21907,92.75075)" />
        <rect
           y="43.270252"
           x="212.58875"
           height="7.0334878"
           width="7.0334878"
           id="rect3024-1"
           style="fill:#00bfff;fill-opacity:1;stroke:none"
           transform="translate(-140.21907,92.75075)" />
        <rect
           y="61.380756"
           x="212.58875"
           height="7.0334878"
           width="7.0334878"
           id="rect3024-1-7"
           style="fill:#bde8ff;fill-opacity:1;stroke:none"
           transform="translate(-140.21907,92.75075)" />
        <rect
           y="97.601784"
           x="212.58875"
           height="7.0334878"
           width="7.0334878"
           id="rect3024-1-4"
           style="fill:#d4ca3a;fill-opacity:1;stroke:none"
           transform="translate(-140.21907,92.75075)" />
        <text
           style="font-size:7.5px;text-anchor:middle;stroke-width:0.30000001"
           id="text6-9"
           y="141.54358"
           x="104.98055">Filter estimate</text>
        <g
           transform="translate(-0.82411194,0)"
           id="g3900">
          <text
             x="110.07834"
             y="159.69043"
             id="text6-9-4"
             style="font-size:7.5px;text-anchor:middle;fill:#564a55;stroke:#000000;stroke-width:0.30000001;stroke-opacity:0;font-family:'\'PT Sans\',\'Helvetica Neue\',\'Helvetica\',sans-serif'">95% Confidence</text>
          <text
             x="94.655663"
             y="167.65297"
             id="text6-9-8"
             style="font-size:7.5px;text-anchor:middle;fill:#564a55;stroke:#000000;stroke-width:0.30000001;stroke-opacity:0;font-family:'\'PT Sans\',\'Helvetica Neue\',\'Helvetica\',sans-serif'">interval</text>
        </g>
        <text
           style="font-size:7.5px;text-anchor:middle;fill:#564a55;stroke:#000000;stroke-width:0.30000001;stroke-opacity:0;font-family:'\'PT Sans\',\'Helvetica Neue\',\'Helvetica\',sans-serif'"
           id="text6-9-82"
           y="178.46103"
           x="99.58992">True value</text>
        <text
           style="font-size:7.5px;text-anchor:middle;fill:#564a55;stroke:#000000;stroke-width:0.30000001;stroke-opacity:0;font-family:'\'PT Sans\',\'Helvetica Neue\',\'Helvetica\',sans-serif'"
           id="text6-9-45"
           y="195.79356"
           x="111.07796">Observation point</text>
      </g>
    </g>
  </g>
  <defs
     id="defs72">
    <clipPath
       id="img-0e590489-4">
      <path
         d="m 18.94,5 179.26,0 0,128.11 -179.26,0"
         id="path75"
         inkscape:connector-curvature="0" />
    </clipPath>
  </defs>
</svg>
