<?xml version="1.0" encoding="UTF-8" standalone="no"?>
<svg
   xmlns:dc="http://purl.org/dc/elements/1.1/"
   xmlns:cc="http://creativecommons.org/ns#"
   xmlns:rdf="http://www.w3.org/1999/02/22-rdf-syntax-ns#"
   xmlns:svg="http://www.w3.org/2000/svg"
   xmlns="http://www.w3.org/2000/svg"
   xmlns:sodipodi="http://sodipodi.sourceforge.net/DTD/sodipodi-0.dtd"
   xmlns:inkscape="http://www.inkscape.org/namespaces/inkscape"
   version="1.2"
   width="963.65875"
   height="506.91693"
   viewBox="0 0 271.96591 143.06322"
   font-size="3.88"
   id="svg2"
   inkscape:version="0.48.5 r10040"
   sodipodi:docname="intDecSim8.svg"
   style="font-size:3.88000011px;fill:#000000;stroke:none">
  <metadata
     id="metadata78">
    <rdf:RDF>
      <cc:Work
         rdf:about="">
        <dc:format>image/svg+xml</dc:format>
        <dc:type
           rdf:resource="http://purl.org/dc/dcmitype/StillImage" />
        <dc:title></dc:title>
      </cc:Work>
    </rdf:RDF>
  </metadata>
  <sodipodi:namedview
     pagecolor="#ffffff"
     bordercolor="#666666"
     borderopacity="1"
     objecttolerance="10"
     gridtolerance="10"
     guidetolerance="10"
     inkscape:pageopacity="0"
     inkscape:pageshadow="2"
     inkscape:window-width="1280"
     inkscape:window-height="961"
     id="namedview76"
     showgrid="false"
     inkscape:zoom="0.56175705"
     inkscape:cx="351.1537"
     inkscape:cy="222.91372"
     inkscape:window-x="1592"
     inkscape:window-y="-8"
     inkscape:window-maximized="1"
     inkscape:current-layer="img-72c8ad2b-1"
     fit-margin-top="0"
     fit-margin-left="0"
     fit-margin-right="0"
     fit-margin-bottom="0" />
  <g
     class="plotroot xscalable yscalable"
     id="img-72c8ad2b-1"
     transform="translate(-2.9196962,-3.40625)">
    <g
       font-size="7.5"
       id="img-e2d01bbd-2"
       transform="translate(0,3.9511109)"
       style="font-size:7.5px;fill:#564a55;stroke:#000000;stroke-opacity:0;font-family:'\'PT Sans\',\'Helvetica Neue\',\'Helvetica\',sans-serif'">
      <text
         x="108.57"
         y="140.78999"
         dy="3.3244304e-038"
         id="text6"
         style="text-anchor:middle">Image Number</text>
    </g>
    <g
       class="guide xlabels"
       font-size="5"
       id="img-e2d01bbd-3"
       transform="translate(0,3.3866665)"
       style="font-size:5px;fill:#6c606b;font-family:'\'PT Sans Caption\',\'Helvetica Neue\',\'Helvetica\',sans-serif'">
      <text
         x="20.940001"
         y="134.11"
         dy="3.3244304e-038"
         id="text9"
         style="text-anchor:middle">0</text>
      <text
         x="108.57"
         y="134.11"
         dy="3.3244304e-038"
         id="text11"
         style="text-anchor:middle">50</text>
      <text
         x="196.2"
         y="134.11"
         dy="3.3244304e-038"
         id="text13"
         style="text-anchor:middle">100</text>
    </g>
    <g
       clip-path="url(#img-72c8ad2b-4)"
       id="g15">
      <g
         id="img-72c8ad2b-5">
        <g
           pointer-events="visible"
           class="guide background"
           id="img-72c8ad2b-6"
           style="fill:#000000;fill-opacity:0;stroke:#000000;stroke-opacity:0">
          <rect
             x="18.940001"
             y="5"
             width="179.25999"
             height="128.11"
             id="rect19" />
        </g>
        <g
           class="guide ygridlines xfixed"
           id="img-72c8ad2b-7"
           style="stroke:#d0d0e0;stroke-width:0.5;stroke-dasharray:0.5, 0.5">
          <path
             d="m 18.94,131.12 179.26,0"
             id="path22"
             inkscape:connector-curvature="0"
             style="fill:none" />
          <path
             d="m 18.94,100.09 179.26,0"
             id="path24"
             inkscape:connector-curvature="0"
             style="fill:none" />
          <path
             d="m 18.94,69.06 179.26,0"
             id="path26"
             inkscape:connector-curvature="0"
             style="fill:none" />
          <path
             d="m 18.94,38.03 179.26,0"
             id="path28"
             inkscape:connector-curvature="0"
             style="fill:none" />
          <path
             d="M 18.94,7 198.2,7"
             id="path30"
             inkscape:connector-curvature="0"
             style="fill:none" />
        </g>
        <g
           class="guide xgridlines yfixed"
           id="img-72c8ad2b-8"
           style="stroke:#d0d0e0;stroke-width:0.5;stroke-dasharray:0.5, 0.5">
          <path
             d="m 20.94,5 0,128.11"
             id="path33"
             inkscape:connector-curvature="0"
             style="fill:none" />
          <path
             d="m 108.57,5 0,128.11"
             id="path35"
             inkscape:connector-curvature="0"
             style="fill:none" />
          <path
             d="m 196.2,5 0,128.11"
             id="path37"
             inkscape:connector-curvature="0"
             style="fill:none" />
        </g>
        <g
           class="plotpanel"
           id="img-72c8ad2b-9">
          <g
             class="geometry"
             id="img-72c8ad2b-14"
             style="fill:#bde8ff;stroke:#000000;stroke-width:1;stroke-opacity:0">
            <path
               d="m 196.2,107.04 -1.75,-0.02 -1.76,-0.03 -1.75,-0.03 -1.75,-0.03 -1.75,-0.03 -1.76,-0.03 -1.75,-0.03 -1.75,-0.03 -1.75,-0.03 -1.76,-0.04 -1.75,-0.03 -1.75,-0.04 -1.75,-0.03 -1.76,-0.04 -1.75,-0.03 -1.75,-0.04 -1.75,-0.04 -1.76,-0.04 -1.75,-0.04 -1.75,-0.04 -1.75,-0.04 -1.76,-0.04 -1.75,-0.05 -1.75,-0.04 -1.76,-0.05 -1.75,-0.05 -1.75,-0.04 -1.75,-0.05 -1.76,-0.05 -1.75,-0.05 -1.75,-0.05 -1.75,-0.06 -1.76,-0.05 -1.75,-0.06 -1.75,-0.06 -1.75,-0.05 -1.76,-0.06 -1.75,-0.06 -1.75,-0.07 -1.75,-0.06 -1.76,-0.06 -1.75,-0.07 -1.75,-0.07 -1.75,-0.07 -1.76,-0.07 -1.75,-0.07 -1.75,-0.08 -1.76,-0.07 -1.75,-0.08 -1.75,-0.08 -1.75,-0.08 -1.76,-0.08 -1.75,-0.09 -1.75,-0.08 -1.75,-0.09 -1.76,-0.09 -1.75,-0.1 -1.75,-0.09 -1.75,-0.1 -1.76,-0.12 -1.75,-0.12 -1.75,-0.13 -1.75,-0.13 -1.76,-0.13 -1.75,-0.13 -1.75,-0.14 -1.75,-0.14 -1.76,-0.14 -1.75,-0.14 -1.75,-0.15 -1.76,-0.15 -1.75,-0.15 -1.75,-0.16 -1.75,-0.16 -1.76,-0.16 -1.75,-0.17 -1.75,-0.17 -1.75,-0.18 -1.76,-0.18 -1.75,-0.18 -1.75,-0.19 -1.75,-0.19 -1.76,-0.19 -1.75,-0.2 -1.75,-0.21 -1.75,-0.21 -1.76,-0.21 -1.75,-0.22 -1.75,-0.22 -1.75,-0.23 -1.76,-0.24 -1.75,-0.24 -1.75,-0.25 -1.76,-0.26 -1.75,-0.26 -1.75,-0.27 -1.75,-0.27 -1.76,-0.28 -1.75,-0.29 0,-56.31 1.75,-0.24 1.76,-0.23 1.75,-0.22 1.75,-0.22 1.75,-0.2 1.76,-0.21 1.75,-0.19 1.75,-0.19 1.76,-0.19 1.75,-0.18 1.75,-0.17 1.75,-0.17 1.76,-0.16 1.75,-0.16 1.75,-0.15 1.75,-0.15 1.76,-0.14 1.75,-0.14 1.75,-0.14 1.75,-0.13 1.76,-0.13 1.75,-0.12 1.75,-0.12 1.75,-0.12 1.76,-0.11 1.75,-0.11 1.75,-0.11 1.75,-0.1 1.76,-0.1 1.75,-0.1 1.75,-0.09 1.76,-0.1 1.75,-0.08 1.75,-0.09 1.75,-0.08 1.76,-0.08 1.75,-0.08 1.75,-0.08 1.75,-0.07 1.76,-0.07 1.75,-0.1 1.75,-0.1 1.75,-0.09 1.76,-0.1 1.75,-0.09 1.75,-0.09 1.75,-0.08 1.76,-0.09 1.75,-0.08 1.75,-0.08 1.75,-0.08 1.76,-0.08 1.75,-0.08 1.75,-0.07 1.76,-0.08 1.75,-0.07 1.75,-0.07 1.75,-0.07 1.76,-0.06 1.75,-0.07 1.75,-0.06 1.75,-0.06 1.76,-0.07 1.75,-0.06 1.75,-0.05 1.75,-0.06 1.76,-0.06 1.75,-0.05 1.75,-0.06 1.75,-0.05 1.76,-0.05 1.75,-0.05 1.75,-0.05 1.75,-0.05 1.76,-0.05 1.75,-0.05 1.75,-0.04 1.76,-0.05 1.75,-0.04 1.75,-0.04 1.75,-0.04 1.76,-0.05 1.75,-0.04 1.75,-0.04 1.75,-0.03 1.76,-0.04 1.75,-0.04 1.75,-0.04 1.75,-0.03 1.76,-0.04 1.75,-0.03 1.75,-0.03 1.75,-0.04 1.76,-0.03 1.75,-0.03 1.75,-0.03 1.75,-0.03 1.76,-0.03 1.75,-0.03 z"
               id="path55"
               inkscape:connector-curvature="0" />
          </g>
          <g
             class="yfixed"
             id="img-72c8ad2b-11"
             style="stroke:#d4ca3a;stroke-width:0.5;stroke-dasharray:none">
            <path
               d="m 194.45,5 0,128.11"
               id="path44"
               inkscape:connector-curvature="0"
               style="fill:none" />
            <path
               d="m 92.8,5 0,128.11"
               id="path46"
               inkscape:connector-curvature="0"
               style="fill:none" />
          </g>
          <g
             class="geometry"
             id="img-72c8ad2b-10"
             style="fill:#000000;fill-opacity:0;stroke:#00bfff;stroke-width:1;stroke-dasharray:none">
            <path
               d="m 22.69,68.09 1.75,0.03 1.76,0.03 1.75,0.02 1.75,0.03 1.75,0.02 1.76,0.03 1.75,0.03 1.75,0.02 1.76,0.03 1.75,0.03 1.75,0.02 1.75,0.03 1.76,0.02 1.75,0.03 1.75,0.02 1.75,0.03 1.76,0.03 1.75,0.02 1.75,0.03 1.75,0.02 1.76,0.03 1.75,0.02 1.75,0.03 1.75,0.02 1.76,0.03 1.75,0.02 1.75,0.03 1.75,0.02 1.76,0.03 1.75,0.02 1.75,0.03 1.76,0.02 1.75,0.03 1.75,0.02 1.75,0.03 1.76,0.02 1.75,0.03 1.75,0.02 1.75,0.03 1.76,0.02 1.75,0 1.75,0 1.75,0 1.76,0 1.75,0 1.75,0 1.75,0 1.76,0 1.75,-0.01 1.75,0 1.75,0 1.76,0 1.75,0 1.75,0 1.76,0 1.75,0 1.75,0 1.75,0 1.76,-0.01 1.75,0 1.75,0 1.75,0 1.76,0 1.75,0 1.75,0 1.75,0 1.76,0 1.75,0 1.75,-0.01 1.75,0 1.76,0 1.75,0 1.75,0 1.75,0 1.76,0 1.75,0 1.75,0 1.76,0 1.75,0 1.75,-0.01 1.75,0 1.76,0 1.75,0 1.75,0 1.75,0 1.76,0 1.75,0 1.75,0 1.75,0 1.76,-0.01 1.75,0 1.75,0 1.75,0 1.76,0 1.75,0 1.75,0 1.75,0 1.76,0 1.75,0"
               id="path41"
               inkscape:connector-curvature="0"
               style="fill:none" />
          </g>
          <g
             class="geometry"
             id="img-72c8ad2b-12"
             style="fill:#000000;fill-opacity:0;stroke:#ff5ea0;stroke-width:1;stroke-dasharray:none">
            <path
               d="m 22.69,62.85 1.75,0.06 1.76,0.07 1.75,0.06 1.75,0.06 1.75,0.06 1.76,0.05 1.75,0.06 1.75,0.06 1.76,0.06 1.75,0.06 1.75,0.05 1.75,0.06 1.76,0.05 1.75,0.06 1.75,0.05 1.75,0.05 1.76,0.06 1.75,0.05 1.75,0.05 1.75,0.05 1.76,0.05 1.75,0.05 1.75,0.05 1.75,0.05 1.76,0.05 1.75,0.05 1.75,0.05 1.75,0.04 1.76,0.05 1.75,0.05 1.75,0.04 1.76,0.05 1.75,0.04 1.75,0.05 1.75,0.04 1.76,0.05 1.75,0.04 1.75,0.04 1.75,0.04 1.76,0.05 1.75,0.04 1.75,0.04 1.75,0.04 1.76,0.04 1.75,0.04 1.75,0.04 1.75,0.04 1.76,0.04 1.75,0.04 1.75,0.03 1.75,0.04 1.76,0.04 1.75,0.03 1.75,0.04 1.76,0.04 1.75,0.03 1.75,0.04 1.75,0.03 1.76,0.04 1.75,0.03 1.75,0.04 1.75,0.03 1.76,0.03 1.75,0.04 1.75,0.03 1.75,0.03 1.76,0.03 1.75,0.03 1.75,0.04 1.75,0.03 1.76,0.03 1.75,0.03 1.75,0.03 1.75,0.03 1.76,0.03 1.75,0.03 1.75,0.03 1.76,0.02 1.75,0.03 1.75,0.03 1.75,0.03 1.76,0.03 1.75,0.02 1.75,0.03 1.75,0.03 1.76,0.02 1.75,0.03 1.75,0.02 1.75,0.03 1.76,0.03 1.75,0.02 1.75,0.03 1.75,0.02 1.76,0.02 1.75,0.03 1.75,0.02 1.75,0.03 1.76,0.02 1.75,0.02"
               id="path49"
               inkscape:connector-curvature="0"
               style="fill:none" />
          </g>
          <g
             class="geometry"
             id="img-72c8ad2b-13"
             style="fill:#000000;fill-opacity:0;stroke:#000000;stroke-width:0.30000001;stroke-dasharray:none">
            <path
               d="m 22.69,69.06 1.75,0 1.76,0 1.75,0 1.75,0 1.75,0 1.76,0 1.75,0 1.75,0 1.76,0 1.75,0 1.75,0 1.75,0 1.76,0 1.75,0 1.75,0 1.75,0 1.76,0 1.75,0 1.75,0 1.75,0 1.76,0 1.75,0 1.75,0 1.75,0 1.76,0 1.75,0 1.75,0 1.75,0 1.76,0 1.75,0 1.75,0 1.76,0 1.75,0 1.75,0 1.75,0 1.76,0 1.75,0 1.75,0 1.75,0 1.76,0 1.75,0 1.75,0 1.75,0 1.76,0 1.75,0 1.75,0 1.75,0 1.76,0 1.75,0 1.75,0 1.75,0 1.76,0 1.75,0 1.75,0 1.76,0 1.75,0 1.75,0 1.75,0 1.76,0 1.75,0 1.75,0 1.75,0 1.76,0 1.75,0 1.75,0 1.75,0 1.76,0 1.75,0 1.75,0 1.75,0 1.76,0 1.75,0 1.75,0 1.75,0 1.76,0 1.75,0 1.75,0 1.76,0 1.75,0 1.75,0 1.75,0 1.76,0 1.75,0 1.75,0 1.75,0 1.76,0 1.75,0 1.75,0 1.75,0 1.76,0 1.75,0 1.75,0 1.75,0 1.76,0 1.75,0 1.75,0 1.75,0 1.76,0 1.75,0"
               id="path52"
               inkscape:connector-curvature="0"
               style="fill:none" />
          </g>
        </g>
      </g>
    </g>
    <g
       class="guide ylabels"
       font-size="5.0"
       id="img-72c8ad2b-15"
       style="font-size:5px;fill:#6c606b;font-family:'\'PT Sans Caption\',\'Helvetica Neue\',\'Helvetica\',sans-serif'">
      <text
         x="17.940001"
         y="131.12"
         dy="3.3244304e-038"
         id="text58"
         style="text-anchor:end">-100</text>
      <text
         x="17.940001"
         y="100.09"
         dy="3.3244304e-038"
         id="text60"
         style="text-anchor:end">-50</text>
      <text
         x="17.940001"
         y="69.059998"
         dy="3.3244304e-038"
         id="text62"
         style="text-anchor:end">0</text>
      <text
         x="17.940001"
         y="38.029999"
         dy="3.3244304e-038"
         id="text64"
         style="text-anchor:end">50</text>
      <text
         x="17.940001"
         y="7"
         dy="3.3244304e-038"
         id="text66"
         style="text-anchor:end">100</text>
    </g>
    <g
       font-size="7.5"
       id="img-e2d01bbd-15"
       transform="matrix(0,-1,1,0,-60.621649,60.669426)"
       style="font-size:7.5px;fill:#564a55;stroke:#000000;stroke-opacity:0;font-family:'\'PT Sans\',\'Helvetica Neue\',\'Helvetica\',sans-serif'">
      <text
         x="8.8100004"
         y="69.059998"
         dy="3.3244304e-038"
         id="text45"
         style="text-anchor:end">Amplitude</text>
    </g>
    <g
       style="font-size:7.5px;fill:#564a55;stroke:#000000;stroke-opacity:0;font-family:'\'PT Sans\',\'Helvetica Neue\',\'Helvetica\',sans-serif'"
       id="g3944"
       transform="translate(128.69548,-99.231019)">
      <rect
         y="79.491272"
         x="212.58875"
         height="7.0334873"
         width="7.0334873"
         id="rect3024"
         style="fill:#ff5ea0;fill-opacity:1;stroke:none"
         transform="translate(-140.21907,92.75075)" />
      <rect
         y="43.270252"
         x="212.58875"
         height="7.0334878"
         width="7.0334878"
         id="rect3024-1"
         style="fill:#00bfff;fill-opacity:1;stroke:none"
         transform="translate(-140.21907,92.75075)" />
      <rect
         y="61.380756"
         x="212.58875"
         height="7.0334878"
         width="7.0334878"
         id="rect3024-1-7"
         style="fill:#bde8ff;fill-opacity:1;stroke:none"
         transform="translate(-140.21907,92.75075)" />
      <rect
         y="97.601784"
         x="212.58875"
         height="7.0334878"
         width="7.0334878"
         id="rect3024-1-4"
         style="fill:#d4ca3a;fill-opacity:1;stroke:none"
         transform="translate(-140.21907,92.75075)" />
      <text
         style="font-size:7.5px;text-anchor:middle;stroke-width:0.30000001"
         id="text6-9"
         y="141.54358"
         x="114.02596">Smoothed estimate</text>
      <g
         transform="translate(-0.82411194,0)"
         id="g3900">
        <text
           x="110.07834"
           y="159.69043"
           id="text6-9-4"
           style="font-size:7.5px;text-anchor:middle;fill:#564a55;stroke:#000000;stroke-width:0.30000001;stroke-opacity:0;font-family:'\'PT Sans\',\'Helvetica Neue\',\'Helvetica\',sans-serif'">95% Confidence</text>
        <text
           x="94.655663"
           y="167.65297"
           id="text6-9-8"
           style="font-size:7.5px;text-anchor:middle;fill:#564a55;stroke:#000000;stroke-width:0.30000001;stroke-opacity:0;font-family:'\'PT Sans\',\'Helvetica Neue\',\'Helvetica\',sans-serif'">interval</text>
      </g>
      <text
         style="font-size:7.5px;text-anchor:middle;fill:#564a55;stroke:#000000;stroke-width:0.30000001;stroke-opacity:0;font-family:'\'PT Sans\',\'Helvetica Neue\',\'Helvetica\',sans-serif'"
         id="text6-9-82"
         y="178.46103"
         x="99.58992">True value</text>
      <text
         style="font-size:7.5px;text-anchor:middle;fill:#564a55;stroke:#000000;stroke-width:0.30000001;stroke-opacity:0;font-family:'\'PT Sans\',\'Helvetica Neue\',\'Helvetica\',sans-serif'"
         id="text6-9-45"
         y="195.79356"
         x="111.07796">Observation point</text>
    </g>
  </g>
  <defs
     id="defs71">
    <clipPath
       id="img-72c8ad2b-4">
      <path
         d="m 18.94,5 179.26,0 0,128.11 -179.26,0"
         id="path74"
         inkscape:connector-curvature="0" />
    </clipPath>
  </defs>
</svg>
