<?xml version="1.0" encoding="UTF-8" standalone="no"?>
<!-- Created with Inkscape (http://www.inkscape.org/) -->

<svg
   xmlns:dc="http://purl.org/dc/elements/1.1/"
   xmlns:cc="http://creativecommons.org/ns#"
   xmlns:rdf="http://www.w3.org/1999/02/22-rdf-syntax-ns#"
   xmlns:svg="http://www.w3.org/2000/svg"
   xmlns="http://www.w3.org/2000/svg"
   xmlns:sodipodi="http://sodipodi.sourceforge.net/DTD/sodipodi-0.dtd"
   xmlns:inkscape="http://www.inkscape.org/namespaces/inkscape"
   id="svg2"
   version="1.1"
   inkscape:version="0.48.5 r10040"
   width="566.92913"
   height="318.89764"
   xml:space="preserve"
   sodipodi:docname="SmoothedPlot_2,10,22_res3.pdf"><metadata
     id="metadata8"><rdf:RDF><cc:Work
         rdf:about=""><dc:format>image/svg+xml</dc:format><dc:type
           rdf:resource="http://purl.org/dc/dcmitype/StillImage" /><dc:title></dc:title></cc:Work></rdf:RDF></metadata><defs
     id="defs6"><clipPath
       clipPathUnits="userSpaceOnUse"
       id="clipPath40"><path
         d="m 55.648,61.118 293.656,0 0,-2 -293.656,0 0,2 z"
         id="path42" /></clipPath><clipPath
       clipPathUnits="userSpaceOnUse"
       id="clipPath50"><path
         d="m 55.648,99.118 293.656,0 0,-1 -293.656,0 0,1 z"
         id="path52" /></clipPath><clipPath
       clipPathUnits="userSpaceOnUse"
       id="clipPath60"><path
         d="m 55.648,138.118 293.656,0 0,-2 -293.656,0 0,2 z"
         id="path62" /></clipPath><clipPath
       clipPathUnits="userSpaceOnUse"
       id="clipPath70"><path
         d="m 55.648,176.118 293.656,0 0,-2 -293.656,0 0,2 z"
         id="path72" /></clipPath><clipPath
       clipPathUnits="userSpaceOnUse"
       id="clipPath80"><path
         d="m 55.648,214.118 293.656,0 0,-1 -293.656,0 0,1 z"
         id="path82" /></clipPath><clipPath
       clipPathUnits="userSpaceOnUse"
       id="clipPath90"><path
         d="m 61,219.368 1,0 0,-164.703 -1,0 0,164.703 z"
         id="path92" /></clipPath><clipPath
       clipPathUnits="userSpaceOnUse"
       id="clipPath100"><path
         d="m 117,219.368 2,0 0,-164.703 -2,0 0,164.703 z"
         id="path102" /></clipPath><clipPath
       clipPathUnits="userSpaceOnUse"
       id="clipPath110"><path
         d="m 173,219.368 2,0 0,-164.703 -2,0 0,164.703 z"
         id="path112" /></clipPath><clipPath
       clipPathUnits="userSpaceOnUse"
       id="clipPath120"><path
         d="m 230,219.368 1,0 0,-164.703 -1,0 0,164.703 z"
         id="path122" /></clipPath><clipPath
       clipPathUnits="userSpaceOnUse"
       id="clipPath130"><path
         d="m 286,219.368 2,0 0,-164.703 -2,0 0,164.703 z"
         id="path132" /></clipPath><clipPath
       clipPathUnits="userSpaceOnUse"
       id="clipPath140"><path
         d="m 343,219.368 1,0 0,-164.703 -1,0 0,164.703 z"
         id="path142" /></clipPath><clipPath
       clipPathUnits="userSpaceOnUse"
       id="clipPath154"><path
         d="m 107,219.368 3,0 0,-164.703 -3,0 0,164.703 z"
         id="path156" /></clipPath><clipPath
       clipPathUnits="userSpaceOnUse"
       id="clipPath164"><path
         d="m 135,219.368 2,0 0,-164.703 -2,0 0,164.703 z"
         id="path166" /></clipPath><clipPath
       clipPathUnits="userSpaceOnUse"
       id="clipPath174"><path
         d="m 153,219.368 2,0 0,-164.703 -2,0 0,164.703 z"
         id="path176" /></clipPath><clipPath
       clipPathUnits="userSpaceOnUse"
       id="clipPath184"><path
         d="m 154,219.368 2,0 0,-164.703 -2,0 0,164.703 z"
         id="path186" /></clipPath><clipPath
       clipPathUnits="userSpaceOnUse"
       id="clipPath194"><path
         d="m 229,219.368 3,0 0,-164.703 -3,0 0,164.703 z"
         id="path196" /></clipPath><clipPath
       clipPathUnits="userSpaceOnUse"
       id="clipPath204"><path
         d="m 251,219.368 3,0 0,-164.703 -3,0 0,164.703 z"
         id="path206" /></clipPath><clipPath
       clipPathUnits="userSpaceOnUse"
       id="clipPath214"><path
         d="m 253,219.368 3,0 0,-164.703 -3,0 0,164.703 z"
         id="path216" /></clipPath><clipPath
       clipPathUnits="userSpaceOnUse"
       id="clipPath224"><path
         d="m 268,219.368 3,0 0,-164.703 -3,0 0,164.703 z"
         id="path226" /></clipPath></defs><sodipodi:namedview
     pagecolor="#ffffff"
     bordercolor="#666666"
     borderopacity="1"
     objecttolerance="10"
     gridtolerance="10"
     guidetolerance="10"
     inkscape:pageopacity="0"
     inkscape:pageshadow="2"
     inkscape:window-width="1600"
     inkscape:window-height="837"
     id="namedview4"
     showgrid="false"
     inkscape:zoom="2.0006015"
     inkscape:cx="261.2928"
     inkscape:cy="174.99957"
     inkscape:window-x="-8"
     inkscape:window-y="-8"
     inkscape:window-maximized="1"
     inkscape:current-layer="g222" /><g
     id="g10"
     inkscape:groupmode="layer"
     inkscape:label="SmoothedPlot_2,10,22_res3"
     transform="matrix(1.25,0,0,-1.25,0,318.89764)"><g
       id="g12"><text
   transform="matrix(1,0,0,-1,165.97656,21.914985)"
   id="text14"><tspan
     style="fill:#564a55;fill-opacity:1;fill-rule:nonzero;stroke:none;font-family:Tahoma;font-variant:normal;font-weight:normal;font-size:11;writing-mode:lr;-inkscape-font-specification:Tahoma"
     x="0 4.103 13.332 19.096 25.168 30.954 34.386 41.723 47.85 57.079 63.151 68.937"
     y="0"
     sodipodi:role="line"
     id="tspan16">Image Number</tspan></text>

<text
   transform="matrix(1,0,0,-1,58.816406,43.832954)"
   id="text18"><tspan
     style="fill:#6c606b;fill-opacity:1;fill-rule:nonzero;stroke:none;font-family:Tahoma;font-variant:normal;font-weight:normal;font-size:8;writing-mode:lr;-inkscape-font-specification:Tahoma"
     x="0 51.96 56.32 60.68 108.429688 112.789688 117.149688 164.869688 169.229688 173.589688 221.355472 225.715472 230.075472 277.795472 282.155472 286.515472"
     y="0"
     sodipodi:role="line"
     id="tspan20">0100200300400500</tspan></text>



<text
   style="font-size:12px"
   y="-134.26601"
   x="359.87195"
   id="text22"
   transform="scale(1,-1)"><tspan
     style="font-size:8px;font-variant:normal;font-weight:normal;writing-mode:lr-tb;fill:#4c404b;fill-opacity:1;fill-rule:nonzero;stroke:none;font-family:Tahoma;-inkscape-font-specification:Tahoma"
     x="359.87195 364.32794 371.03995 375.37595 379.71194 382.38394 386.83994 391.04794 395.46396 397.95996 402.16794 405.73596 408.40796 410.23196 416.94394 421.13596 423.80795"
     y="-134.26601"
     sodipodi:role="line"
     id="tspan24">Smoothed estimate</tspan><tspan
     style="font-size:8px;font-variant:normal;font-weight:normal;writing-mode:lr-tb;fill:#4c404b;fill-opacity:1;fill-rule:nonzero;stroke:none;font-family:Tahoma;-inkscape-font-specification:Tahoma"
     x="359.87195 365.52795 369.94394 373.51193 377.71994 380.59995 384.58395 388.77594 391.44794 393.27194 397.60794 402.06393 404.55994 410.21594 413.90396 417.59195 422.04794 424.92795 429.13596 433.59195 437.27994"
     y="-123.98476"
     sodipodi:role="line"
     id="tspan26">Observation Occurence</tspan><tspan
     style="font-size:8px;font-variant:normal;font-weight:normal;writing-mode:lr-tb;fill:#4c404b;fill-opacity:1;fill-rule:nonzero;stroke:none;font-family:Tahoma;-inkscape-font-specification:Tahoma"
     x="359.87195 359.87195 359.87195 359.87195 359.87195 359.87195 359.87195 359.87195 365.52795 369.94394 373.51193 377.71994 380.59995 384.58395 388.77594 391.44794 393.27194 397.60794 402.06393 404.55994 410.21594 413.90396 417.59195 422.04794 424.92795 429.13596 433.59195 437.27994"
     y="-123.98476 -123.98476 -123.98476 -123.98476 -123.98476 -123.98476 -123.98476 -123.98476"
     sodipodi:role="line"
     id="tspan3869" /></text>
<path
   d="m 352.08145,139.83645 5.141,0 0,-5.141 -5.141,0 0,5.141 z"
   style="fill:#00bfff;fill-opacity:1;fill-rule:nonzero;stroke:none"
   id="path28"
   inkscape:connector-curvature="0" /><path
   d="m 352.08145,129.81061 5.141,0 0,-5.141 -5.141,0 0,5.141 z"
   style="fill:#d4ca3a;fill-opacity:1;fill-rule:nonzero;stroke:none"
   id="path30"
   inkscape:connector-curvature="0" /><text
   style="font-size:12px"
   y="-150.09805"
   x="351.89539"
   id="text32"
   transform="scale(1,-1)"><tspan
     style="font-size:11px;font-variant:normal;font-weight:normal;writing-mode:lr-tb;fill:#362a35;fill-opacity:1;fill-rule:nonzero;stroke:none;font-family:Tahoma;-inkscape-font-specification:Tahoma"
     x="351.89539 358.49539 364.4574 366.96539 372.9274 379.05438 383.01437 386.44638 392.90338 398.68939"
     y="-150.09805"
     sodipodi:role="line"
     id="tspan34">Colour Key</tspan></text>
<path
   inkscape:connector-curvature="0"
   d="m 352.08145,119.78477 5.141,0 0,-5.141 -5.141,0 0,5.141 z"
   style="fill:#00e5b2;fill-opacity:1;fill-rule:nonzero;stroke:none"
   id="path30-1" /><text
   style="font-size:12px"
   y="-114.3836"
   x="359.87195"
   id="text22-7"
   transform="scale(1,-1)"><tspan
     style="font-size:8px;font-variant:normal;font-weight:normal;writing-mode:lr-tb;fill:#4c404b;fill-opacity:1;fill-rule:nonzero;stroke:none;font-family:Tahoma;-inkscape-font-specification:Tahoma"
     sodipodi:role="line"
     id="tspan26-0"
     x="359.87195"
     y="-114.3836">CTruncate estimate</tspan><tspan
     style="font-size:8px;font-variant:normal;font-weight:normal;writing-mode:lr-tb;fill:#4c404b;fill-opacity:1;fill-rule:nonzero;stroke:none;font-family:Tahoma;-inkscape-font-specification:Tahoma"
     x="359.87195 359.87195 359.87195 359.87195 359.87195 359.87195 359.87195 359.87195 365.52795 369.94397 373.51196 377.71997 380.59995 384.58395 388.77597 391.44797 393.27197 397.60797 402.06396 404.55997 410.21597 413.90396 417.59195 422.04797 424.92795 429.13596 433.59195 437.27997"
     y="-104.10235 -104.10235 -104.10235 -104.10235 -104.10235 -104.10235 -104.10235 -104.10235"
     sodipodi:role="line"
     id="tspan3869-9" /></text>
</g><g
       id="g36"><g
         id="g38"
         clip-path="url(#clipPath40)"><path
           d="m 55.648,60.337 293.657,0"
           style="fill:none;stroke:#d0d0e0;stroke-opacity:1;stroke-width:0.566929;stroke-linecap:butt;stroke-linejoin:miter;stroke-miterlimit:10;stroke-dasharray:1.417323,1.417323;stroke-dashoffset:0"
           id="path44" /></g></g><g
       id="g46"><g
         id="g48"
         clip-path="url(#clipPath50)"><path
           d="m 55.648,98.677 293.657,0"
           style="fill:none;stroke:#d0d0e0;stroke-opacity:1;stroke-width:0.566929;stroke-linecap:butt;stroke-linejoin:miter;stroke-miterlimit:10;stroke-dasharray:1.417323,1.417323;stroke-dashoffset:0"
           id="path54" /></g></g><g
       id="g56"><g
         id="g58"
         clip-path="url(#clipPath60)"><path
           d="m 55.648,137.017 293.657,0"
           style="fill:none;stroke:#d0d0e0;stroke-opacity:1;stroke-width:0.566929;stroke-linecap:butt;stroke-linejoin:miter;stroke-miterlimit:10;stroke-dasharray:1.417323,1.417323;stroke-dashoffset:0"
           id="path64" /></g></g><g
       id="g66"><g
         id="g68"
         clip-path="url(#clipPath70)"><path
           d="m 55.648,175.356 293.657,0"
           style="fill:none;stroke:#d0d0e0;stroke-opacity:1;stroke-width:0.566929;stroke-linecap:butt;stroke-linejoin:miter;stroke-miterlimit:10;stroke-dasharray:1.417323,1.417323;stroke-dashoffset:0"
           id="path74" /></g></g><g
       id="g76"><g
         id="g78"
         clip-path="url(#clipPath80)"><path
           d="m 55.648,213.7 293.657,0"
           style="fill:none;stroke:#d0d0e0;stroke-opacity:1;stroke-width:0.566929;stroke-linecap:butt;stroke-linejoin:miter;stroke-miterlimit:10;stroke-dasharray:1.417323,1.417323;stroke-dashoffset:0"
           id="path84" /></g></g><g
       id="g86"><g
         id="g88"
         clip-path="url(#clipPath90)"><path
           d="m 61.316,219.368 0,-164.703"
           style="fill:none;stroke:#d0d0e0;stroke-opacity:1;stroke-width:0.566929;stroke-linecap:butt;stroke-linejoin:miter;stroke-miterlimit:10;stroke-dasharray:1.417323,1.417323;stroke-dashoffset:0"
           id="path94" /></g></g><g
       id="g96"><g
         id="g98"
         clip-path="url(#clipPath100)"><path
           d="m 117.781,219.368 0,-164.703"
           style="fill:none;stroke:#d0d0e0;stroke-opacity:1;stroke-width:0.566929;stroke-linecap:butt;stroke-linejoin:miter;stroke-miterlimit:10;stroke-dasharray:1.417323,1.417323;stroke-dashoffset:0"
           id="path104" /></g></g><g
       id="g106"><g
         id="g108"
         clip-path="url(#clipPath110)"><path
           d="m 174.246,219.368 0,-164.703"
           style="fill:none;stroke:#d0d0e0;stroke-opacity:1;stroke-width:0.566929;stroke-linecap:butt;stroke-linejoin:miter;stroke-miterlimit:10;stroke-dasharray:1.417323,1.417323;stroke-dashoffset:0"
           id="path114" /></g></g><g
       id="g116"><g
         id="g118"
         clip-path="url(#clipPath120)"><path
           d="m 230.707,219.368 0,-164.703"
           style="fill:none;stroke:#d0d0e0;stroke-opacity:1;stroke-width:0.566929;stroke-linecap:butt;stroke-linejoin:miter;stroke-miterlimit:10;stroke-dasharray:1.417323,1.417323;stroke-dashoffset:0"
           id="path124" /></g></g><g
       id="g126"><g
         id="g128"
         clip-path="url(#clipPath130)"><path
           d="m 287.172,219.368 0,-164.703"
           style="fill:none;stroke:#d0d0e0;stroke-opacity:1;stroke-width:0.566929;stroke-linecap:butt;stroke-linejoin:miter;stroke-miterlimit:10;stroke-dasharray:1.417323,1.417323;stroke-dashoffset:0"
           id="path134" /></g></g><g
       id="g136"><g
         id="g138"
         clip-path="url(#clipPath140)"><path
           d="m 343.633,219.368 0,-164.703"
           style="fill:none;stroke:#d0d0e0;stroke-opacity:1;stroke-width:0.566929;stroke-linecap:butt;stroke-linejoin:miter;stroke-miterlimit:10;stroke-dasharray:1.417323,1.417323;stroke-dashoffset:0"
           id="path144" /></g></g><g
       id="g150"><g
         id="g152"
         clip-path="url(#clipPath154)"><path
           d="m 108.746,219.368 0,-164.703"
           style="fill:none;stroke:#d4ca3a;stroke-opacity:1;stroke-width:1;stroke-linecap:butt;stroke-linejoin:miter;stroke-miterlimit:10;stroke-dasharray:none"
           id="path158" /></g></g><g
       id="g160"><g
         id="g162"
         clip-path="url(#clipPath164)"
         style="stroke-width:1;stroke-miterlimit:10;stroke-dasharray:none"><path
           d="m 135.852,219.368 0,-164.703"
           style="fill:none;stroke:#d4ca3a;stroke-opacity:1;stroke-width:1;stroke-linecap:butt;stroke-linejoin:miter;stroke-miterlimit:10;stroke-dasharray:none"
           id="path168" /></g></g><g
       id="g170"><g
         id="g172"
         clip-path="url(#clipPath174)"><path
           d="m 153.918,219.368 0,-164.703"
           style="fill:none;stroke:#d4ca3a;stroke-opacity:1;stroke-width:1;stroke-linecap:butt;stroke-linejoin:miter;stroke-miterlimit:10;stroke-dasharray:none"
           id="path178" /></g></g><g
       id="g180"><g
         id="g182"
         clip-path="url(#clipPath184)"><path
           d="m 155.047,219.368 0,-164.703"
           style="fill:none;stroke:#d4ca3a;stroke-opacity:1;stroke-width:1;stroke-linecap:butt;stroke-linejoin:miter;stroke-miterlimit:10;stroke-dasharray:none"
           id="path188" /></g></g><g
       id="g190"><g
         id="g192"
         clip-path="url(#clipPath194)"><path
           d="m 230.707,219.368 0,-164.703"
           style="fill:none;stroke:#d4ca3a;stroke-opacity:1;stroke-width:1;stroke-linecap:butt;stroke-linejoin:miter;stroke-miterlimit:10;stroke-dasharray:none"
           id="path198" /></g></g><g
       id="g200"><g
         id="g202"
         clip-path="url(#clipPath204)"><path
           d="m 252.73,219.368 0,-164.703"
           style="fill:none;stroke:#d4ca3a;stroke-opacity:1;stroke-width:1;stroke-linecap:butt;stroke-linejoin:miter;stroke-miterlimit:10;stroke-dasharray:none"
           id="path208" /></g></g><g
       id="g210"><g
         id="g212"
         clip-path="url(#clipPath214)"><path
           d="m 254.422,219.368 0,-164.703"
           style="fill:none;stroke:#d4ca3a;stroke-opacity:1;stroke-width:1;stroke-linecap:butt;stroke-linejoin:miter;stroke-miterlimit:10;stroke-dasharray:none"
           id="path218" /></g></g><g
       id="g220"><g
         id="g222"
         clip-path="url(#clipPath224)"><path
           d="m 269.668,219.368 0,-164.703"
           style="fill:none;stroke:#d4ca3a;stroke-opacity:1;stroke-width:1;stroke-linecap:butt;stroke-linejoin:miter;stroke-miterlimit:10;stroke-dasharray:none"
           id="path228" /></g></g><g
       id="g230"><path
   d="m 315.402,84.88 -0.562,2.426 -0.567,1.964 -0.562,1.579 -0.566,1.261 -0.567,1 -0.562,0.793 -0.567,0.625 -0.562,0.489 -0.567,0.39 -0.562,0.305 -0.567,0.242 -0.562,0.191 -0.566,0.157 -0.563,0.125 -0.566,0.101 -0.567,0.086 -0.562,0.071 -0.567,0.062 -0.562,0.055 -0.567,0.047 -0.562,0.043 -0.567,0.039 -0.562,0.039 -0.566,0.035 -0.563,0.031 -1.133,0.063 -0.562,0.031 -0.567,0.031 -0.562,0.027 -0.567,0.032 -0.562,0.027 -0.566,0.031 -0.563,0.028 -0.566,0.027 -0.563,0.031 -1.133,0.055 -0.562,0.027 -0.567,0.031 -0.562,0.028 -0.566,0.027 -0.563,0.028 -0.566,0.027 -0.563,0.031 -0.566,0.027 -0.563,0.028 -0.566,0.027 -0.567,0.031 -0.562,0.028 -0.567,0.027 -0.562,0.031 -0.566,0.028 -0.563,0.027 -0.566,0.031 -0.563,0.028 -1.133,0.062 -0.562,0.031 -0.567,0.036 -0.562,0.035 -0.566,0.035 -0.563,0.043 -0.566,0.043 -0.563,0.051 -0.566,0.058 -0.563,0.074 -0.566,0.086 -0.567,0.11 -0.562,0.136 -0.566,0.176 -0.563,0.235 -0.566,0.308 -0.563,0.414 -0.566,0.563 -0.563,0.769 -0.566,1.063 -0.563,1.488 -0.566,2.133 -0.567,3.168 -0.562,5.094 -0.566,-0.672 -0.563,0.566 -0.566,1.051 -0.563,1.238 -0.566,1.285 -0.563,1.262 -0.566,1.199 -0.563,1.117 -0.566,1.028 -0.566,0.941 -0.563,0.852 -0.566,0.777 -0.563,0.707 -0.566,0.649 -0.563,0.605 -0.566,0.57 -0.563,0.551 -0.566,0.559 -0.563,0.59 -0.566,0.648 -0.566,0.758 -0.563,0.926 -0.566,1.183 -0.563,1.582 -0.566,2.188 -0.563,3.179 -0.566,5.012 -0.563,-9.004 -0.566,-6.168 -0.563,-3.23 -0.566,-7.512 -0.566,-5.316 -0.563,-4.059 -0.566,-3.207 -0.563,-2.586 -0.566,-2.109 -0.563,-1.742 -0.566,-1.446 -0.563,-1.207 -0.566,-1.015 -0.562,-0.852 -0.567,-0.723 -0.566,-0.609 -0.563,-0.52 -0.566,-0.437 -0.563,-0.375 -0.566,-0.313 -0.563,-0.269 -0.566,-0.223 -0.562,-0.187 -0.567,-0.157 -0.562,-0.121 -0.567,-0.097 -0.566,-0.067 -0.563,-0.039 -0.566,-0.008 -0.563,0.024 -0.566,0.066 -0.563,0.117 -0.566,0.18 -0.562,0.266 -0.567,0.379 -0.562,0.531 -0.567,0.746 -0.566,1.043 -0.563,1.473 -0.566,2.117 -0.563,3.148 -0.566,5.063 -0.562,-1.832 -0.567,-0.446 -0.562,0.172 -0.567,0.481 -0.562,0.629 -0.567,0.691 -0.566,0.707 -0.563,0.688 -0.566,0.656 -0.562,0.613 -0.567,0.567 -0.562,0.519 -0.567,0.469 -0.562,0.426 -0.567,0.386 -0.562,0.344 -0.567,0.309 -0.566,0.277 -0.563,0.25 -0.566,0.223 -0.562,0.199 -0.567,0.18 -0.562,0.16 -0.567,0.144 -0.562,0.129 -0.567,0.117 -0.562,0.11 -0.567,0.097 -0.566,0.086 -0.562,0.082 -0.567,0.075 -0.562,0.066 -0.567,0.066 -0.562,0.059 -0.567,0.055 -0.562,0.05 -0.567,0.051 -0.562,0.047 -1.133,0.086 -0.562,0.039 -0.567,0.039 -0.562,0.039 -0.567,0.035 -0.562,0.039 -0.567,0.032 -0.562,0.035 -0.567,0.035 -0.566,0.031 -0.562,0.032 -0.567,0.035 -0.562,0.031 -0.567,0.031 -0.562,0.031 -0.567,0.028 -0.562,0.031 -0.567,0.031 -0.562,0.032 -0.566,0.027 -0.567,0.031 -0.562,0.031 -0.567,0.028 -0.562,0.031 -0.567,0.027 -0.562,0.032 -0.567,0.027 -0.562,0.031 -0.566,0.028 -0.563,0.031 -0.566,0.027 -0.567,0.031 -0.562,0.028 -0.567,0.031 -0.562,0.027 -0.567,0.032 -0.562,0.027 -0.567,0.031 -0.562,0.027 -0.566,0.028 -0.563,0.031 -0.566,0.027 -0.567,0.032 -0.562,0.027 -0.567,0.031 -0.562,0.028 -0.567,0.031 -0.562,0.027 -0.566,0.028 -0.563,0.031 -0.566,0.027 -0.563,0.031 -0.566,0.028 -0.567,0.031 -0.562,0.027 -0.567,0.028 -0.562,0.031 -0.566,0.027 -0.563,0.032 -0.566,0.027 -0.563,0.031 -0.566,0.027 -0.563,0.032 -0.566,0.027 -0.567,0.031 -0.562,0.028 -0.567,0.031 -0.562,0.027 -0.566,0.031 -0.563,0.032 -0.566,0.027 -0.563,0.031 -0.566,0.035 -0.563,0.032 -1.133,0.07 -0.562,0.039 -0.566,0.043 -0.563,0.051 -0.566,0.055 -0.563,0.066 -0.566,0.078 -0.563,0.102 -0.566,0.125 -0.563,0.164 -0.566,0.215 -0.566,0.285 -0.563,0.383 -0.566,0.527 -0.563,0.719 -0.566,1.007 -0.563,1.422 -0.566,2.043 -0.563,3.055 -0.566,4.91 -0.563,1.063 -0.566,4.511 -0.566,-6.836 -0.563,-4.652 -0.566,-3.445 -0.563,-2.657 -0.566,-2.089 -0.563,-1.672 -0.566,-1.356 -0.563,-1.097 -0.566,-0.907 -0.563,-0.742 -0.566,-0.613 -0.566,-0.508 -0.563,-0.422 -0.566,-0.347 -0.563,-0.286 -0.566,-0.23 -0.563,-0.18 -0.566,-0.136 -0.563,-0.094 -0.566,-0.051 -0.562,0 -0.567,0.059 -0.566,0.125 -0.563,0.207 -0.566,0.324 -0.563,0.476 -0.566,0.688 -0.563,0.984 -0.566,1.414 -0.563,2.055 -0.566,3.094 -0.562,5.015 -0.567,-5.324 -0.566,-3.484 -0.563,-2.477 -0.566,-1.832 -0.563,-1.386 -0.566,-1.067 -0.563,-0.828 -0.566,-0.645 -0.562,-0.511 -0.567,-0.403 -0.562,-0.32 -0.567,-0.254 -0.566,-0.199 -0.563,-0.16 -0.566,-0.129 -0.563,-0.102 -0.566,-0.078 -0.562,-0.062 -0.567,-0.047 -0.562,-0.031 -0.567,-0.028 -0.562,-0.015 -0.567,-0.008 -0.566,-0.004 -0.563,0.004 -0.566,0.008 -0.563,0.011 -0.566,0.016 -0.562,0.023 -0.567,0.024 -0.562,0.035 -0.567,0.039 -0.566,0.051 -0.563,0.062 -0.566,0.078 -0.563,0.098 -0.566,0.129 -0.562,0.172 -0.567,0.223 -0.562,0.296 -0.567,0.403 -0.562,0.551 -0.567,0.75 -0.566,1.046 -0.563,1.469 -0.566,2.11 -0.562,3.14 -0.567,5.051 -0.562,-4.395 -0.567,-2.679 -0.562,-1.774 -0.567,-1.222 -0.562,-0.856 -0.567,-0.597 -0.566,-0.422 -0.563,-0.289 -0.566,-0.204 -0.562,-0.128 -0.567,-0.086 -0.562,-0.047 -0.567,-0.024 -0.562,-0.004 -0.567,0.008 -0.562,0.02 -1.133,0.054 -0.562,0.032 -0.567,0.035 -0.562,0.035 -0.567,0.035 -0.562,0.039 -0.567,0.035 -0.562,0.036 -0.567,0.035 -0.562,0.035 -0.566,0.031 -0.567,0.035 -0.562,0.031 -0.567,0.036 -0.562,0.031 -0.567,0.031 -0.562,0.031 -0.567,0.032 -0.562,0.031 -0.567,0.031 -0.562,0.031 -0.566,0.028 -0.567,0.031 -0.562,0.031 -0.567,0.028 -0.562,0.031 -0.567,0.027 -0.562,0.031 -0.567,0.028 -0.562,0.031 -0.566,0.027 -0.563,0.032 -0.566,0.027 -0.567,0.031 -0.562,0.028 -0.567,0.031 -0.562,0.027 -0.567,0.027 -0.562,0.032 -0.566,0.027 -0.563,0.031 -0.566,0.028 -0.563,0.031 -0.566,0.027 -0.567,0.032 -0.562,0.031 -0.567,0.031 -0.562,0.031 -0.567,0.032 -0.562,0.035 -0.566,0.035 -0.563,0.039 -0.566,0.043 -0.563,0.047 -0.566,0.054 -0.567,0.067 -0.562,0.078 -0.567,0.098 -0.562,0.125 -0.566,0.156 -0.563,0.207 -0.566,0.277 -0.563,0.367 -0.566,0.5 -0.563,0.684 -0.566,0.949 0,55.039 0.566,0.891 0.563,0.629 0.566,0.445 0.563,0.313 0.566,0.218 0.563,0.149 0.566,0.101 0.562,0.071 0.567,0.039 0.562,0.023 0.567,0.008 0.566,0 0.563,-0.008 0.566,-0.015 0.563,-0.016 0.566,-0.02 0.562,-0.023 0.567,-0.023 0.562,-0.024 0.567,-0.027 0.562,-0.024 1.133,-0.054 0.563,-0.028 0.566,-0.027 0.563,-0.023 0.566,-0.028 0.562,-0.027 0.567,-0.031 0.562,-0.028 0.567,-0.027 0.562,-0.027 1.133,-0.055 0.563,-0.027 0.566,-0.028 0.562,-0.027 0.567,-0.028 0.562,-0.031 0.567,-0.027 0.562,-0.027 0.567,-0.028 0.562,-0.031 0.567,-0.027 0.566,-0.032 0.562,-0.027 0.567,-0.031 0.562,-0.028 0.567,-0.031 0.562,-0.031 0.567,-0.031 0.562,-0.032 0.567,-0.035 0.562,-0.031 0.567,-0.035 0.566,-0.039 0.562,-0.035 0.567,-0.039 0.562,-0.043 0.567,-0.047 0.562,-0.047 0.567,-0.055 0.562,-0.055 0.567,-0.066 0.562,-0.07 0.566,-0.082 0.567,-0.098 0.562,-0.109 0.567,-0.129 0.562,-0.156 0.567,-0.188 0.562,-0.23 0.567,-0.286 0.562,-0.355 0.566,-0.445 0.563,-0.563 0.566,-0.726 0.567,-0.942 0.562,-1.234 0.567,-1.653 0.562,-2.261 0.567,-3.227 0.562,-5.012 0.567,5 0.562,3.09 0.566,2.059 0.563,1.418 0.566,0.992 0.567,0.703 0.562,0.496 0.567,0.356 0.562,0.25 0.567,0.172 0.562,0.125 0.566,0.082 0.563,0.054 0.566,0.035 0.563,0.02 0.566,0.012 0.567,0.004 0.562,0 0.567,-0.008 0.562,-0.004 0.566,-0.008 0.563,-0.004 0.566,-0.008 0.563,-0.004 0.566,-0.003 1.129,0 0.567,0.003 0.562,0.004 0.567,0.004 0.562,0.008 0.566,0.008 0.563,0.008 0.566,0.004 0.563,-0.004 0.566,-0.012 0.567,-0.027 0.562,-0.055 0.567,-0.094 0.562,-0.144 0.566,-0.219 0.563,-0.332 0.566,-0.492 0.563,-0.719 0.566,-1.063 0.563,-1.589 0.566,-2.457 0.567,-4.137 0.562,5.055 0.566,3.128 0.563,2.102 0.566,1.461 0.563,1.039 0.566,0.75 0.563,0.555 0.566,0.414 0.563,0.32 0.566,0.254 0.567,0.211 0.562,0.184 0.566,0.168 0.563,0.164 0.566,0.16 0.563,0.168 0.566,0.179 0.563,0.188 0.566,0.203 0.563,0.219 0.566,0.23 0.566,0.242 0.563,0.247 0.566,0.234 0.563,0.215 0.566,0.16 0.563,0.07 0.566,-0.09 0.563,-0.351 0.566,-0.801 0.563,-1.609 0.566,-3.348 0.566,0.168 0.563,-3.352 0.566,4.852 0.563,2.996 0.566,1.992 0.563,1.364 0.566,0.949 0.563,0.664 0.566,0.469 0.563,0.328 0.566,0.226 0.566,0.156 0.563,0.11 0.566,0.066 0.563,0.043 0.566,0.024 0.563,0.007 0.566,0 0.563,-0.007 0.566,-0.012 0.562,-0.02 0.567,-0.019 0.566,-0.024 0.563,-0.023 0.566,-0.023 0.563,-0.028 0.566,-0.027 0.563,-0.024 0.566,-0.027 0.562,-0.027 0.567,-0.028 0.562,-0.027 1.133,-0.055 0.563,-0.031 0.566,-0.027 0.563,-0.028 0.566,-0.027 0.563,-0.027 0.566,-0.028 0.562,-0.027 0.567,-0.027 0.562,-0.028 0.567,-0.027 0.566,-0.031 0.563,-0.028 0.566,-0.027 0.563,-0.027 0.566,-0.028 0.562,-0.027 0.567,-0.027 0.562,-0.028 0.567,-0.027 0.562,-0.027 0.567,-0.032 0.566,-0.027 0.563,-0.027 0.566,-0.028 0.562,-0.027 0.567,-0.027 0.562,-0.028 0.567,-0.027 0.562,-0.031 0.567,-0.028 0.562,-0.027 1.133,-0.055 0.563,-0.027 0.566,-0.027 0.562,-0.032 0.567,-0.027 0.562,-0.027 0.567,-0.028 0.562,-0.027 0.567,-0.031 0.562,-0.027 0.567,-0.028 0.566,-0.031 0.562,-0.027 0.567,-0.028 0.562,-0.031 0.567,-0.027 0.562,-0.032 0.567,-0.031 0.562,-0.027 0.567,-0.031 0.562,-0.032 0.566,-0.031 0.567,-0.035 0.562,-0.031 0.567,-0.036 0.562,-0.031 0.567,-0.035 0.562,-0.039 0.567,-0.035 0.562,-0.043 0.567,-0.039 0.566,-0.043 0.562,-0.047 0.567,-0.047 0.562,-0.051 0.567,-0.054 0.562,-0.059 0.567,-0.062 0.562,-0.071 0.567,-0.074 0.562,-0.082 0.566,-0.09 0.567,-0.098 0.562,-0.109 0.567,-0.121 0.562,-0.137 0.567,-0.152 0.562,-0.172 0.567,-0.195 0.562,-0.223 0.566,-0.25 0.563,-0.289 0.566,-0.324 0.567,-0.379 0.562,-0.434 0.567,-0.5 0.562,-0.582 0.567,-0.675 0.562,-0.79 0.567,-0.925 0.562,-1.086 0.566,-1.289 0.563,-1.532 0.566,-1.836 0.567,-2.21 0.562,-2.692 0.567,-3.328 0.562,-4.18 0.567,-5.433 0.562,-7.543 0.566,5.07 0.563,3.156 0.566,2.125 0.563,1.485 0.566,1.058 0.567,0.766 0.562,0.559 0.567,0.417 0.562,0.313 0.566,0.242 0.563,0.192 0.566,0.16 0.563,0.136 0.566,0.129 0.563,0.121 0.566,0.122 0.567,0.128 0.562,0.141 0.567,0.156 0.562,0.172 0.566,0.192 0.563,0.218 0.566,0.243 0.563,0.273 0.566,0.309 0.563,0.339 0.566,0.379 0.567,0.414 0.562,0.454 0.566,0.484 0.563,0.508 0.566,0.519 0.563,0.516 0.566,0.469 0.563,0.371 0.566,0.172 0.563,-0.192 0.566,-0.894 0.566,-2.453 0.563,9.39 0.566,6.637 0.563,4.23 0.566,4.59 0.563,2.75 0.566,1.746 0.563,1.117 0.566,0.688 0.563,0.391 0.566,0.168 0.566,-0.004 0.563,-0.137 0.566,-0.258 0.563,-0.367 0.566,-0.473 0.563,-0.582 0.566,-0.699 0.563,-0.828 0.566,-0.981 0.563,-1.156 0.566,-1.363 0.566,-1.609 0.563,-1.911 0.566,-2.273 0.563,-2.723 0.566,-3.289 0.563,-4.015 0.566,-4.993 0.563,-6.371 0.566,-8.648 0.562,5.039 0.567,3.113 0.566,2.078 0.563,1.434 0.566,1.008 0.563,0.715 0.566,0.503 0.563,0.36 0.566,0.254 0.563,0.179 0.566,0.122 0.562,0.082 0.567,0.054 0.566,0.032 0.563,0.015 0.566,0.004 0.563,-0.004 0.566,-0.008 0.563,-0.015 0.566,-0.02 0.562,-0.019 0.567,-0.02 0.562,-0.023 0.567,-0.028 0.566,-0.023 0.563,-0.024 0.566,-0.027 0.563,-0.027 0.566,-0.028 0.562,-0.023 0.567,-0.027 0.562,-0.028 1.133,-0.054 0.563,-0.024 0.566,-0.027 0.563,-0.028 0.566,-0.027 0.563,-0.027 0.566,-0.028 0.562,-0.027 0.567,-0.027 0.562,-0.024 1.133,-0.054 0.563,-0.028 0.566,-0.027 0.563,-0.023 0.566,-0.028 0.562,-0.027 0.567,-0.024 0.562,-0.027 0.567,-0.023 0.562,-0.028 1.133,-0.047 0.563,-0.019 0.566,-0.02 0.562,-0.019 0.567,-0.016 0.562,-0.012 0.567,-0.007 0.562,0 0.567,0.007 0.562,0.016 0.567,0.031 0.566,0.047 0.563,0.071 0.566,0.101 0.562,0.137 0.567,0.187 0.562,0.25 0.567,0.332 0.562,0.434 0.567,0.57 0.562,0.739 0.567,0.945 0.566,1.207 0.562,1.523 0.567,1.91 0.562,2.372 0,-85.137 z"
   style="fill:#bde8ff;fill-opacity:1;fill-rule:nonzero;stroke:none"
   id="path234" /><path
   d="m 61.883,128.989 253.519,0"
   style="fill:none;stroke:#00e5b2;stroke-opacity:1;stroke-width:2;stroke-linecap:butt;stroke-linejoin:miter;stroke-miterlimit:10;stroke-dasharray:none;fill-opacity:1"
   id="path232" /><text
   transform="matrix(1,0,0,-1,38.8125,57.33686)"
   id="text236"><tspan
     style="fill:#6c606b;fill-opacity:1;fill-rule:nonzero;stroke:none;font-family:Tahoma;font-variant:normal;font-weight:normal;font-size:8;writing-mode:lr;-inkscape-font-specification:Tahoma"
     x="0 4.36 8.72"
     y="0"
     sodipodi:role="line"
     id="tspan238">650</tspan><tspan
     style="fill:#6c606b;fill-opacity:1;fill-rule:nonzero;stroke:none;font-family:Tahoma;font-variant:normal;font-weight:normal;font-size:8;writing-mode:lr;-inkscape-font-specification:Tahoma"
     x="0 4.36 8.72"
     y="-38.33984"
     sodipodi:role="line"
     id="tspan240">700</tspan><tspan
     style="fill:#6c606b;fill-opacity:1;fill-rule:nonzero;stroke:none;font-family:Tahoma;font-variant:normal;font-weight:normal;font-size:8;writing-mode:lr;-inkscape-font-specification:Tahoma"
     x="0 4.36 8.72"
     y="-76.67968"
     sodipodi:role="line"
     id="tspan242">750</tspan><tspan
     style="fill:#6c606b;fill-opacity:1;fill-rule:nonzero;stroke:none;font-family:Tahoma;font-variant:normal;font-weight:normal;font-size:8;writing-mode:lr;-inkscape-font-specification:Tahoma"
     x="0 4.36 8.72"
     y="-115.01952"
     sodipodi:role="line"
     id="tspan244">800</tspan><tspan
     style="fill:#6c606b;fill-opacity:1;fill-rule:nonzero;stroke:none;font-family:Tahoma;font-variant:normal;font-weight:normal;font-size:8;writing-mode:lr;-inkscape-font-specification:Tahoma"
     x="0 4.36 8.72"
     y="-153.36327"
     sodipodi:role="line"
     id="tspan246">850</tspan></text>

<text
   transform="matrix(0,1,1,0,23.792969,112.51655)"
   id="text248"><tspan
     style="fill:#564a55;fill-opacity:1;fill-rule:nonzero;stroke:none;font-family:Tahoma;font-variant:normal;font-weight:normal;font-size:11;writing-mode:lr;-inkscape-font-specification:Tahoma"
     x="0 6.589 15.818 21.89 24.398 26.906 30.58 36.707 42.779"
     y="0"
     sodipodi:role="line"
     id="tspan250">Amplitude</tspan></text>

<text
   transform="matrix(1,0,0,-1,107.97656,227.03608)"
   id="text252"><tspan
     style="fill:#564a55;fill-opacity:1;fill-rule:nonzero;stroke:none;font-family:Tahoma;font-variant:normal;font-weight:normal;font-size:11;writing-mode:lr;-inkscape-font-specification:Tahoma"
     x="0 6.82 12.606 16.104 18.612 24.398 29.469 33.143 35.651 41.613 47.74 51.172 55.374 61.369 64.691 70.686 76.681 80.003 85.998 91.993 96.195 99.517 102.949 109.769 115.555 120.461 126.423 128.931 135.058 138.732 141.24 147.202 153.329 157.212 160.644 166.639 169.961 175.956 181.951"
     y="0"
     sodipodi:role="line"
     id="tspan254">Reflection [2,10,22]. Resolution: 3.21A</tspan></text>

</g><g
       id="g146"><path
         d="m 61.883,139.841 0.566,-0.028 0.563,-0.031 0.566,-0.027 0.563,-0.028 0.566,-0.027 0.563,-0.027 0.566,-0.028 0.562,-0.031 0.567,-0.027 0.562,-0.027 1.133,-0.055 0.563,-0.031 0.566,-0.028 0.563,-0.027 0.566,-0.027 0.562,-0.028 0.567,-0.031 0.562,-0.027 0.567,-0.028 0.562,-0.027 0.567,-0.027 0.566,-0.032 0.563,-0.027 0.566,-0.027 0.563,-0.028 0.566,-0.027 0.562,-0.031 0.567,-0.028 0.562,-0.027 0.567,-0.027 0.562,-0.028 0.567,-0.031 0.566,-0.027 0.563,-0.028 0.566,-0.031 0.562,-0.027 0.567,-0.028 0.562,-0.031 0.567,-0.027 0.562,-0.027 0.567,-0.032 0.562,-0.027 0.567,-0.031 0.566,-0.028 0.562,-0.031 0.567,-0.031 0.562,-0.031 0.567,-0.028 0.562,-0.031 0.567,-0.035 0.562,-0.031 0.567,-0.032 0.562,-0.035 0.567,-0.031 0.566,-0.035 0.562,-0.039 0.567,-0.035 0.562,-0.04 0.567,-0.042 0.562,-0.04 0.567,-0.046 0.562,-0.047 0.567,-0.047 0.562,-0.055 0.566,-0.055 0.567,-0.058 0.562,-0.067 0.567,-0.07 0.562,-0.074 0.567,-0.082 0.562,-0.094 0.567,-0.098 0.562,-0.113 0.566,-0.121 0.563,-0.137 0.566,-0.152 0.567,-0.172 0.562,-0.191 0.567,-0.215 0.562,-0.242 0.567,-0.274 0.562,-0.308 0.567,-0.024 0.562,-0.027 0.566,-0.027 0.563,-0.024 0.566,-0.027 0.567,-0.024 0.562,-0.027 0.567,-0.023 0.562,-0.024 0.567,-0.027 0.562,-0.024 0.566,-0.019 0.563,-0.024 0.566,-0.023 0.563,-0.02 1.133,-0.039 0.562,-0.015 0.567,-0.016 0.562,-0.012 0.566,-0.011 0.563,-0.012 0.566,-0.008 0.563,-0.004 0.566,0 0.567,0.004 0.562,0.012 0.567,0.012 0.562,0.019 0.567,0.027 0.562,0.036 0.566,0.043 0.563,0.054 0.566,0.063 0.563,0.082 0.566,0.094 0.567,0.113 0.562,0.129 0.567,0.156 0.562,0.184 0.566,0.214 0.563,0.247 0.566,0.289 0.563,0.332 0.566,0.382 0.563,0.446 0.566,0.515 0.567,0.59 0.562,0.02 0.566,0.019 0.563,0.024 0.566,0.023 0.563,0.027 0.566,0.032 0.563,0.039 0.566,0.047 0.563,0.054 0.566,0.067 0.567,0.074 0.562,0.094 0.566,0.109 0.563,0.125 0.566,0.149 0.563,0.175 0.566,0.203 0.563,0.239 0.566,0.277 0.563,0.316 0.566,0.372 0.566,0.429 0.563,0.492 0.566,0.571 0.563,0.656 0.566,0.758 0.563,0.871 0.566,1 0.563,1.152 0.566,1.324 0.563,1.52 0.566,1.746 0.566,-2.176 0.563,-2.207 0.566,-0.027 0.563,-0.027 0.566,-0.028 0.563,-0.031 0.566,-0.027 0.563,-0.028 0.566,-0.031 0.563,-0.027 1.132,-0.055 0.563,-0.031 0.566,-0.028 0.563,-0.027 0.566,-0.027 0.563,-0.031 0.566,-0.028 0.563,-0.027 0.566,-0.031 0.562,-0.028 1.133,-0.054 0.563,-0.032 0.566,-0.027 0.563,-0.027 0.566,-0.032 0.563,-0.027 0.566,-0.027 0.562,-0.028 0.567,-0.031 0.562,-0.027 1.133,-0.055 0.563,-0.031 0.566,-0.028 0.563,-0.027 0.566,-0.031 0.563,-0.027 0.566,-0.028 0.562,-0.027 0.567,-0.031 0.562,-0.028 1.133,-0.054 0.563,-0.032 0.566,-0.027 0.563,-0.027 0.566,-0.028 0.562,-0.031 0.567,-0.027 0.562,-0.028 0.567,-0.031 0.562,-0.027 1.133,-0.055 0.563,-0.031 0.566,-0.028 0.562,-0.027 0.567,-0.031 0.562,-0.027 0.567,-0.028 0.562,-0.027 0.567,-0.031 0.562,-0.028 0.567,-0.027 0.566,-0.031 0.563,-0.028 0.566,-0.027 0.562,-0.031 0.567,-0.028 0.562,-0.027 0.567,-0.031 0.562,-0.028 0.567,-0.031 0.562,-0.027 0.567,-0.028 0.566,-0.031 0.562,-0.031 0.567,-0.027 0.562,-0.032 0.567,-0.027 0.562,-0.031 0.567,-0.031 0.562,-0.032 0.567,-0.031 0.562,-0.031 0.566,-0.031 0.567,-0.036 0.562,-0.031 0.567,-0.035 0.562,-0.035 0.567,-0.035 0.562,-0.039 0.567,-0.039 0.562,-0.04 0.567,-0.039 0.566,-0.046 0.562,-0.043 0.567,-0.051 0.562,-0.051 0.567,-0.055 0.562,-0.058 0.567,-0.063 0.562,-0.07 0.567,-0.074 0.562,-0.082 0.566,-0.086 0.567,-0.102 0.562,-0.105 0.567,-0.121 0.562,-0.133 0.567,-0.149 0.562,-0.168 0.567,-0.187 0.562,-0.207 0.566,-0.238 0.563,-0.27 0.566,-0.301 0.567,-0.343 0.562,-0.391 0.567,-0.442 0.562,-0.503 0.567,-0.575 0.562,-0.652 0.567,-0.746 0.562,-0.852 0.566,-0.968 0.563,-1.114 0.566,-1.269 0.567,-1.453 0.562,-1.66 0.567,-1.903 0.562,-2.176 0.567,-2.492 0.562,-2.855 0.566,0 0.563,0.004 0.566,0.004 0.563,0.007 0.566,0.008 0.567,0.012 0.562,0.012 0.567,0.019 0.562,0.024 0.566,0.031 0.563,0.039 0.566,0.047 0.563,0.054 0.566,0.067 0.563,0.082 0.566,0.094 0.567,0.113 0.562,0.133 0.567,0.152 0.562,0.18 0.566,0.211 0.563,0.242 0.566,0.277 0.563,0.324 0.566,0.375 0.563,0.43 0.566,0.492 0.567,0.571 0.562,0.652 0.566,0.746 0.563,0.859 0.566,0.985 0.563,1.125 0.566,1.293 0.563,1.476 0.566,1.692 0.563,1.933 0.566,2.211 0.566,2.528 0.563,6.312 0.566,6.399 0.563,6.621 0.566,-0.215 0.563,-0.211 0.566,-0.223 0.563,-0.23 0.566,-0.25 0.563,-0.27 0.566,-0.293 0.566,-0.324 0.563,-0.367 0.566,-0.406 0.563,-0.461 0.566,-0.52 0.563,-0.594 0.566,-0.671 0.563,-0.77 0.566,-0.879 0.563,-1.004 0.566,-1.152 0.566,-1.32 0.563,-1.512 0.566,-1.735 0.563,-1.992 0.566,-2.289 0.563,-2.629 0.566,-3.019 0.563,-3.469 0.566,-3.988 0.562,-0.028 1.133,-0.054 0.563,-0.028 0.566,-0.027 0.563,-0.027 0.566,-0.028 0.563,-0.027 0.566,-0.027 0.563,-0.028 0.566,-0.027 0.562,-0.031 1.133,-0.055 0.563,-0.027 0.566,-0.028 0.563,-0.027 0.566,-0.027 0.563,-0.028 0.566,-0.027 0.562,-0.027 0.567,-0.028 0.562,-0.027 1.133,-0.055 0.563,-0.027 0.566,-0.027 0.563,-0.028 0.566,-0.027 0.562,-0.031 0.567,-0.028 0.562,-0.027 1.133,-0.055 0.563,-0.027 0.566,-0.027 0.563,-0.028 0.566,-0.027 0.563,-0.028 0.566,-0.027 0.562,-0.027 0.567,-0.028 0.562,-0.027 1.133,-0.055 0.563,-0.027 0.566,-0.027 0.563,-0.028 0.566,-0.027 0.562,-0.027 0.567,-0.032 0.562,-0.027 0.567,-0.027 0.562,-0.028 1.133,-0.054 0.563,-0.028 0.566,-0.027 0.562,-0.027 0.567,-0.028 0.562,-0.027 0.567,-0.027 0.562,-0.028 0.567,-0.027 0.562,-0.027 1.133,-0.055 0.563,-0.027 0.566,-0.028 0.562,-0.027 0.567,-0.027 0.562,-0.028 0.567,-0.027 0.562,-0.027 0.567,-0.028 0.562,-0.027 0.567,-0.031 0.566,-0.028 0.562,-0.027 0.567,-0.027 0.562,-0.028"
         style="fill:none;stroke:#00bfff;stroke-opacity:1;stroke-width:2;stroke-linecap:butt;stroke-linejoin:miter;stroke-miterlimit:10;stroke-dasharray:none"
         id="path148" /></g><text
       style="font-size:6.68168163px"
       y="-234.65181"
       x="292.03998"
       id="text22-7-1"
       transform="scale(1,-1)"><tspan
         style="font-size:4.4544549px;font-variant:normal;font-weight:normal;writing-mode:lr-tb;fill:#4c404b;fill-opacity:1;fill-rule:nonzero;stroke:none;font-family:Tahoma;-inkscape-font-specification:Tahoma"
         sodipodi:role="line"
         id="tspan26-0-7"
         x="292.03998"
         y="-234.65181">o</tspan><tspan
         style="font-size:4.4544549px;font-variant:normal;font-weight:normal;writing-mode:lr-tb;fill:#4c404b;fill-opacity:1;fill-rule:nonzero;stroke:none;font-family:Tahoma;-inkscape-font-specification:Tahoma"
         x="292.03998 292.03998 292.03998 292.03998 292.03998 292.03998 292.03998 292.03998 295.18927 297.64813 299.6348 301.97787 303.58145 305.79977 308.13394 309.6217 310.63733 313.05164 315.53278 316.92258 320.07187 322.12537 324.17886 326.66 328.26358 330.60663 333.08777 335.14127"
         y="-228.92714 -228.92714 -228.92714 -228.92714 -228.92714 -228.92714 -228.92714 -228.92714"
         sodipodi:role="line"
         id="tspan3869-9-4" /></text>
</g></svg>