<?xml version="1.0" encoding="UTF-8" standalone="no"?>
<!-- Created with Inkscape (http://www.inkscape.org/) -->

<svg
   xmlns:dc="http://purl.org/dc/elements/1.1/"
   xmlns:cc="http://creativecommons.org/ns#"
   xmlns:rdf="http://www.w3.org/1999/02/22-rdf-syntax-ns#"
   xmlns:svg="http://www.w3.org/2000/svg"
   xmlns="http://www.w3.org/2000/svg"
   xmlns:sodipodi="http://sodipodi.sourceforge.net/DTD/sodipodi-0.dtd"
   xmlns:inkscape="http://www.inkscape.org/namespaces/inkscape"
   id="svg2"
   version="1.1"
   inkscape:version="0.48.5 r10040"
   width="566.92913"
   height="318.89764"
   xml:space="preserve"
   sodipodi:docname="SmoothedPlot_0,30,38_res2.pdf"><metadata
     id="metadata8"><rdf:RDF><cc:Work
         rdf:about=""><dc:format>image/svg+xml</dc:format><dc:type
           rdf:resource="http://purl.org/dc/dcmitype/StillImage" /><dc:title></dc:title></cc:Work></rdf:RDF></metadata><defs
     id="defs6"><clipPath
       clipPathUnits="userSpaceOnUse"
       id="clipPath40"><path
         d="m 55.648,61.118 293.656,0 0,-2 -293.656,0 0,2 z"
         id="path42" /></clipPath><clipPath
       clipPathUnits="userSpaceOnUse"
       id="clipPath50"><path
         d="m 55.648,112.118 293.656,0 0,-1 -293.656,0 0,1 z"
         id="path52" /></clipPath><clipPath
       clipPathUnits="userSpaceOnUse"
       id="clipPath60"><path
         d="m 55.648,163.118 293.656,0 0,-1 -293.656,0 0,1 z"
         id="path62" /></clipPath><clipPath
       clipPathUnits="userSpaceOnUse"
       id="clipPath70"><path
         d="m 55.648,214.118 293.656,0 0,-1 -293.656,0 0,1 z"
         id="path72" /></clipPath><clipPath
       clipPathUnits="userSpaceOnUse"
       id="clipPath80"><path
         d="m 61,219.368 1,0 0,-164.703 -1,0 0,164.703 z"
         id="path82" /></clipPath><clipPath
       clipPathUnits="userSpaceOnUse"
       id="clipPath90"><path
         d="m 117,219.368 2,0 0,-164.703 -2,0 0,164.703 z"
         id="path92" /></clipPath><clipPath
       clipPathUnits="userSpaceOnUse"
       id="clipPath100"><path
         d="m 173,219.368 2,0 0,-164.703 -2,0 0,164.703 z"
         id="path102" /></clipPath><clipPath
       clipPathUnits="userSpaceOnUse"
       id="clipPath110"><path
         d="m 230,219.368 1,0 0,-164.703 -1,0 0,164.703 z"
         id="path112" /></clipPath><clipPath
       clipPathUnits="userSpaceOnUse"
       id="clipPath120"><path
         d="m 286,219.368 2,0 0,-164.703 -2,0 0,164.703 z"
         id="path122" /></clipPath><clipPath
       clipPathUnits="userSpaceOnUse"
       id="clipPath130"><path
         d="m 343,219.368 1,0 0,-164.703 -1,0 0,164.703 z"
         id="path132" /></clipPath><clipPath
       clipPathUnits="userSpaceOnUse"
       id="clipPath144"><path
         d="m 181,219.368 3,0 0,-164.703 -3,0 0,164.703 z"
         id="path146" /></clipPath><clipPath
       clipPathUnits="userSpaceOnUse"
       id="clipPath154"><path
         d="m 219,219.368 2,0 0,-164.703 -2,0 0,164.703 z"
         id="path156" /></clipPath><clipPath
       clipPathUnits="userSpaceOnUse"
       id="clipPath164"><path
         d="m 242,219.368 3,0 0,-164.703 -3,0 0,164.703 z"
         id="path166" /></clipPath></defs><sodipodi:namedview
     pagecolor="#ffffff"
     bordercolor="#666666"
     borderopacity="1"
     objecttolerance="10"
     gridtolerance="10"
     guidetolerance="10"
     inkscape:pageopacity="0"
     inkscape:pageshadow="2"
     inkscape:window-width="1600"
     inkscape:window-height="837"
     id="namedview4"
     showgrid="false"
     inkscape:zoom="2.0006015"
     inkscape:cx="244.7461"
     inkscape:cy="200.84328"
     inkscape:window-x="-8"
     inkscape:window-y="-8"
     inkscape:window-maximized="1"
     inkscape:current-layer="g170" /><g
     id="g10"
     inkscape:groupmode="layer"
     inkscape:label="SmoothedPlot_0,30,38_res2"
     transform="matrix(1.25,0,0,-1.25,0,318.89764)"><g
       id="g12"><text
   transform="matrix(1,0,0,-1,165.97656,21.914985)"
   id="text14"><tspan
     style="fill:#564a55;fill-opacity:1;fill-rule:nonzero;stroke:none;font-family:Tahoma;font-variant:normal;font-weight:normal;font-size:11;writing-mode:lr;-inkscape-font-specification:Tahoma"
     x="0 4.103 13.332 19.096 25.168 30.954 34.386 41.723 47.85 57.079 63.151 68.937"
     y="0"
     sodipodi:role="line"
     id="tspan16">Image Number</tspan></text>


<text
   transform="matrix(1,0,0,-1,58.816406,43.832954)"
   id="text18"><tspan
     style="fill:#6c606b;fill-opacity:1;fill-rule:nonzero;stroke:none;font-family:Tahoma;font-variant:normal;font-weight:normal;font-size:8;writing-mode:lr;-inkscape-font-specification:Tahoma"
     x="0 51.96 56.32 60.68 108.429688 112.789688 117.149688 164.869688 169.229688 173.589688 221.355472 225.715472 230.075472 277.795472 282.155472 286.515472"
     y="0"
     sodipodi:role="line"
     id="tspan20">0100200300400500</tspan></text>


<text
   transform="matrix(1,0,0,-1,360.11328,134.01655)"
   id="text22"><tspan
     style="font-size:8px;font-variant:normal;font-weight:normal;writing-mode:lr-tb;fill:#4c404b;fill-opacity:1;fill-rule:nonzero;stroke:none;font-family:Tahoma;-inkscape-font-specification:Tahoma"
     x="0 4.4559999 11.168 15.504 19.84 22.511999 26.968 31.176001 35.591999 38.088001 42.296001 45.863998 48.535999 50.360001 57.071999 61.264 63.936001"
     y="0"
     sodipodi:role="line"
     id="tspan24">Smoothed estimate</tspan><tspan
     style="font-size:8px;font-variant:normal;font-weight:normal;writing-mode:lr-tb;fill:#4c404b;fill-opacity:1;fill-rule:nonzero;stroke:none;font-family:Tahoma;-inkscape-font-specification:Tahoma"
     x="0 5.6560001 10.072 13.64 17.848 20.728001 24.712 28.903999 31.576 33.400002 37.736 42.192001 44.688 50.344002 54.032001 57.720001 62.175999 65.056 69.264 73.720001 77.407997"
     y="10.281248"
     sodipodi:role="line"
     id="tspan26">Observation Occurence</tspan><tspan
     style="font-size:8px;font-variant:normal;font-weight:normal;writing-mode:lr-tb;fill:#4c404b;fill-opacity:1;fill-rule:nonzero;stroke:none;font-family:Tahoma;-inkscape-font-specification:Tahoma"
     x="0 0 0 0 0 0 0 0 5.6560001 10.072 13.64 17.848 20.728001 24.712 28.903999 31.576 33.400002 37.736 42.192001 44.688 50.344002 54.032001 57.720001 62.175999 65.056 69.264 73.720001 77.407997"
     y="10.281248 10.281248 10.281248 10.281248 10.281248 10.281248 10.281248 10.281248"
     sodipodi:role="line"
     id="tspan3869" /></text>


<path
   d="m 352.32277,139.587 5.141,0 0,-5.141 -5.141,0 0,5.141 z"
   style="fill:#00bfff;fill-opacity:1;fill-rule:nonzero;stroke:none"
   id="path28"
   inkscape:connector-curvature="0" /><path
   d="m 352.32277,129.56116 5.141,0 0,-5.141 -5.141,0 0,5.141 z"
   style="fill:#d4ca3a;fill-opacity:1;fill-rule:nonzero;stroke:none"
   id="path30"
   inkscape:connector-curvature="0" /><text
   transform="matrix(1,0,0,-1,352.13672,149.84858)"
   id="text32"><tspan
     style="fill:#362a35;fill-opacity:1;fill-rule:nonzero;stroke:none;font-family:Tahoma;font-variant:normal;font-weight:normal;font-size:11;writing-mode:lr;-inkscape-font-specification:Tahoma"
     x="0 6.6 12.562 15.07 21.032 27.159 31.119 34.551 41.008 46.794"
     y="0"
     sodipodi:role="line"
     id="tspan34">Colour Key</tspan></text>


<path
   inkscape:connector-curvature="0"
   d="m 352.32277,119.53532 5.141,0 0,-5.141 -5.141,0 0,5.141 z"
   style="fill:#00e5b2;fill-opacity:1;fill-rule:nonzero;stroke:none"
   id="path30-1" /><text
   xml:space="preserve"
   style="font-size:40px;font-style:normal;font-weight:normal;line-height:125%;letter-spacing:0px;word-spacing:0px;fill:#000000;fill-opacity:1;stroke:none;font-family:Sans"
   x="456.36276"
   y="183.43839"
   id="text3875"
   sodipodi:linespacing="125%"
   transform="matrix(0.8,0,0,-0.8,0,255.11811)"><tspan
     sodipodi:role="line"
     id="tspan3877" /></text>

<text
   style="font-size:12px"
   y="-114.13414"
   x="360.11328"
   id="text22-7"
   transform="scale(1,-1)"><tspan
     style="font-size:8px;font-variant:normal;font-weight:normal;writing-mode:lr-tb;fill:#4c404b;fill-opacity:1;fill-rule:nonzero;stroke:none;font-family:Tahoma;-inkscape-font-specification:Tahoma"
     sodipodi:role="line"
     id="tspan26-0"
     x="360.11328"
     y="-114.13414">CTruncate estimate</tspan><tspan
     style="font-size:8px;font-variant:normal;font-weight:normal;writing-mode:lr-tb;fill:#4c404b;fill-opacity:1;fill-rule:nonzero;stroke:none;font-family:Tahoma;-inkscape-font-specification:Tahoma"
     x="360.11328 360.11328 360.11328 360.11328 360.11328 360.11328 360.11328 360.11328 365.76929 370.1853 373.7533 377.9613 380.84128 384.82529 389.0173 391.6893 393.51331 397.8493 402.3053 404.8013 410.45731 414.14529 417.83328 422.28931 425.16928 429.37729 433.83328 437.5213"
     y="-103.85289 -103.85289 -103.85289 -103.85289 -103.85289 -103.85289 -103.85289 -103.85289"
     sodipodi:role="line"
     id="tspan3869-9" /></text>

<text
   style="font-size:6.68168163px"
   y="-234.62021"
   x="291.99942"
   id="text22-7-1"
   transform="scale(1,-1)"><tspan
     style="font-size:4.4544549px;font-variant:normal;font-weight:normal;writing-mode:lr-tb;fill:#4c404b;fill-opacity:1;fill-rule:nonzero;stroke:none;font-family:Tahoma;-inkscape-font-specification:Tahoma"
     sodipodi:role="line"
     id="tspan26-0-7"
     x="291.99942"
     y="-234.62021">o</tspan><tspan
     style="font-size:4.4544549px;font-variant:normal;font-weight:normal;writing-mode:lr-tb;fill:#4c404b;fill-opacity:1;fill-rule:nonzero;stroke:none;font-family:Tahoma;-inkscape-font-specification:Tahoma"
     x="291.99942 291.99942 291.99942 291.99942 291.99942 291.99942 291.99942 291.99942 295.14871 297.60757 299.59424 301.93732 303.54089 305.75922 308.09338 309.58115 310.59677 313.01108 315.49222 316.88202 320.03131 322.08481 324.13831 326.61945 328.22302 330.56607 333.04721 335.10071"
     y="-228.89554 -228.89554 -228.89554 -228.89554 -228.89554 -228.89554 -228.89554 -228.89554"
     sodipodi:role="line"
     id="tspan3869-9-4" /></text>
</g><g
       id="g36"><g
         id="g38"
         clip-path="url(#clipPath40)"><path
           d="m 55.648,60.337 293.657,0"
           style="fill:none;stroke:#d0d0e0;stroke-opacity:1;stroke-width:0.566929;stroke-linecap:butt;stroke-linejoin:miter;stroke-miterlimit:10;stroke-dasharray:1.417323,1.417323;stroke-dashoffset:0"
           id="path44" /></g></g><g
       id="g46"><g
         id="g48"
         clip-path="url(#clipPath50)"><path
           d="m 55.648,111.458 293.657,0"
           style="fill:none;stroke:#d0d0e0;stroke-opacity:1;stroke-width:0.566929;stroke-linecap:butt;stroke-linejoin:miter;stroke-miterlimit:10;stroke-dasharray:1.417323,1.417323;stroke-dashoffset:0"
           id="path54" /></g></g><g
       id="g56"><g
         id="g58"
         clip-path="url(#clipPath60)"><path
           d="m 55.648,162.579 293.657,0"
           style="fill:none;stroke:#d0d0e0;stroke-opacity:1;stroke-width:0.566929;stroke-linecap:butt;stroke-linejoin:miter;stroke-miterlimit:10;stroke-dasharray:1.417323,1.417323;stroke-dashoffset:0"
           id="path64" /></g></g><g
       id="g66"><g
         id="g68"
         clip-path="url(#clipPath70)"><path
           d="m 55.648,213.7 293.657,0"
           style="fill:none;stroke:#d0d0e0;stroke-opacity:1;stroke-width:0.566929;stroke-linecap:butt;stroke-linejoin:miter;stroke-miterlimit:10;stroke-dasharray:1.417323,1.417323;stroke-dashoffset:0"
           id="path74" /></g></g><g
       id="g76"><g
         id="g78"
         clip-path="url(#clipPath80)"><path
           d="m 61.316,219.368 0,-164.703"
           style="fill:none;stroke:#d0d0e0;stroke-opacity:1;stroke-width:0.566929;stroke-linecap:butt;stroke-linejoin:miter;stroke-miterlimit:10;stroke-dasharray:1.417323,1.417323;stroke-dashoffset:0"
           id="path84" /></g></g><g
       id="g86"><g
         id="g88"
         clip-path="url(#clipPath90)"><path
           d="m 117.781,219.368 0,-164.703"
           style="fill:none;stroke:#d0d0e0;stroke-opacity:1;stroke-width:0.566929;stroke-linecap:butt;stroke-linejoin:miter;stroke-miterlimit:10;stroke-dasharray:1.417323,1.417323;stroke-dashoffset:0"
           id="path94" /></g></g><g
       id="g96"><g
         id="g98"
         clip-path="url(#clipPath100)"><path
           d="m 174.246,219.368 0,-164.703"
           style="fill:none;stroke:#d0d0e0;stroke-opacity:1;stroke-width:0.566929;stroke-linecap:butt;stroke-linejoin:miter;stroke-miterlimit:10;stroke-dasharray:1.417323,1.417323;stroke-dashoffset:0"
           id="path104" /></g></g><g
       id="g106"><g
         id="g108"
         clip-path="url(#clipPath110)"><path
           d="m 230.707,219.368 0,-164.703"
           style="fill:none;stroke:#d0d0e0;stroke-opacity:1;stroke-width:0.566929;stroke-linecap:butt;stroke-linejoin:miter;stroke-miterlimit:10;stroke-dasharray:1.417323,1.417323;stroke-dashoffset:0"
           id="path114" /></g></g><g
       id="g116"><g
         id="g118"
         clip-path="url(#clipPath120)"><path
           d="m 287.172,219.368 0,-164.703"
           style="fill:none;stroke:#d0d0e0;stroke-opacity:1;stroke-width:0.566929;stroke-linecap:butt;stroke-linejoin:miter;stroke-miterlimit:10;stroke-dasharray:1.417323,1.417323;stroke-dashoffset:0"
           id="path124" /></g></g><g
       id="g126"><g
         id="g128"
         clip-path="url(#clipPath130)"><path
           d="m 343.633,219.368 0,-164.703"
           style="fill:none;stroke:#d0d0e0;stroke-opacity:1;stroke-width:0.566929;stroke-linecap:butt;stroke-linejoin:miter;stroke-miterlimit:10;stroke-dasharray:1.417323,1.417323;stroke-dashoffset:0"
           id="path134" /></g></g><g
       id="g170"><path
   d="m 315.402,106.263 -0.562,0.718 -0.567,0.688 -0.562,0.656 -0.566,0.629 -0.567,0.598 -0.562,0.574 -0.567,0.547 -0.562,0.523 -0.567,0.5 -0.562,0.477 -0.567,0.453 -0.562,0.434 -0.566,0.414 -0.563,0.394 -0.566,0.375 -0.567,0.359 -0.562,0.34 -0.567,0.325 -0.562,0.312 -0.567,0.293 -0.562,0.281 -0.567,0.27 -0.562,0.254 -0.566,0.242 -0.563,0.23 -0.566,0.219 -0.567,0.211 -0.562,0.199 -0.567,0.192 -0.562,0.183 -0.567,0.172 -0.562,0.164 -0.566,0.156 -0.563,0.153 -0.566,0.144 -0.563,0.137 -0.566,0.129 -0.567,0.125 -0.562,0.121 -0.567,0.117 -0.562,0.11 -0.566,0.105 -0.563,0.102 -0.566,0.097 -0.563,0.094 -0.566,0.09 -0.563,0.086 -0.566,0.086 -0.567,0.082 -0.562,0.078 -0.567,0.078 -0.562,0.074 -0.566,0.071 -0.563,0.07 -0.566,0.07 -0.563,0.067 -0.566,0.066 -0.567,0.063 -0.562,0.066 -0.567,0.062 -0.562,0.063 -0.566,0.062 -0.563,0.059 -0.566,0.063 -0.563,0.058 -0.566,0.063 -0.563,0.058 -1.133,0.125 -0.562,0.063 -0.566,0.062 -0.563,0.063 -0.566,0.066 -0.563,0.067 -0.566,0.066 -0.563,0.07 -0.566,0.071 -0.563,0.074 -0.566,0.074 -0.567,0.078 -0.562,0.082 -0.566,0.082 -0.563,0.086 -0.566,0.09 -0.563,0.094 -0.566,0.097 -0.563,0.102 -0.566,0.105 -0.563,0.114 -0.566,0.117 -0.566,0.125 -0.563,0.129 -0.566,0.136 -0.563,0.141 -0.566,0.152 -0.563,0.161 -0.566,0.168 -0.563,0.179 -0.566,0.192 -0.563,0.199 -0.566,0.215 -0.566,0.226 -0.563,0.242 -0.566,0.254 -0.563,0.278 -0.566,0.289 -0.563,0.312 -0.566,0.336 -0.563,0.356 -0.566,0.383 -0.563,0.41 -0.566,0.441 -0.566,0.477 -0.563,0.511 -0.566,0.555 -0.563,0.602 -0.566,0.648 -0.563,0.711 -0.566,0.773 -0.563,0.852 -0.566,0.934 -0.562,1.035 -0.567,1.156 -0.566,1.305 -0.563,1.488 -0.566,1.727 -0.563,2.062 -0.566,-1.867 -0.563,-1.531 -0.566,-1.289 -0.562,-1.106 -0.567,-0.957 -0.562,-0.832 -0.567,-0.73 -0.566,-0.637 -0.563,-0.555 -0.566,-0.484 -0.563,-0.418 -0.566,-0.364 -0.563,-0.304 -0.566,-0.254 -0.562,-0.207 -0.567,-0.16 -0.562,-0.117 -0.567,-0.075 -0.566,-0.035 -0.563,0.004 -0.566,0.047 -0.563,0.082 -0.566,0.125 -0.562,0.164 -0.567,0.207 -0.562,0.25 -0.567,0.297 -0.562,0.344 -0.567,0.39 -0.566,0.446 -0.563,0.504 -0.566,0.566 -0.562,0.637 -0.567,0.711 -0.562,0.8 -0.567,0.895 -0.562,1.012 -0.567,1.148 -0.562,1.309 -0.567,1.515 -0.566,1.789 -0.563,2.176 -0.566,-2.019 -0.562,-1.641 -0.567,-1.379 -0.562,-1.187 -0.567,-1.032 -0.562,-0.906 -0.567,-0.801 -0.562,-0.715 -0.567,-0.636 -0.566,-0.571 -0.562,-0.515 -0.567,-0.457 -0.562,-0.414 -0.567,-0.375 -0.562,-0.332 -0.567,-0.301 -0.562,-0.266 -0.567,-0.242 -0.562,-0.211 -0.566,-0.187 -0.567,-0.164 -0.562,-0.141 -0.567,-0.125 -0.562,-0.102 -0.567,-0.086 -0.562,-0.066 -0.567,-0.051 -0.562,-0.035 -0.567,-0.019 -0.566,-0.004 -0.562,0.011 -0.567,0.024 -0.562,0.039 -0.567,0.055 -0.562,0.07 -0.567,0.082 -0.562,0.098 -0.567,0.113 -0.562,0.129 -0.566,0.144 -0.567,0.164 -0.562,0.176 -0.567,0.199 -0.562,0.219 -0.567,0.234 -0.562,0.262 -0.567,0.281 -0.562,0.309 -0.566,0.336 -0.563,0.363 -0.566,0.395 -0.567,0.433 -0.562,0.469 -0.567,0.508 -0.562,0.555 -0.567,0.609 -0.562,0.664 -0.567,0.731 -0.562,0.8 -0.566,0.887 -0.563,0.988 -0.566,1.102 -0.567,1.242 -0.562,1.418 -0.567,1.641 -0.562,1.949 -0.567,-1.867 -0.562,-1.563 -0.566,-1.344 -0.563,-1.171 -0.566,-1.04 -0.563,-0.921 -0.566,-0.829 -0.567,-0.746 -0.562,-0.675 -0.567,-0.614 -0.562,-0.558 -0.566,-0.512 -0.563,-0.465 -0.566,-0.43 -0.563,-0.39 -0.566,-0.36 -0.563,-0.332 -0.566,-0.304 -0.567,-0.278 -0.562,-0.257 -0.567,-0.239 -0.562,-0.218 -0.566,-0.204 -0.563,-0.183 -0.566,-0.172 -0.563,-0.156 -0.566,-0.149 -0.563,-0.133 -0.566,-0.121 -0.567,-0.113 -0.562,-0.101 -0.566,-0.098 -0.563,-0.086 -0.566,-0.078 -0.563,-0.074 -0.566,-0.067 -0.563,-0.058 -0.566,-0.055 -0.563,-0.051 -0.566,-0.043 -0.566,-0.039 -0.563,-0.035 -0.566,-0.035 -0.563,-0.028 -0.566,-0.023 -0.563,-0.023 -0.566,-0.016 -0.563,-0.02 -0.566,-0.011 -0.563,-0.012 -1.132,-0.016 -0.563,-0.004 -0.566,-0.003 -1.129,0 -0.563,0.003 -0.566,0.004 -0.563,0.004 -0.566,0.008 -0.563,0.004 -0.566,0.008 -0.566,0.012 -0.563,0.007 -0.566,0.012 -0.563,0.012 -0.566,0.015 -0.563,0.012 -0.566,0.016 -0.563,0.011 -0.566,0.016 -0.562,0.016 -0.567,0.015 -0.566,0.02 -0.563,0.015 -0.566,0.02 -0.563,0.016 -0.566,0.019 -0.563,0.02 -0.566,0.019 -0.563,0.02 -0.566,0.019 -0.562,0.02 -1.133,0.039 -0.563,0.023 -0.566,0.02 -0.563,0.019 -0.566,0.024 -0.563,0.019 -0.566,0.024 -0.562,0.019 -0.567,0.024 -0.562,0.023 -0.567,0.02 -0.566,0.023 -0.563,0.024 -0.566,0.023 -0.563,0.02 -0.566,0.023 -0.562,0.023 -0.567,0.024 -0.562,0.023 -0.567,0.024 -0.562,0.023 -1.133,0.047 -0.563,0.024 -0.566,0.023 -0.563,0.023 -0.566,0.024 -0.562,0.023 -0.567,0.024 -0.562,0.023 -1.133,0.047 -0.563,0.023 -0.566,0.024 -0.563,0.027 -0.566,0.024 -0.562,0.023 -0.567,0.024 -0.562,0.027 -0.567,0.023 -0.562,0.024 -0.567,0.027 -0.566,0.024 -0.563,0.023 -0.566,0.027 -0.562,0.024 -0.567,0.027 -0.562,0.024 -0.567,0.027 -0.562,0.027 -0.567,0.024 -0.562,0.027 -1.133,0.055 -0.563,0.023 -0.566,0.027 -0.562,0.028 -0.567,0.027 -0.562,0.031 -0.567,0.028 -0.562,0.027 -0.567,0.027 -0.562,0.032 -0.567,0.031 -0.566,0.027 -0.562,0.032 -0.567,0.031 -0.562,0.031 -0.567,0.031 -0.562,0.035 -0.567,0.032 -0.562,0.035 -0.567,0.035 -0.562,0.035 -0.566,0.035 -0.567,0.039 -0.562,0.039 -0.567,0.04 -0.562,0.039 -0.567,0.043 -0.562,0.043 -0.567,0.046 -0.562,0.043 -0.567,0.051 -0.562,0.047 -0.566,0.055 -0.567,0.05 -0.562,0.059 -0.567,0.055 -0.562,0.062 -0.567,0.063 -0.562,0.066 -0.567,0.07 -0.562,0.071 -0.566,0.078 -0.563,0.078 -0.566,0.086 -0.567,0.09 -0.562,0.094 -0.567,0.097 -0.562,0.106 -0.567,0.109 -0.562,0.117 -0.566,0.125 -0.563,0.133 -0.566,0.141 -0.563,0.148 -0.566,0.156 -0.567,0.172 -0.562,0.18 -0.567,0.191 -0.562,0.207 -0.567,0.223 -0.562,0.234 -0.566,0.254 -0.563,0.274 -0.566,0.293 -0.563,0.312 -0.566,0.34 -0.567,0.367 -0.562,0.395 -0.567,0.426 -0.562,0.464 -0.566,0.504 -0.563,0.551 -0.566,0.598 -0.563,0.652 -0.566,0.719 -0.563,0.793 -0.566,0.875 0,44.48 0.566,0.832 0.563,0.75 0.566,0.676 0.563,0.613 0.566,0.559 0.563,0.504 0.566,0.465 0.562,0.422 0.567,0.382 0.562,0.356 0.567,0.324 0.566,0.297 0.563,0.273 0.566,0.25 0.563,0.231 0.566,0.211 0.562,0.195 0.567,0.18 0.562,0.164 0.567,0.148 0.562,0.141 0.567,0.129 0.566,0.113 0.563,0.11 0.566,0.097 0.563,0.09 0.566,0.082 0.562,0.078 0.567,0.067 0.562,0.062 0.567,0.059 0.562,0.05 0.567,0.047 0.566,0.043 0.563,0.039 0.566,0.036 0.562,0.031 0.567,0.027 0.562,0.024 0.567,0.023 0.562,0.02 0.567,0.015 0.562,0.012 0.567,0.015 0.566,0.008 0.562,0.008 0.567,0.008 0.562,0.004 0.567,0.004 1.691,0 0.567,-0.004 0.562,0 0.567,-0.004 0.566,-0.008 0.562,-0.004 0.567,-0.008 0.562,-0.007 0.567,-0.008 0.562,-0.008 0.567,-0.012 0.562,-0.008 0.567,-0.011 0.562,-0.012 1.133,-0.023 0.562,-0.012 0.567,-0.012 0.562,-0.012 0.567,-0.015 0.562,-0.012 0.567,-0.016 0.562,-0.011 0.566,-0.016 0.563,-0.016 0.566,-0.011 0.567,-0.016 0.562,-0.016 0.567,-0.015 0.562,-0.016 0.567,-0.015 0.562,-0.016 0.567,-0.016 0.562,-0.015 0.566,-0.016 0.563,-0.019 1.133,-0.032 0.562,-0.015 0.567,-0.02 0.562,-0.015 0.567,-0.016 0.562,-0.02 0.566,-0.015 0.563,-0.016 0.566,-0.019 0.563,-0.016 0.566,-0.02 0.567,-0.015 0.562,-0.02 0.567,-0.015 0.562,-0.02 0.566,-0.015 0.563,-0.02 0.566,-0.016 0.563,-0.019 0.566,-0.02 0.567,-0.015 0.562,-0.02 0.567,-0.019 0.562,-0.016 0.567,-0.02 0.562,-0.019 0.566,-0.016 0.563,-0.019 0.566,-0.02 0.563,-0.019 1.133,-0.039 0.562,-0.02 0.567,-0.019 0.562,-0.02 0.566,-0.019 0.563,-0.02 0.566,-0.02 0.563,-0.019 0.566,-0.02 0.563,-0.023 0.566,-0.02 0.567,-0.023 0.562,-0.02 0.566,-0.023 0.563,-0.02 0.566,-0.023 0.563,-0.023 0.566,-0.024 0.563,-0.023 0.566,-0.024 0.563,-0.023 0.566,-0.024 0.567,-0.027 0.562,-0.023 0.566,-0.028 0.563,-0.027 0.566,-0.027 0.563,-0.028 0.566,-0.031 0.563,-0.031 0.566,-0.028 0.563,-0.031 0.566,-0.035 0.566,-0.031 0.563,-0.035 0.566,-0.036 0.563,-0.039 0.566,-0.039 0.563,-0.039 0.566,-0.043 0.563,-0.043 0.566,-0.043 0.563,-0.047 1.132,-0.101 0.563,-0.051 0.566,-0.058 0.563,-0.059 0.566,-0.059 0.563,-0.066 0.566,-0.066 0.563,-0.071 0.566,-0.074 0.563,-0.078 0.566,-0.082 0.566,-0.09 0.563,-0.09 0.566,-0.097 0.563,-0.106 0.566,-0.109 0.563,-0.114 0.566,-0.125 0.563,-0.129 0.566,-0.136 0.562,-0.149 0.567,-0.156 0.566,-0.168 0.563,-0.176 0.566,-0.187 0.563,-0.203 0.566,-0.215 0.563,-0.231 0.566,-0.246 0.562,-0.261 0.567,-0.282 0.562,-0.304 0.567,-0.325 0.566,-0.351 0.563,-0.375 0.566,-0.406 0.563,-0.438 0.566,-0.473 0.563,-0.511 0.566,-0.555 0.562,-0.605 0.567,-0.661 0.562,-0.722 0.567,-0.793 0.566,-0.875 0.563,-0.973 0.566,-1.082 0.563,-1.223 0.566,-1.39 0.562,-1.613 0.567,-1.915 0.562,1.872 0.567,1.562 0.562,1.336 0.567,1.16 0.566,1.024 0.563,0.902 0.566,0.809 0.562,0.718 0.567,0.649 0.562,0.582 0.567,0.523 0.562,0.473 0.567,0.426 0.562,0.382 0.567,0.348 0.566,0.309 0.563,0.277 0.566,0.246 0.562,0.219 0.567,0.195 0.562,0.168 0.567,0.145 0.562,0.125 0.567,0.101 0.562,0.086 0.567,0.067 0.566,0.046 0.562,0.028 0.567,0.012 0.562,-0.004 0.567,-0.02 0.562,-0.039 0.567,-0.051 0.562,-0.07 0.567,-0.086 0.562,-0.102 0.566,-0.121 0.567,-0.136 0.562,-0.153 0.567,-0.175 0.562,-0.192 0.567,-0.211 0.562,-0.23 0.567,-0.254 0.562,-0.278 0.567,-0.3 0.566,-0.328 0.562,-0.356 0.567,-0.387 0.562,-0.418 0.567,-0.449 0.562,-0.492 0.567,-0.531 0.562,-0.578 0.567,-0.629 0.562,-0.684 0.566,-0.746 0.567,-0.82 0.562,-0.899 0.567,-0.988 0.562,-1.102 0.567,-1.23 0.562,-1.391 0.567,-1.59 0.562,-1.855 0.566,-2.238 0.563,2.07 0.566,1.68 0.567,1.41 0.562,1.203 0.567,1.039 0.562,0.902 0.567,0.789 0.562,0.692 0.567,0.601 0.562,0.524 0.566,0.457 0.563,0.391 0.566,0.332 0.567,0.281 0.562,0.226 0.567,0.18 0.562,0.133 0.567,0.086 0.562,0.047 0.566,0.004 0.563,-0.039 0.566,-0.079 0.563,-0.121 0.566,-0.164 0.567,-0.207 0.562,-0.246 0.567,-0.297 0.562,-0.343 0.566,-0.391 0.563,-0.445 0.566,-0.504 0.563,-0.567 0.566,-0.633 0.563,-0.707 0.566,-0.789 0.567,-0.882 0.562,-0.997 0.567,-1.117 0.562,-1.273 0.566,-1.461 0.563,-1.707 0.566,-2.039 0.563,2.023 0.566,1.688 0.563,1.449 0.566,1.266 0.567,1.121 0.562,0.996 0.566,0.898 0.563,0.813 0.566,0.738 0.563,0.672 0.566,0.613 0.563,0.563 0.566,0.515 0.563,0.477 0.566,0.437 0.566,0.403 0.563,0.375 0.566,0.343 0.563,0.321 0.566,0.297 0.563,0.273 0.566,0.254 0.563,0.238 0.566,0.219 0.563,0.203 0.566,0.192 0.566,0.175 0.563,0.164 0.566,0.153 0.563,0.14 0.566,0.133 0.563,0.121 0.566,0.114 0.563,0.105 0.566,0.102 0.563,0.089 0.566,0.086 0.566,0.082 0.563,0.075 0.566,0.07 0.563,0.062 0.566,0.063 0.563,0.055 0.566,0.054 0.563,0.047 0.566,0.047 0.562,0.043 1.133,0.078 0.563,0.035 0.566,0.035 0.563,0.032 0.566,0.031 0.563,0.027 0.566,0.032 0.563,0.023 0.566,0.027 0.562,0.024 0.567,0.027 0.566,0.024 0.563,0.023 0.566,0.023 0.563,0.024 0.566,0.023 0.563,0.024 0.566,0.023 0.562,0.027 0.567,0.024 0.562,0.027 0.567,0.028 0.566,0.031 0.563,0.027 0.566,0.035 0.563,0.032 0.566,0.035 0.562,0.039 0.567,0.039 0.562,0.039 1.133,0.094 0.563,0.05 0.566,0.051 0.563,0.059 0.566,0.062 0.563,0.063 0.566,0.07 0.562,0.07 0.567,0.079 0.562,0.086 0.567,0.085 0.566,0.094 0.563,0.102 0.566,0.105 0.563,0.114 0.566,0.121 0.562,0.129 0.567,0.136 0.562,0.145 0.567,0.152 0.562,0.164 0.567,0.172 0.566,0.184 0.563,0.195 0.566,0.207 0.562,0.215 0.567,0.23 0.562,0.246 0.567,0.258 0.562,0.274 0.567,0.289 0.562,0.304 0.567,0.321 0.566,0.34 0.563,0.355 0.566,0.379 0.562,0.394 0.567,0.418 0.562,0.442 0.567,0.461 0.562,0.488 0.567,0.508 0.562,0.539 0.567,0.562 0.566,0.59 0.562,0.621 0.567,0.653 0.562,0.679 0,-97.425 z"
   style="fill:#bde8ff;fill-opacity:1;fill-rule:nonzero;stroke:none"
   id="path174" /><text
   transform="matrix(1,0,0,-1,47.8125,57.33686)"
   id="text176"><tspan
     style="fill:#6c606b;fill-opacity:1;fill-rule:nonzero;stroke:none;font-family:Tahoma;font-variant:normal;font-weight:normal;font-size:8;writing-mode:lr;-inkscape-font-specification:Tahoma"
     x="0"
     y="0"
     id="tspan178">0</tspan><tspan
     style="fill:#6c606b;fill-opacity:1;fill-rule:nonzero;stroke:none;font-family:Tahoma;font-variant:normal;font-weight:normal;font-size:8;writing-mode:lr;-inkscape-font-specification:Tahoma"
     x="-9 -4.64 -0.28"
     y="-51.121096"
     sodipodi:role="line"
     id="tspan180">100</tspan><tspan
     style="fill:#6c606b;fill-opacity:1;fill-rule:nonzero;stroke:none;font-family:Tahoma;font-variant:normal;font-weight:normal;font-size:8;writing-mode:lr;-inkscape-font-specification:Tahoma"
     x="-9 -4.64 -0.28"
     y="-102.24219"
     sodipodi:role="line"
     id="tspan182">200</tspan><tspan
     style="fill:#6c606b;fill-opacity:1;fill-rule:nonzero;stroke:none;font-family:Tahoma;font-variant:normal;font-weight:normal;font-size:8;writing-mode:lr;-inkscape-font-specification:Tahoma"
     x="-9 -4.64 -0.28"
     y="-153.36329"
     sodipodi:role="line"
     id="tspan184">300</tspan></text>


<text
   transform="matrix(0,1,1,0,23.792969,112.51655)"
   id="text186"><tspan
     style="fill:#564a55;fill-opacity:1;fill-rule:nonzero;stroke:none;font-family:Tahoma;font-variant:normal;font-weight:normal;font-size:11;writing-mode:lr;-inkscape-font-specification:Tahoma"
     x="0 6.589 15.818 21.89 24.398 26.906 30.58 36.707 42.779"
     y="0"
     sodipodi:role="line"
     id="tspan188">Amplitude</tspan></text>


<text
   transform="matrix(1,0,0,-1,107.97656,227.03608)"
   id="text190"><tspan
     style="fill:#564a55;fill-opacity:1;fill-rule:nonzero;stroke:none;font-family:Tahoma;font-variant:normal;font-weight:normal;font-size:11;writing-mode:lr;-inkscape-font-specification:Tahoma"
     x="0 6.82 12.606 16.104 18.612 24.398 29.469 33.143 35.651 41.613 47.74 51.172 55.374 61.369 64.691 70.686 76.681 80.003 85.998 91.993 96.195 99.517 102.949 109.769 115.555 120.461 126.423 128.931 135.058 138.732 141.24 147.202 153.329 157.212 160.644 166.639 169.961 175.956 181.951"
     y="0"
     sodipodi:role="line"
     id="tspan192">Reflection [0,30,38]. Resolution: 1.61A</tspan></text>


<path
   d="m 61.883,166.606 253.519,0"
   style="fill:none;stroke:#00e5b2;stroke-opacity:1;stroke-width:2.0;stroke-linecap:butt;stroke-linejoin:miter;stroke-miterlimit:10;stroke-dasharray:none"
   id="path172" /></g><g
       id="g150"><g
         id="g152"
         clip-path="url(#clipPath154)"><path
           d="m 219.98,219.368 0,-164.703"
           style="fill:none;stroke:#d4ca3a;stroke-opacity:1;stroke-width:1.0;stroke-linecap:butt;stroke-linejoin:miter;stroke-miterlimit:10;stroke-dasharray:none"
           id="path158" /></g></g><g
       id="g160"><g
         id="g162"
         clip-path="url(#clipPath164)"><path
           d="m 243.695,219.368 0,-164.703"
           style="fill:none;stroke:#d4ca3a;stroke-opacity:1;stroke-width:1.0;stroke-linecap:butt;stroke-linejoin:miter;stroke-miterlimit:10;stroke-dasharray:none"
           id="path168" /></g></g><g
       id="g140"><g
         id="g142"
         clip-path="url(#clipPath144)"><path
           d="m 182.715,219.368 0,-164.703"
           style="fill:none;stroke:#d4ca3a;stroke-opacity:1;stroke-width:1.0;stroke-linecap:butt;stroke-linejoin:miter;stroke-miterlimit:10;stroke-dasharray:none"
           id="path148" /></g></g><g
       id="g136"><path
         d="m 61.883,168.618 0.566,-0.019 0.563,-0.02 0.566,-0.023 0.563,-0.02 0.566,-0.019 0.563,-0.024 0.566,-0.019 0.562,-0.024 0.567,-0.019 0.562,-0.02 0.567,-0.023 0.566,-0.02 0.563,-0.019 0.566,-0.024 0.563,-0.019 0.566,-0.02 0.562,-0.023 0.567,-0.02 0.562,-0.019 0.567,-0.024 0.562,-0.019 0.567,-0.02 0.566,-0.023 0.563,-0.02 0.566,-0.023 0.563,-0.02 0.566,-0.019 0.562,-0.024 0.567,-0.019 0.562,-0.02 0.567,-0.023 0.562,-0.02 0.567,-0.019 0.566,-0.024 0.563,-0.019 0.566,-0.02 0.562,-0.023 0.567,-0.02 0.562,-0.019 0.567,-0.024 0.562,-0.019 0.567,-0.02 0.562,-0.023 1.133,-0.039 0.562,-0.024 0.567,-0.019 0.562,-0.02 0.567,-0.023 0.562,-0.02 0.567,-0.019 0.562,-0.024 0.567,-0.019 0.562,-0.02 0.567,-0.023 0.566,-0.02 0.562,-0.019 0.567,-0.02 0.562,-0.023 0.567,-0.02 0.562,-0.019 0.567,-0.024 0.562,-0.019 0.567,-0.02 0.562,-0.023 1.133,-0.039 0.562,-0.024 0.567,-0.019 0.562,-0.02 0.567,-0.023 0.562,-0.02 0.567,-0.019 0.562,-0.02 0.566,-0.023 0.563,-0.02 0.566,-0.019 0.567,-0.024 0.562,-0.019 0.567,-0.02 0.562,-0.023 0.567,-0.02 0.562,-0.019 0.567,-0.02 0.562,-0.023 0.566,-0.02 0.563,-0.019 0.566,-0.024 0.567,-0.019 0.562,-0.02 0.567,-0.023 0.562,-0.02 0.567,-0.019 0.562,-0.02 0.566,-0.023 0.563,-0.02 0.566,-0.02 0.563,-0.023 1.133,-0.039 0.562,-0.02 0.567,-0.023 0.562,-0.02 0.566,-0.019 0.563,-0.023 0.566,-0.02 0.563,-0.02 0.566,-0.023 0.567,-0.02 0.562,-0.019 0.567,-0.02 0.562,-0.023 0.567,-0.02 0.562,-0.019 0.566,-0.024 0.563,-0.019 0.566,-0.02 0.563,-0.019 0.566,-0.024 0.567,-0.019 0.562,-0.02 0.567,-0.023 0.562,-0.02 0.566,-0.019 0.563,-0.024 0.566,-0.019 0.563,-0.02 0.566,-0.019 0.563,-0.024 1.133,-0.039 0.562,-0.023 0.566,-0.02 0.563,-0.019 0.566,-0.024 0.563,-0.019 0.566,-0.02 0.563,-0.019 0.566,-0.024 0.563,-0.019 0.566,-0.02 0.567,-0.023 0.562,-0.02 0.566,-0.019 0.563,-0.024 0.566,-0.019 0.563,-0.02 0.566,-0.023 0.563,-0.02 0.566,-0.019 0.563,-0.024 0.566,-0.019 0.566,-0.024 0.563,-0.019 0.566,-0.02 0.563,-0.023 0.566,-0.02 0.563,-0.019 0.566,-0.024 0.563,-0.019 0.566,-0.024 0.563,-0.019 0.566,-0.02 0.566,-0.023 0.563,-0.02 0.566,-0.023 0.563,-0.02 0.566,-0.019 0.563,-0.024 0.566,-0.019 0.563,-0.023 0.566,-0.02 0.563,-0.023 0.566,-0.02 0.566,-0.023 0.563,-0.02 0.566,-0.023 0.563,-0.02 0.566,-0.023 0.563,-0.02 0.566,-0.023 0.563,-0.02 0.566,-0.023 0.562,-0.02 1.133,-0.047 0.563,-0.019 0.566,-0.024 0.563,-0.023 0.566,-0.02 0.563,-0.023 0.566,-0.024 0.562,-0.019 0.567,-0.023 0.562,-0.024 0.567,-0.019 0.566,-0.024 0.563,-0.023 0.566,-0.024 0.563,-0.023 0.566,-0.024 0.563,-0.019 0.566,-0.024 0.562,-0.023 0.567,-0.023 0.562,-0.024 1.133,-0.047 0.563,-0.023 0.566,-0.024 0.563,-0.023 0.566,-0.027 0.562,-0.024 0.567,-0.023 0.562,-0.039 0.567,-0.039 0.562,-0.043 1.133,-0.079 0.563,-0.043 0.566,-0.039 0.562,-0.043 0.567,-0.039 0.562,-0.043 0.567,-0.039 0.562,-0.043 0.567,-0.043 0.562,-0.043 1.133,-0.085 0.563,-0.043 0.566,-0.043 0.562,-0.043 0.567,-0.047 0.562,-0.043 0.567,-0.047 0.562,-0.047 0.567,-0.047 0.562,-0.047 0.567,-0.051 0.566,-0.046 0.562,-0.051 0.567,-0.051 0.562,-0.051 0.567,-0.051 0.562,-0.054 0.567,-0.051 0.562,-0.055 0.567,-0.058 0.562,-0.055 1.133,-0.117 0.562,-0.059 0.567,-0.062 0.562,-0.063 0.567,-0.062 0.562,-0.063 0.567,-0.066 0.562,-0.067 1.133,-0.14 0.562,-0.07 0.567,-0.075 0.562,-0.074 0.567,-0.078 0.562,-0.078 0.567,-0.078 0.562,-0.082 0.567,-0.086 0.562,-0.086 0.566,-0.086 0.567,-0.09 0.562,-0.094 0.567,-0.093 0.562,-0.098 0.567,-0.098 0.562,-0.105 0.567,-0.102 0.562,-0.109 0.566,-0.11 0.563,-0.054 0.566,-0.051 0.567,-0.055 0.562,-0.054 0.567,-0.055 0.562,-0.051 0.567,-0.055 0.562,-0.054 0.567,-0.055 0.562,-0.055 0.566,-0.058 0.563,-0.055 0.566,-0.055 0.567,-0.058 0.562,-0.059 0.567,-0.054 0.562,-0.059 0.567,-0.063 0.562,-0.058 0.566,-0.059 0.563,-0.062 0.566,-0.063 0.563,-0.062 0.566,-0.067 0.567,-0.062 0.562,-0.067 0.567,-0.066 0.562,-0.07 0.566,-0.067 0.563,-0.07 0.566,-0.074 0.563,-0.071 0.566,-0.074 0.563,-0.078 0.566,-0.074 0.567,-0.078 0.562,-0.082 0.567,-0.082 0.562,-0.082 0.566,-0.086 0.563,-0.086 0.566,-0.09 0.563,-0.02 0.566,-0.019 0.563,-0.016 1.133,-0.039 0.562,-0.019 0.566,-0.02 0.563,-0.015 0.566,-0.02 0.563,-0.02 0.566,-0.019 0.563,-0.02 0.566,-0.015 0.563,-0.02 1.132,-0.039 0.563,-0.019 0.566,-0.016 0.563,-0.02 0.566,-0.019 0.563,-0.02 0.566,-0.019 0.563,-0.016 0.566,-0.019 0.563,-0.02 0.566,-0.019 0.566,-0.016 0.563,-0.019 0.566,-0.02 0.563,-0.02 0.566,-0.019 0.563,-0.016 0.566,-0.019 0.563,-0.02 0.566,-0.019 0.563,-0.02 0.566,-0.015 0.566,-0.02 0.563,-0.02 0.566,-0.019 0.563,-0.016 0.566,-0.019 0.563,-0.02 0.566,-0.019 0.563,-0.016 0.566,-0.019 0.562,-0.02 1.133,-0.039 0.563,-0.016 0.566,-0.019 0.563,-0.02 0.566,-0.019 0.563,-0.016 0.566,-0.019 0.563,-0.02 0.566,-0.019 0.562,-0.016 1.133,-0.039 0.563,-0.02 0.566,-0.015 0.563,-0.02 0.566,-0.019 0.563,-0.02 0.566,-0.016 0.562,-0.019 0.567,-0.02 0.562,-0.019 0.567,-0.016 0.566,-0.019 0.563,-0.02 0.566,-0.019 0.563,-0.016 0.566,-0.019 0.562,-0.02 0.567,-0.02 0.562,-0.015 1.133,-0.039 0.563,-0.02 0.566,-0.015 0.563,-0.02 0.566,-0.019 0.563,-0.02 0.566,-0.016 0.562,-0.019 0.567,-0.02 0.562,-0.015 1.133,-0.039 0.563,-0.02 0.566,-0.016 0.563,-0.019 0.566,-0.02 0.562,-0.019 0.567,-0.016 0.562,-0.019 0.567,-0.02 0.562,-0.015 1.133,-0.039 0.563,-0.02 0.566,-0.016 0.562,-0.019 0.567,-0.02 0.562,-0.015 0.567,-0.02 0.562,-0.019 0.567,-0.02 0.562,-0.016 1.133,-0.039 0.563,-0.015 0.566,-0.02 0.562,-0.019 0.567,-0.016 0.562,-0.019 0.567,-0.02 0.562,-0.02 0.567,-0.015 0.562,-0.02 0.567,-0.019 0.566,-0.016 0.562,-0.019 0.567,-0.02 0.562,-0.016"
         style="fill:none;stroke:#00bfff;stroke-opacity:1;stroke-width:2.0;stroke-linecap:butt;stroke-linejoin:miter;stroke-miterlimit:10;stroke-dasharray:none"
         id="path138" /></g></g></svg>