<?xml version="1.0" encoding="UTF-8" standalone="no"?>
<!-- Created with Inkscape (http://www.inkscape.org/) -->

<svg
   xmlns:dc="http://purl.org/dc/elements/1.1/"
   xmlns:cc="http://creativecommons.org/ns#"
   xmlns:rdf="http://www.w3.org/1999/02/22-rdf-syntax-ns#"
   xmlns:svg="http://www.w3.org/2000/svg"
   xmlns="http://www.w3.org/2000/svg"
   xmlns:sodipodi="http://sodipodi.sourceforge.net/DTD/sodipodi-0.dtd"
   xmlns:inkscape="http://www.inkscape.org/namespaces/inkscape"
   id="svg2"
   version="1.1"
   inkscape:version="0.48.5 r10040"
   width="566.92913"
   height="318.89764"
   xml:space="preserve"
   sodipodi:docname="SmoothedPlot_0,49,27_res1.svg"><metadata
     id="metadata8"><rdf:RDF><cc:Work
         rdf:about=""><dc:format>image/svg+xml</dc:format><dc:type
           rdf:resource="http://purl.org/dc/dcmitype/StillImage" /><dc:title></dc:title></cc:Work></rdf:RDF></metadata><defs
     id="defs6"><clipPath
       clipPathUnits="userSpaceOnUse"
       id="clipPath40"><path
         d="m 55.648,61.118 293.656,0 0,-2 -293.656,0 0,2 z"
         id="path42" /></clipPath><clipPath
       clipPathUnits="userSpaceOnUse"
       id="clipPath50"><path
         d="m 55.648,92.118 293.656,0 0,-2 -293.656,0 0,2 z"
         id="path52" /></clipPath><clipPath
       clipPathUnits="userSpaceOnUse"
       id="clipPath60"><path
         d="m 55.648,122.118 293.656,0 0,-1 -293.656,0 0,1 z"
         id="path62" /></clipPath><clipPath
       clipPathUnits="userSpaceOnUse"
       id="clipPath70"><path
         d="m 55.648,153.118 293.656,0 0,-2 -293.656,0 0,2 z"
         id="path72" /></clipPath><clipPath
       clipPathUnits="userSpaceOnUse"
       id="clipPath80"><path
         d="m 55.648,184.118 293.656,0 0,-2 -293.656,0 0,2 z"
         id="path82" /></clipPath><clipPath
       clipPathUnits="userSpaceOnUse"
       id="clipPath90"><path
         d="m 55.648,214.118 293.656,0 0,-1 -293.656,0 0,1 z"
         id="path92" /></clipPath><clipPath
       clipPathUnits="userSpaceOnUse"
       id="clipPath100"><path
         d="m 61,219.368 1,0 0,-164.703 -1,0 0,164.703 z"
         id="path102" /></clipPath><clipPath
       clipPathUnits="userSpaceOnUse"
       id="clipPath110"><path
         d="m 117,219.368 2,0 0,-164.703 -2,0 0,164.703 z"
         id="path112" /></clipPath><clipPath
       clipPathUnits="userSpaceOnUse"
       id="clipPath120"><path
         d="m 173,219.368 2,0 0,-164.703 -2,0 0,164.703 z"
         id="path122" /></clipPath><clipPath
       clipPathUnits="userSpaceOnUse"
       id="clipPath130"><path
         d="m 230,219.368 1,0 0,-164.703 -1,0 0,164.703 z"
         id="path132" /></clipPath><clipPath
       clipPathUnits="userSpaceOnUse"
       id="clipPath140"><path
         d="m 286,219.368 2,0 0,-164.703 -2,0 0,164.703 z"
         id="path142" /></clipPath><clipPath
       clipPathUnits="userSpaceOnUse"
       id="clipPath150"><path
         d="m 343,219.368 1,0 0,-164.703 -1,0 0,164.703 z"
         id="path152" /></clipPath><clipPath
       clipPathUnits="userSpaceOnUse"
       id="clipPath164"><path
         d="m 193,219.368 3,0 0,-164.703 -3,0 0,164.703 z"
         id="path166" /></clipPath><clipPath
       clipPathUnits="userSpaceOnUse"
       id="clipPath174"><path
         d="m 202,219.368 3,0 0,-164.703 -3,0 0,164.703 z"
         id="path176" /></clipPath><clipPath
       clipPathUnits="userSpaceOnUse"
       id="clipPath184"><path
         d="m 285,219.368 2,0 0,-164.703 -2,0 0,164.703 z"
         id="path186" /></clipPath><clipPath
       clipPathUnits="userSpaceOnUse"
       id="clipPath194"><path
         d="m 294,219.368 2,0 0,-164.703 -2,0 0,164.703 z"
         id="path196" /></clipPath></defs><sodipodi:namedview
     pagecolor="#ffffff"
     bordercolor="#666666"
     borderopacity="1"
     objecttolerance="10"
     gridtolerance="10"
     guidetolerance="10"
     inkscape:pageopacity="0"
     inkscape:pageshadow="2"
     inkscape:window-width="1280"
     inkscape:window-height="961"
     id="namedview4"
     showgrid="false"
     inkscape:zoom="1.4146389"
     inkscape:cx="271.06683"
     inkscape:cy="195.3022"
     inkscape:window-x="1592"
     inkscape:window-y="-8"
     inkscape:window-maximized="1"
     inkscape:current-layer="g200" /><g
     id="g10"
     inkscape:groupmode="layer"
     inkscape:label="SmoothedPlot_0,49,27_res1"
     transform="matrix(1.25,0,0,-1.25,0,318.89764)"><g
       id="g12"><text
   transform="matrix(1,0,0,-1,165.97656,21.914985)"
   id="text14"><tspan
     style="fill:#564a55;fill-opacity:1;fill-rule:nonzero;stroke:none;font-family:Tahoma;font-variant:normal;font-weight:normal;font-size:11;writing-mode:lr;-inkscape-font-specification:Tahoma"
     x="0 4.103 13.332 19.096 25.168 30.954 34.386 41.723 47.85 57.079 63.151 68.937"
     y="0"
     sodipodi:role="line"
     id="tspan16">Image Number</tspan></text>

<text
   transform="matrix(1,0,0,-1,58.816406,43.832954)"
   id="text18"><tspan
     style="fill:#6c606b;fill-opacity:1;fill-rule:nonzero;stroke:none;font-family:Tahoma;font-variant:normal;font-weight:normal;font-size:8;writing-mode:lr;-inkscape-font-specification:Tahoma"
     x="0 51.96 56.32 60.68 108.429688 112.789688 117.149688 164.869688 169.229688 173.589688 221.355472 225.715472 230.075472 277.795472 282.155472 286.515472"
     y="0"
     sodipodi:role="line"
     id="tspan20">0100200300400500</tspan></text>



<text
   style="font-size:12px"
   y="-131.93416"
   x="359.052"
   id="text22"
   transform="scale(1,-1)"><tspan
     style="font-size:8px;font-variant:normal;font-weight:normal;writing-mode:lr-tb;fill:#4c404b;fill-opacity:1;fill-rule:nonzero;stroke:none;font-family:Tahoma;-inkscape-font-specification:Tahoma"
     x="359.052 363.508 370.22 374.556 378.892 381.564 386.02002 390.228 394.64401 397.14001 401.34799 404.91602 407.58801 409.41202 416.12399 420.31601 422.98801"
     y="-131.93416"
     sodipodi:role="line"
     id="tspan24">Smoothed estimate</tspan><tspan
     style="font-size:8px;font-variant:normal;font-weight:normal;writing-mode:lr-tb;fill:#4c404b;fill-opacity:1;fill-rule:nonzero;stroke:none;font-family:Tahoma;-inkscape-font-specification:Tahoma"
     x="359.052 364.70801 369.12399 372.69202 376.89999 379.78 383.76401 387.95599 390.62799 392.452 396.78799 401.24402 403.73999 409.396 413.08401 416.772 421.228 424.108 428.31601 432.772 436.45999"
     y="-121.65292"
     sodipodi:role="line"
     id="tspan26">Observation Occurence</tspan><tspan
     style="font-size:8px;font-variant:normal;font-weight:normal;writing-mode:lr-tb;fill:#4c404b;fill-opacity:1;fill-rule:nonzero;stroke:none;font-family:Tahoma;-inkscape-font-specification:Tahoma"
     x="359.052 359.052 359.052 359.052 359.052 359.052 359.052 359.052 364.70801 369.12399 372.69202 376.89999 379.78 383.76401 387.95599 390.62799 392.452 396.78799 401.24402 403.73999 409.396 413.08401 416.772 421.228 424.108 428.31601 432.772 436.45999"
     y="-121.65292 -121.65292 -121.65292 -121.65292 -121.65292 -121.65292 -121.65292 -121.65292"
     sodipodi:role="line"
     id="tspan3869" /></text>
<path
   d="m 351.26148,137.50461 5.141,0 0,-5.141 -5.141,0 0,5.141 z"
   style="fill:#00bfff;fill-opacity:1;fill-rule:nonzero;stroke:none"
   id="path28"
   inkscape:connector-curvature="0" /><path
   d="m 351.26148,127.47877 5.141,0 0,-5.141 -5.141,0 0,5.141 z"
   style="fill:#d4ca3a;fill-opacity:1;fill-rule:nonzero;stroke:none"
   id="path30"
   inkscape:connector-curvature="0" /><text
   style="font-size:12px"
   y="-147.76619"
   x="351.07544"
   id="text32"
   transform="scale(1,-1)"><tspan
     style="font-size:11px;font-variant:normal;font-weight:normal;writing-mode:lr-tb;fill:#362a35;fill-opacity:1;fill-rule:nonzero;stroke:none;font-family:Tahoma;-inkscape-font-specification:Tahoma"
     x="351.07544 357.67545 363.63745 366.14545 372.10745 378.23444 382.19446 385.62643 392.08344 397.86945"
     y="-147.76619"
     sodipodi:role="line"
     id="tspan34">Colour Key</tspan></text>
<path
   inkscape:connector-curvature="0"
   d="m 351.26148,117.45293 5.141,0 0,-5.141 -5.141,0 0,5.141 z"
   style="fill:#00e5b2;fill-opacity:1;fill-rule:nonzero;stroke:none"
   id="path30-1" /><text
   style="font-size:12px"
   y="-112.05175"
   x="359.052"
   id="text22-7"
   transform="scale(1,-1)"><tspan
     style="font-size:8px;font-variant:normal;font-weight:normal;writing-mode:lr-tb;fill:#4c404b;fill-opacity:1;fill-rule:nonzero;stroke:none;font-family:Tahoma;-inkscape-font-specification:Tahoma"
     sodipodi:role="line"
     id="tspan26-0"
     x="359.052"
     y="-112.05175">CTruncate estimate</tspan><tspan
     style="font-size:8px;font-variant:normal;font-weight:normal;writing-mode:lr-tb;fill:#4c404b;fill-opacity:1;fill-rule:nonzero;stroke:none;font-family:Tahoma;-inkscape-font-specification:Tahoma"
     x="359.052 359.052 359.052 359.052 359.052 359.052 359.052 359.052 364.70801 369.12402 372.69202 376.90002 379.78 383.76401 387.95602 390.62802 392.45203 396.78802 401.24402 403.74002 409.39603 413.08401 416.772 421.22803 424.108 428.31601 432.772 436.46002"
     y="-101.7705 -101.7705 -101.7705 -101.7705 -101.7705 -101.7705 -101.7705 -101.7705"
     sodipodi:role="line"
     id="tspan3869-9" /></text>
</g><g
       id="g36"><g
         id="g38"
         clip-path="url(#clipPath40)"><path
           d="m 55.648,60.337 293.657,0"
           style="fill:none;stroke:#d0d0e0;stroke-opacity:1;stroke-width:0.566929;stroke-linecap:butt;stroke-linejoin:miter;stroke-miterlimit:10;stroke-dasharray:1.417323,1.417323;stroke-dashoffset:0"
           id="path44" /></g></g><g
       id="g46"><g
         id="g48"
         clip-path="url(#clipPath50)"><path
           d="m 55.648,91.009 293.657,0"
           style="fill:none;stroke:#d0d0e0;stroke-opacity:1;stroke-width:0.566929;stroke-linecap:butt;stroke-linejoin:miter;stroke-miterlimit:10;stroke-dasharray:1.417323,1.417323;stroke-dashoffset:0"
           id="path54" /></g></g><g
       id="g56"><g
         id="g58"
         clip-path="url(#clipPath60)"><path
           d="m 55.648,121.681 293.657,0"
           style="fill:none;stroke:#d0d0e0;stroke-opacity:1;stroke-width:0.566929;stroke-linecap:butt;stroke-linejoin:miter;stroke-miterlimit:10;stroke-dasharray:1.417323,1.417323;stroke-dashoffset:0"
           id="path64" /></g></g><g
       id="g66"><g
         id="g68"
         clip-path="url(#clipPath70)"><path
           d="m 55.648,152.352 293.657,0"
           style="fill:none;stroke:#d0d0e0;stroke-opacity:1;stroke-width:0.566929;stroke-linecap:butt;stroke-linejoin:miter;stroke-miterlimit:10;stroke-dasharray:1.417323,1.417323;stroke-dashoffset:0"
           id="path74" /></g></g><g
       id="g76"><g
         id="g78"
         clip-path="url(#clipPath80)"><path
           d="m 55.648,183.028 293.657,0"
           style="fill:none;stroke:#d0d0e0;stroke-opacity:1;stroke-width:0.566929;stroke-linecap:butt;stroke-linejoin:miter;stroke-miterlimit:10;stroke-dasharray:1.417323,1.417323;stroke-dashoffset:0"
           id="path84" /></g></g><g
       id="g86"><g
         id="g88"
         clip-path="url(#clipPath90)"><path
           d="m 55.648,213.7 293.657,0"
           style="fill:none;stroke:#d0d0e0;stroke-opacity:1;stroke-width:0.566929;stroke-linecap:butt;stroke-linejoin:miter;stroke-miterlimit:10;stroke-dasharray:1.417323,1.417323;stroke-dashoffset:0"
           id="path94" /></g></g><g
       id="g96"><g
         id="g98"
         clip-path="url(#clipPath100)"><path
           d="m 61.316,219.368 0,-164.703"
           style="fill:none;stroke:#d0d0e0;stroke-opacity:1;stroke-width:0.566929;stroke-linecap:butt;stroke-linejoin:miter;stroke-miterlimit:10;stroke-dasharray:1.417323,1.417323;stroke-dashoffset:0"
           id="path104" /></g></g><g
       id="g106"><g
         id="g108"
         clip-path="url(#clipPath110)"><path
           d="m 117.781,219.368 0,-164.703"
           style="fill:none;stroke:#d0d0e0;stroke-opacity:1;stroke-width:0.566929;stroke-linecap:butt;stroke-linejoin:miter;stroke-miterlimit:10;stroke-dasharray:1.417323,1.417323;stroke-dashoffset:0"
           id="path114" /></g></g><g
       id="g116"><g
         id="g118"
         clip-path="url(#clipPath120)"><path
           d="m 174.246,219.368 0,-164.703"
           style="fill:none;stroke:#d0d0e0;stroke-opacity:1;stroke-width:0.566929;stroke-linecap:butt;stroke-linejoin:miter;stroke-miterlimit:10;stroke-dasharray:1.417323,1.417323;stroke-dashoffset:0"
           id="path124" /></g></g><g
       id="g200"><path
   d="m 315.402,107.446 -0.562,0.227 -0.567,0.219 -0.562,0.218 -0.566,0.215 -0.567,0.211 -0.562,0.211 -0.567,0.207 -0.562,0.203 -0.567,0.203 -0.562,0.2 -0.567,0.199 -0.562,0.195 -0.566,0.191 -0.563,0.192 -0.566,0.187 -0.567,0.184 -0.562,0.184 -0.567,0.183 -0.562,0.176 -0.567,0.18 -0.562,0.171 -0.567,0.176 -0.562,0.168 -0.566,0.168 -0.563,0.168 -1.133,0.328 -0.562,0.16 -0.567,0.161 -0.562,0.156 -0.567,0.156 -0.562,0.152 -0.566,0.153 -0.563,0.148 -0.566,0.149 -0.563,0.144 -0.566,-0.453 -0.567,-0.449 -0.562,-0.449 -0.567,-0.45 -0.562,-0.445 -0.566,-0.445 -0.563,-0.442 -0.566,-0.437 -0.563,-0.438 -0.566,-0.437 -0.563,-0.434 -1.133,-0.859 -0.562,-0.426 -0.567,-0.426 -0.562,-0.422 -0.566,-0.347 -0.563,-0.344 -0.566,-0.344 -0.563,-0.34 -0.566,-0.339 -0.567,-0.336 -0.562,-0.336 -0.567,-0.332 -0.562,-0.328 -0.566,-0.329 -0.563,-0.328 -0.566,-0.324 -0.563,-0.324 -0.566,-0.32 -0.563,-0.317 -0.566,-0.32 -0.567,-0.313 -0.562,-0.312 -0.566,-0.313 -0.563,-0.308 -0.566,-0.309 -0.563,-0.304 -0.566,-0.305 -0.563,-0.305 -0.566,-0.297 -0.563,-0.301 -0.566,-0.296 -0.567,-0.293 -0.562,-0.293 -0.566,-0.293 -0.563,-0.289 -0.566,-0.289 -0.563,-0.286 -0.566,-0.285 -0.563,-0.281 -0.566,-0.281 -0.563,-0.281 -0.566,-0.278 -0.566,-0.273 -0.563,-0.278 -0.566,-0.269 -0.563,-0.274 -0.566,-0.265 -0.563,-0.27 -0.566,-0.265 -0.563,-0.266 -0.566,-0.262 -0.563,-0.261 -1.132,-0.516 -0.563,-0.254 -0.566,-0.254 -0.563,-0.254 -0.566,-0.25 -0.563,-0.25 -0.566,-0.246 -0.563,-0.246 -0.566,-0.246 -0.563,-0.242 -0.566,-0.242 -0.566,-0.239 -0.563,-0.238 -0.566,-0.238 -0.563,-0.235 -0.566,-0.23 -0.563,-0.234 -0.566,-0.231 -0.563,-0.227 -0.566,-0.226 -0.562,-0.227 -1.133,-0.445 -0.563,-0.219 -0.566,-0.218 -0.563,-0.219 -0.566,-0.215 -0.563,-0.211 -0.566,-0.215 -0.562,-0.211 -0.567,-0.207 -0.562,-0.207 -0.567,-0.207 -0.566,-0.203 -0.563,-0.203 -0.566,-0.199 -0.563,-0.2 -0.566,-0.199 -0.563,-0.195 -0.566,-0.195 -0.562,-0.192 -0.567,-0.191 -0.562,-0.192 -0.567,-0.187 -0.566,-0.184 -0.563,-0.187 -0.566,-0.184 -0.563,-0.179 -0.566,-0.18 -0.562,-0.176 -0.567,-0.176 -0.562,-0.176 -0.567,-0.171 -0.562,-0.172 -1.133,-0.336 -0.563,-0.168 -0.566,-0.164 -0.562,-0.16 -0.567,-0.161 -0.562,-0.16 -0.567,-0.156 -0.562,-0.156 -0.567,-0.153 -0.562,-0.152 -1.133,-0.297 -0.563,-0.148 -0.566,-0.145 -0.562,-0.14 -0.567,-0.141 -0.562,-0.141 -0.567,-0.136 -0.562,-0.133 -0.567,-0.133 -0.562,-0.133 -0.567,-0.129 -0.566,-0.125 -0.562,-0.125 -0.567,-0.125 -0.562,-0.121 -0.567,-0.117 -0.562,-0.117 -0.567,-0.113 -0.562,-0.114 -0.567,-0.113 -0.562,-0.105 -1.133,-0.211 -0.562,-0.102 -0.567,-0.098 -0.562,-0.097 -0.567,-0.098 -0.562,-0.09 -0.567,-0.09 -0.562,-0.089 -0.567,-0.086 -0.566,-0.125 -0.562,-0.125 -0.567,-0.121 -0.562,-0.122 -0.567,-0.117 -0.562,-0.117 -0.567,-0.109 -0.562,-0.11 -0.567,-0.109 -0.562,-0.106 -1.133,-0.203 -0.562,-0.097 -0.567,-0.094 -0.562,-0.09 -0.567,-0.09 -0.562,-0.105 -0.567,-0.102 -0.562,-0.097 -0.566,-0.098 -0.563,-0.094 -0.566,-0.094 -0.567,-0.089 -0.562,-0.09 -0.567,-0.086 -0.562,-0.086 -0.567,-0.086 -0.562,-0.082 -0.567,-0.082 -0.562,-0.078 -0.566,-0.075 -0.563,-0.078 -0.566,-0.074 -0.567,-0.07 -0.562,-0.07 -0.567,-0.071 -0.562,-0.066 -0.567,-0.067 -0.562,-0.062 -0.566,-0.067 -0.563,-0.058 -0.566,-0.063 -0.563,-0.058 -0.566,-0.055 -0.567,-0.058 -0.562,-0.051 -0.567,-0.055 -0.562,-0.051 -0.566,-0.051 -0.563,-0.05 -0.566,-0.047 -0.563,-0.043 -0.566,-0.047 -0.563,-0.043 -1.133,-0.086 -0.562,-0.039 -0.567,-0.039 -0.562,-0.035 -0.566,-0.035 -0.563,-0.036 -0.566,-0.035 -0.563,-0.031 -0.566,-0.031 -0.563,-0.031 -0.566,-0.028 -0.567,-0.031 -0.562,-0.023 -0.566,-0.028 -0.563,-0.023 -0.566,-0.024 -0.563,-0.023 -0.566,-0.02 -0.563,-0.019 -0.566,-0.02 -0.563,-0.019 -1.132,-0.031 -0.563,-0.016 -0.566,-0.012 -0.563,-0.012 -0.566,-0.011 -0.563,-0.012 -0.566,-0.008 -0.563,-0.008 -0.566,-0.007 -0.563,-0.004 -0.566,-0.008 -0.566,-0.004 -0.563,0 -0.566,-0.004 -1.692,0 -0.566,0.004 -0.563,0.004 -0.566,0.004 -0.563,0.004 -0.566,0.007 -0.566,0.004 -0.563,0.008 -0.566,0.012 -0.563,0.008 -0.566,0.011 -0.563,0.012 -0.566,0.016 -0.563,0.015 -0.566,0.012 -0.562,0.02 -0.567,0.015 -0.566,0.02 -0.563,0.019 -0.566,0.02 -0.563,0.019 -0.566,0.024 -0.563,0.023 -0.566,0.024 -0.563,0.027 -0.566,0.024 -0.562,0.027 -0.567,0.031 -0.566,0.027 -0.563,0.032 -0.566,0.031 -0.563,0.031 -0.566,0.035 -0.563,0.036 -0.566,0.035 -0.562,0.035 -0.567,0.039 -0.562,0.039 -0.567,0.039 -0.566,0.043 -0.563,0.039 -0.566,0.043 -0.563,0.047 -0.566,0.043 -0.562,0.047 -0.567,0.047 -0.562,0.05 -0.567,0.047 -0.562,0.051 -0.567,0.055 -0.566,0.051 -0.563,0.054 -0.566,0.055 -0.563,0.058 -0.566,0.055 -0.562,0.059 -0.567,0.062 -0.562,0.059 -0.567,0.062 -0.566,0.067 -0.563,0.062 -0.566,0.067 -0.563,0.07 -0.566,0.066 -0.562,0.071 -0.567,0.07 -0.562,0.074 -0.567,0.074 -0.562,0.075 -0.567,0.074 -0.566,0.078 -0.563,0.082 -0.566,0.078 -0.562,0.082 -0.567,0.086 -0.562,0.082 -0.567,0.086 -0.562,0.09 -0.567,0.09 -0.562,0.09 -0.567,0.089 -0.566,0.094 -0.563,0.098 -0.566,0.098 -0.562,0.097 -0.567,0.098 -0.562,0.101 -0.567,0.106 -0.562,0.105 -0.567,0.106 -0.562,0.109 -0.567,0.11 -0.566,0.113 -0.562,0.113 -0.567,0.113 -0.562,0.118 -0.567,0.121 -0.562,0.121 -0.567,0.125 -0.562,0.125 -0.567,0.125 -0.562,0.129 -1.133,0.265 -0.562,0.137 -0.567,0.137 -0.562,0.14 -0.567,0.145 -0.562,0.144 -0.567,0.149 -0.562,0.148 -0.567,0.153 -0.562,0.156 -0.566,0.156 -0.567,0.16 -0.562,0.16 -0.567,0.168 -0.562,0.168 -0.567,0.172 -0.562,0.172 -0.567,0.176 -0.562,0.18 -0.566,0.183 -0.563,0.188 -1.133,0.383 -0.562,0.199 -0.567,0.199 -0.562,0.203 -0.567,0.207 -0.562,0.211 -0.566,0.219 -0.563,0.219 -0.566,0.222 -0.563,0.231 -0.566,0.23 -0.567,0.238 -0.562,0.243 -0.567,0.246 -0.562,0.254 -0.567,0.257 -0.562,0.262 -0.566,0.27 -0.563,0.273 -0.566,0.281 -0.563,0.289 -0.566,0.293 -0.567,0.301 -0.562,0.309 -0.567,0.316 -0.562,0.324 -0.566,0.336 -0.563,0.34 -0.566,0.352 -0.563,0.359 -0.566,0.371 -0.563,0.383 -0.566,0.395 0,36.207 0.566,0.371 0.563,0.355 0.566,0.348 0.563,0.34 0.566,0.324 0.563,0.316 0.566,0.309 0.562,0.301 0.567,0.293 0.562,0.285 0.567,0.277 0.566,0.27 0.563,0.261 0.566,0.258 0.563,0.25 0.566,0.246 0.562,0.239 0.567,0.234 0.562,0.227 0.567,0.222 0.562,0.219 0.567,0.215 0.566,0.207 0.563,0.207 0.566,0.199 0.563,0.195 0.566,0.192 0.562,0.187 0.567,0.184 0.562,0.18 0.567,0.175 0.562,0.172 0.567,0.172 0.566,0.164 0.563,0.164 0.566,0.156 0.562,0.157 0.567,0.152 0.562,0.152 0.567,0.149 0.562,0.14 0.567,0.145 0.562,0.137 0.567,0.136 0.566,0.133 0.562,0.129 0.567,0.129 0.562,0.125 0.567,0.125 0.562,0.121 0.567,0.117 0.562,0.118 0.567,0.113 0.562,0.113 1.133,0.219 0.562,0.105 0.567,0.102 0.562,0.101 0.567,0.098 0.562,0.098 0.567,0.097 0.562,0.094 0.567,0.09 0.562,0.09 0.566,0.09 0.567,0.086 0.562,0.086 0.567,0.082 0.562,0.082 0.567,0.078 0.562,0.078 0.567,0.074 0.562,0.078 0.566,0.071 0.563,0.074 0.566,0.066 0.567,0.07 0.562,0.067 0.567,0.066 0.562,0.063 0.567,0.062 0.562,0.063 0.567,0.058 0.562,0.059 0.566,0.055 0.563,0.058 0.566,0.051 0.567,0.055 0.562,0.05 0.567,0.051 0.562,0.047 0.567,0.047 0.562,0.047 0.566,0.047 0.563,0.043 0.566,0.043 0.563,0.039 0.566,0.043 0.567,0.035 0.562,0.039 0.567,0.035 0.562,0.035 0.566,0.035 0.563,0.032 0.566,0.035 0.563,0.027 0.566,0.031 0.567,0.028 0.562,0.027 0.567,0.027 0.562,0.024 0.567,0.023 0.562,0.024 0.566,0.019 0.563,0.024 0.566,0.019 0.563,0.016 0.566,0.019 0.567,0.016 0.562,0.016 0.567,0.011 0.562,0.016 0.566,0.012 0.563,0.011 0.566,0.008 0.563,0.012 0.566,0.008 0.563,0.004 0.566,0.008 0.567,0.003 0.562,0.004 0.566,0.004 2.258,0 0.563,-0.004 0.566,0 0.563,-0.004 0.566,-0.007 0.567,-0.004 0.562,-0.008 0.566,-0.008 0.563,-0.012 0.566,-0.007 0.563,-0.012 0.566,-0.012 0.563,-0.016 0.566,-0.011 0.563,-0.016 0.566,-0.019 0.566,-0.016 0.563,-0.02 0.566,-0.019 0.563,-0.02 0.566,-0.019 0.563,-0.024 0.566,-0.023 0.563,-0.023 0.566,-0.028 0.563,-0.023 0.566,-0.028 0.566,-0.031 0.563,-0.027 0.566,-0.031 0.563,-0.032 0.566,-0.031 0.563,-0.035 0.566,-0.035 0.563,-0.035 0.566,-0.036 0.563,-0.039 1.132,-0.078 0.563,-0.043 0.566,-0.043 0.563,-0.043 0.566,-0.043 0.563,-0.046 0.566,-0.047 0.563,-0.047 0.566,-0.047 0.562,-0.051 0.567,-0.051 0.566,-0.054 0.563,-0.051 0.566,-0.055 0.563,-0.058 0.566,-0.055 0.563,-0.059 0.566,-0.058 0.562,-0.063 0.567,-0.062 0.562,-0.063 0.567,-0.062 0.566,-0.067 0.563,-0.066 0.566,-0.07 0.563,-0.067 0.566,-0.074 0.563,-0.07 0.566,-0.075 0.562,-0.074 0.567,-0.074 0.562,-0.078 0.567,-0.082 0.566,-0.078 0.563,-0.082 0.566,-0.082 0.563,-0.086 0.566,-0.086 0.562,-0.09 0.567,-0.086 0.562,-0.094 0.567,-0.09 0.562,-0.093 0.567,-0.098 0.566,-0.094 0.563,-0.101 0.566,-0.098 0.562,-0.102 0.567,-0.105 0.562,-0.105 0.567,-0.106 0.562,-0.109 0.567,-0.114 0.562,-0.109 1.133,-0.234 0.563,-0.118 0.566,-0.121 0.562,-0.121 0.567,-0.125 0.562,-0.125 0.567,0.203 0.562,0.204 0.567,0.195 0.562,0.199 1.133,0.383 0.562,0.191 0.567,0.188 0.562,0.183 0.567,0.184 0.562,0.184 0.567,0.175 0.562,0.18 0.567,0.172 0.562,0.172 0.566,0.172 0.567,0.355 0.562,0.356 0.567,0.351 0.562,0.352 0.567,0.347 0.562,0.348 0.567,0.344 0.562,0.344 1.133,0.679 0.562,0.336 0.567,0.336 0.562,0.332 0.567,0.332 0.562,0.332 0.567,0.328 0.562,0.328 0.567,0.325 0.562,0.324 1.133,0.64 0.562,0.321 0.567,0.316 0.562,0.317 0.567,0.316 0.562,0.313 0.567,0.312 0.562,0.309 0.566,0.308 0.563,0.309 1.133,0.609 0.562,0.305 0.567,0.301 0.562,0.3 0.567,0.301 0.562,0.301 0.567,0.297 0.562,0.293 0.566,0.297 0.563,0.293 0.566,0.293 0.567,0.289 0.562,0.289 0.567,0.289 0.562,0.289 0.567,0.285 0.562,0.285 0.566,0.285 0.563,0.286 0.566,0.281 0.563,0.281 0.566,0.277 0.567,0.282 0.562,0.277 0.567,0.273 0.562,0.278 0.566,0.273 0.563,0.274 0.566,0.273 0.563,0.273 0.566,0.27 0.563,0.27 0.566,0.269 0.567,0.266 0.562,0.265 0.567,0.266 0.562,0.266 0.566,0.261 0.563,0.266 0.566,0.262 0.563,0.261 0.566,0.258 0.563,0.258 1.133,0.516 0.562,0.257 0.566,0.254 0.563,0.254 0.566,0.254 0.563,0.254 0.566,0.25 0.563,0.25 0.566,0.25 0.563,0.25 0.566,0.25 0.566,0.246 0.563,0.246 0.566,0.246 0.563,0.246 0.566,0.243 0.563,0.242 0.566,0.242 0.563,0.242 0.566,0.238 0.563,0.243 1.132,0.476 0.563,0.235 0.566,0.238 0.563,0.234 0.566,0.235 0.563,0.234 0.566,0.23 0.563,0.235 0.566,0.23 0.563,0.231 0.566,0.226 0.566,0.231 0.563,0.226 0.566,0.227 0.563,0.226 0.566,0.223 0.563,0.227 0.566,0.222 0.563,0.219 0.566,0.223 0.562,0.222 1.133,0.438 0.563,0.219 0.566,0.215 0.563,0.214 0.566,0.215 0.563,0.215 0.566,0.215 0.563,0.211 0.566,0.211 0.562,0.211 0.567,0.211 0.566,0.207 0.563,0.207 0.566,0.207 0.563,0.207 0.566,0.203 0.563,0.203 0.566,0.203 0.562,0.203 0.567,0.199 0.562,0.204 0.567,0.195 0.566,0.199 0.563,0.195 0.566,0.196 0.563,0.195 0.566,0.195 0.562,0.579 0.567,0.578 0.562,0.578 1.133,1.156 0.563,0.574 0.566,0.574 0.563,0.575 0.566,0.57 0.563,0.57 0.566,0.571 0.562,0.57 0.567,0.57 0.562,0.567 0.567,0.57 0.566,0.566 0.563,0.098 0.566,0.102 0.563,0.105 0.566,0.106 0.562,0.109 0.567,0.105 0.562,0.114 0.567,0.113 0.562,0.113 1.133,0.235 0.563,0.121 0.566,0.125 0.562,0.125 0.567,0.125 0.562,0.129 0.567,0.128 0.562,0.137 0.567,0.133 0.562,0.137 0.567,0.14 0.566,0.145 0.563,0.144 0.566,0.145 0.562,0.148 0.567,0.153 0.562,0.156 0.567,0.156 0.562,0.156 0.567,0.165 0.562,0.164 0.567,0.164 0.566,0.172 0.562,0.171 0.567,0.176 0.562,0.176 0,-82.219 z"
   style="fill:#bde8ff;fill-opacity:1;fill-rule:nonzero;stroke:none"
   id="path204" /><text
   transform="matrix(1,0,0,-1,47.8125,57.33686)"
   id="text206"><tspan
     style="fill:#6c606b;fill-opacity:1;fill-rule:nonzero;stroke:none;font-family:Tahoma;font-variant:normal;font-weight:normal;font-size:8;writing-mode:lr;-inkscape-font-specification:Tahoma"
     x="0"
     y="0"
     id="tspan208">0</tspan><tspan
     style="fill:#6c606b;fill-opacity:1;fill-rule:nonzero;stroke:none;font-family:Tahoma;font-variant:normal;font-weight:normal;font-size:8;writing-mode:lr;-inkscape-font-specification:Tahoma"
     x="-4 0.36"
     y="-30.671872"
     sodipodi:role="line"
     id="tspan210">50</tspan><tspan
     style="fill:#6c606b;fill-opacity:1;fill-rule:nonzero;stroke:none;font-family:Tahoma;font-variant:normal;font-weight:normal;font-size:8;writing-mode:lr;-inkscape-font-specification:Tahoma"
     x="-9 -4.64 -0.28"
     y="-61.343744"
     sodipodi:role="line"
     id="tspan212">100</tspan><tspan
     style="fill:#6c606b;fill-opacity:1;fill-rule:nonzero;stroke:none;font-family:Tahoma;font-variant:normal;font-weight:normal;font-size:8;writing-mode:lr;-inkscape-font-specification:Tahoma"
     x="-9 -4.64 -0.28"
     y="-92.015616"
     sodipodi:role="line"
     id="tspan214">150</tspan><tspan
     style="fill:#6c606b;fill-opacity:1;fill-rule:nonzero;stroke:none;font-family:Tahoma;font-variant:normal;font-weight:normal;font-size:8;writing-mode:lr;-inkscape-font-specification:Tahoma"
     x="-9 -4.64 -0.28"
     y="-122.6914"
     sodipodi:role="line"
     id="tspan216">200</tspan><tspan
     style="fill:#6c606b;fill-opacity:1;fill-rule:nonzero;stroke:none;font-family:Tahoma;font-variant:normal;font-weight:normal;font-size:8;writing-mode:lr;-inkscape-font-specification:Tahoma"
     x="-9 -4.64 -0.28"
     y="-153.36327"
     sodipodi:role="line"
     id="tspan218">250</tspan></text>

<text
   transform="matrix(0,1,1,0,23.792969,112.51655)"
   id="text220"><tspan
     style="fill:#564a55;fill-opacity:1;fill-rule:nonzero;stroke:none;font-family:Tahoma;font-variant:normal;font-weight:normal;font-size:11;writing-mode:lr;-inkscape-font-specification:Tahoma"
     x="0 6.589 15.818 21.89 24.398 26.906 30.58 36.707 42.779"
     y="0"
     sodipodi:role="line"
     id="tspan222">Amplitude</tspan></text>

<text
   transform="matrix(1,0,0,-1,107.97656,227.03608)"
   id="text224"><tspan
     style="fill:#564a55;fill-opacity:1;fill-rule:nonzero;stroke:none;font-family:Tahoma;font-variant:normal;font-weight:normal;font-size:11;writing-mode:lr;-inkscape-font-specification:Tahoma"
     x="0 6.82 12.606 16.104 18.612 24.398 29.469 33.143 35.651 41.613 47.74 51.172 55.374 61.369 64.691 70.686 76.681 80.003 85.998 91.993 96.195 99.517 102.949 109.769 115.555 120.461 126.423 128.931 135.058 138.732 141.24 147.202 153.329 157.212 160.644 166.639 169.961 175.956 181.951"
     y="0"
     sodipodi:role="line"
     id="tspan226">Reflection [0,49,27]. Resolution: 1.39A</tspan></text>

<path
   d="m 61.883,107.677 253.519,0"
   style="fill:none;stroke:#00e5b2;stroke-opacity:1;stroke-width:2;stroke-linecap:butt;stroke-linejoin:miter;stroke-miterlimit:10;stroke-dasharray:none"
   id="path202" /><text
   style="font-size:6.68168163px"
   y="-234.72484"
   x="291.98965"
   id="text22-7-1"
   transform="scale(1,-1)"><tspan
     style="font-size:4.4544549px;font-variant:normal;font-weight:normal;writing-mode:lr-tb;fill:#4c404b;fill-opacity:1;fill-rule:nonzero;stroke:none;font-family:Tahoma;-inkscape-font-specification:Tahoma"
     sodipodi:role="line"
     id="tspan26-0-7"
     x="291.98965"
     y="-234.72484">o</tspan><tspan
     style="font-size:4.4544549px;font-variant:normal;font-weight:normal;writing-mode:lr-tb;fill:#4c404b;fill-opacity:1;fill-rule:nonzero;stroke:none;font-family:Tahoma;-inkscape-font-specification:Tahoma"
     x="291.98965 291.98965 291.98965 291.98965 291.98965 291.98965 291.98965 291.98965 295.13895 297.59781 299.58447 301.92755 303.53113 305.74945 308.08362 309.57138 310.58701 313.00131 315.48245 316.87225 320.02155 322.07504 324.12854 326.60968 328.21326 330.5563 333.03745 335.09094"
     y="-229.00017 -229.00017 -229.00017 -229.00017 -229.00017 -229.00017 -229.00017 -229.00017"
     sodipodi:role="line"
     id="tspan3869-9-4" /></text>
</g><g
       id="g126"><g
         id="g128"
         clip-path="url(#clipPath130)"><path
           d="m 230.707,219.368 0,-164.703"
           style="fill:none;stroke:#d0d0e0;stroke-opacity:1;stroke-width:0.566929;stroke-linecap:butt;stroke-linejoin:miter;stroke-miterlimit:10;stroke-dasharray:1.417323,1.417323;stroke-dashoffset:0"
           id="path134" /></g></g><g
       id="g136"><g
         id="g138"
         clip-path="url(#clipPath140)"><path
           d="m 287.172,219.368 0,-164.703"
           style="fill:none;stroke:#d0d0e0;stroke-opacity:1;stroke-width:0.566929;stroke-linecap:butt;stroke-linejoin:miter;stroke-miterlimit:10;stroke-dasharray:1.417323,1.417323;stroke-dashoffset:0"
           id="path144" /></g></g><g
       id="g146"><g
         id="g148"
         clip-path="url(#clipPath150)"><path
           d="m 343.633,219.368 0,-164.703"
           style="fill:none;stroke:#d0d0e0;stroke-opacity:1;stroke-width:0.566929;stroke-linecap:butt;stroke-linejoin:miter;stroke-miterlimit:10;stroke-dasharray:1.417323,1.417323;stroke-dashoffset:0"
           id="path154" /></g></g><g
       id="g170"><g
         id="g172"
         clip-path="url(#clipPath174)"><path
           d="m 203.605,219.368 0,-164.703"
           style="fill:none;stroke:#d4ca3a;stroke-opacity:1;stroke-width:1;stroke-linecap:butt;stroke-linejoin:miter;stroke-miterlimit:10;stroke-dasharray:none"
           id="path178" /></g></g><g
       id="g160"><g
         id="g162"
         clip-path="url(#clipPath164)"><path
           d="m 194.57,219.368 0,-164.703"
           style="fill:none;stroke:#d4ca3a;stroke-opacity:1;stroke-width:1;stroke-linecap:butt;stroke-linejoin:miter;stroke-miterlimit:10;stroke-dasharray:none"
           id="path168" /></g></g><g
       id="g180"><g
         id="g182"
         clip-path="url(#clipPath184)"><path
           d="m 286.043,219.368 0,-164.703"
           style="fill:none;stroke:#d4ca3a;stroke-opacity:1;stroke-width:1;stroke-linecap:butt;stroke-linejoin:miter;stroke-miterlimit:10;stroke-dasharray:none"
           id="path188" /></g></g><g
       id="g190"><g
         id="g192"
         clip-path="url(#clipPath194)"><path
           d="m 295.078,219.368 0,-164.703"
           style="fill:none;stroke:#d4ca3a;stroke-opacity:1;stroke-width:1;stroke-linecap:butt;stroke-linejoin:miter;stroke-miterlimit:10;stroke-dasharray:none"
           id="path198" /></g></g><g
       id="g156"><path
         d="m 61.883,106.454 0.566,-0.012 0.563,-0.015 0.566,-0.012 0.563,-0.012 0.566,-0.011 0.563,-0.012 0.566,-0.012 0.562,-0.012 0.567,-0.011 0.562,-0.012 0.567,-0.012 0.566,-0.015 0.563,-0.012 0.566,-0.012 0.563,-0.012 0.566,-0.011 0.562,-0.012 0.567,-0.012 0.562,-0.011 0.567,-0.012 0.562,-0.012 0.567,-0.012 0.566,-0.015 0.563,-0.012 0.566,-0.012 0.563,-0.011 0.566,-0.012 0.562,-0.012 0.567,-0.012 0.562,-0.011 0.567,-0.012 0.562,-0.012 1.133,-0.023 0.563,-0.012 0.566,-0.015 0.562,-0.012 0.567,-0.012 0.562,-0.012 0.567,-0.011 0.562,-0.012 0.567,-0.012 0.562,-0.011 1.133,-0.024 0.562,-0.012 0.567,-0.011 0.562,-0.012 0.567,-0.016 0.562,-0.011 0.567,-0.012 0.562,-0.012 0.567,-0.012 0.562,-0.011 1.133,-0.024 0.562,-0.011 0.567,-0.012 0.562,-0.012 0.567,-0.012 0.562,-0.011 0.567,-0.012 0.562,-0.012 0.567,-0.011 0.562,-0.012 0.566,-0.016 0.567,-0.012 0.562,-0.011 0.567,-0.012 0.562,-0.012 0.567,-0.011 0.562,-0.012 0.567,-0.012 0.562,-0.012 0.566,-0.011 0.563,-0.012 1.133,-0.023 0.562,-0.012 0.567,-0.012 0.562,-0.012 0.567,-0.011 0.562,-0.012 0.567,-0.012 0.562,-0.011 0.566,-0.016 0.563,-0.012 1.133,-0.023 0.562,-0.012 0.567,-0.012 0.562,-0.011 0.567,-0.012 0.562,-0.012 0.566,-0.012 0.563,-0.011 0.566,-0.012 0.563,-0.012 1.133,-0.023 0.562,-0.012 0.567,-0.012 0.562,-0.011 0.566,-0.012 0.563,-0.012 0.566,-0.011 0.563,-0.012 1.133,-0.024 0.562,-0.011 0.567,-0.012 0.562,-0.012 0.567,-0.012 0.562,-0.011 0.566,-0.012 0.563,-0.016 0.566,-0.011 0.563,-0.012 1.133,-0.023 0.562,-0.012 0.567,-0.012 0.562,-0.012 0.566,-0.011 0.563,-0.012 0.566,-0.012 0.563,-0.011 0.566,-0.012 0.563,-0.012 1.133,-0.023 0.562,-0.012 0.566,-0.012 0.563,-0.012 0.566,-0.011 0.563,-0.012 0.566,-0.012 0.563,-0.011 0.566,-0.012 0.563,-0.012 1.133,-0.023 0.562,-0.012 0.566,-0.012 0.563,-0.011 0.566,-0.012 0.563,-0.012 0.566,-0.012 0.563,-0.011 0.566,-0.012 0.563,-0.012 1.132,-0.023 0.563,-0.012 0.566,-0.012 0.563,-0.011 0.566,-0.012 0.563,-0.012 0.566,-0.011 0.563,-0.012 0.566,-0.012 0.563,-0.012 1.132,-0.023 0.563,-0.012 0.566,-0.012 0.563,-0.011 0.566,-0.012 0.563,-0.012 0.566,-0.011 0.563,-0.012 0.566,-0.012 0.563,-0.012 1.132,-0.023 0.563,-0.012 0.566,-0.011 0.563,-0.012 0.566,-0.012 0.563,-0.012 0.566,-0.011 0.563,-0.012 0.566,-0.012 0.562,-0.011 1.133,-0.024 0.563,-0.012 0.566,-0.011 0.563,-0.012 0.566,-0.012 0.563,-0.011 0.566,-0.012 0.562,-0.012 0.567,-0.012 0.562,-0.011 1.133,-0.024 0.563,-0.012 0.566,-0.011 0.563,-0.012 0.566,-0.012 0.563,-0.011 0.566,-0.008 0.562,-0.012 0.567,-0.012 0.562,-0.011 1.133,-0.024 0.563,-0.012 0.566,-0.011 0.563,-0.012 0.566,-0.012 0.562,-0.011 0.567,-0.012 0.562,-0.012 0.567,-0.012 0.562,-0.011 1.133,-0.024 0.563,-0.011 0.566,-0.012 0.562,-0.012 0.567,-0.012 0.562,-0.011 0.567,-0.012 0.562,-0.012 0.567,-0.011 0.562,-0.012 1.133,-0.024 0.563,-0.011 0.566,-0.012 0.562,-0.012 0.567,-0.011 0.562,-0.012 0.567,0.148 0.562,0.145 0.567,0.148 0.562,0.149 0.567,0.144 0.566,0.149 0.562,0.144 0.567,0.149 0.562,0.148 0.567,0.148 0.562,0.149 0.567,0.148 0.562,0.149 0.567,0.148 0.562,0.149 0.566,0.148 0.567,0.219 0.562,0.222 0.567,0.219 0.562,0.223 0.567,0.223 0.562,0.222 0.567,0.219 0.562,0.223 1.133,0.445 0.562,0.223 0.567,0.222 0.562,0.223 0.567,0.226 0.562,0.223 0.567,0.223 0.562,0.222 0.567,0.227 0.562,0.223 0.566,0.226 0.567,0.223 0.562,0.226 0.567,0.227 0.562,0.223 0.567,0.226 0.562,0.227 0.567,0.226 0.562,0.227 0.566,0.226 0.563,0.227 1.133,0.453 0.562,0.227 0.567,0.23 0.562,0.227 0.567,0.23 0.562,0.227 0.567,0.23 0.562,0.227 0.566,0.23 0.563,0.231 1.133,0.461 0.562,0.23 0.567,0.231 0.562,0.23 0.567,0.231 0.562,0.23 0.566,0.234 0.563,0.231 0.566,0.23 0.563,0.235 0.566,0.234 0.567,0.231 0.562,0.234 0.567,0.234 0.562,0.235 0.566,0.234 0.563,0.234 0.566,0.235 0.563,0.238 0.566,0.234 0.563,0.235 0.566,0.238 0.567,0.234 0.562,0.239 0.567,0.238 0.562,0.238 0.566,0.239 0.563,0.238 0.566,0.238 0.563,0.238 0.566,0.239 0.563,0.238 0.566,0.242 0.567,0.238 0.562,0.243 0.566,0.242 0.563,0.238 0.566,0.242 0.563,0.243 0.566,0.242 0.563,0.242 0.566,0.246 0.563,0.242 0.566,0.242 0.566,0.246 0.563,0.247 0.566,0.242 0.563,0.246 0.566,0.246 0.563,0.246 0.566,0.246 0.563,0.246 0.566,0.25 0.563,0.246 0.566,0.246 0.566,0.25 0.563,0.25 0.566,0.25 0.563,0.246 0.566,0.25 0.563,0.254 0.566,0.25 0.563,0.25 0.566,0.254 0.563,0.25 0.566,0.254 0.566,0.25 0.563,0.254 0.566,0.254 0.563,0.254 0.566,0.258 0.563,0.254 0.566,0.254 0.563,0.257 0.566,0.254 0.562,0.258 1.133,0.516 0.563,0.258 0.566,0.257 0.563,0.262 0.566,0.258 0.563,0.262 0.566,0.257 0.563,0.262 0.566,0.262 0.562,0.262 1.133,0.523 0.563,0.266 0.566,0.261 0.563,0.266 0.566,0.266 0.563,0.261 0.566,0.27 0.562,0.265 0.567,0.266 0.562,0.266 0.567,0.269 0.566,0.266 0.563,0.269 0.566,0.27 0.563,0.269 0.566,0.27 0.562,0.504 0.567,0.5 0.562,0.504 0.567,0.504 0.566,0.5 0.563,0.508 0.566,0.503 0.563,0.504 0.566,0.508 0.563,0.504 0.566,0.508 0.562,0.508 0.567,0.507 0.562,0.508 1.133,1.024 0.563,-0.024 0.566,-0.023 0.563,-0.024 0.566,-0.023 0.562,-0.023 0.567,-0.024 0.562,-0.023 0.567,-0.024 0.562,-0.023 0.567,-0.02 0.566,-0.023 0.563,-0.024 0.566,-0.023 0.562,-0.023 0.567,-0.024 0.562,-0.023 0.567,-0.024 0.562,-0.019 0.567,-0.024 0.562,-0.023 1.133,-0.047 0.563,-0.024 0.566,-0.023 0.562,-0.019 0.567,-0.024 0.562,-0.023 0.567,-0.024 0.562,-0.023 0.567,-0.024 0.562,-0.023 0.567,-0.02 0.566,-0.023 0.562,-0.024 0.567,-0.023 0.562,-0.023"
         style="fill:none;stroke:#00bfff;stroke-opacity:1;stroke-width:2;stroke-linecap:butt;stroke-linejoin:miter;stroke-miterlimit:10;stroke-dasharray:none"
         id="path158" /></g></g></svg>