<?xml version="1.0" encoding="UTF-8" standalone="no"?>
<!-- Created with Inkscape (http://www.inkscape.org/) -->

<svg
   xmlns:dc="http://purl.org/dc/elements/1.1/"
   xmlns:cc="http://creativecommons.org/ns#"
   xmlns:rdf="http://www.w3.org/1999/02/22-rdf-syntax-ns#"
   xmlns:svg="http://www.w3.org/2000/svg"
   xmlns="http://www.w3.org/2000/svg"
   xmlns:sodipodi="http://sodipodi.sourceforge.net/DTD/sodipodi-0.dtd"
   xmlns:inkscape="http://www.inkscape.org/namespaces/inkscape"
   id="svg2"
   version="1.1"
   inkscape:version="0.48.5 r10040"
   width="566.92913"
   height="318.89764"
   xml:space="preserve"
   sodipodi:docname="SmoothedPlot_0,17,48_res3.pdf"><metadata
     id="metadata8"><rdf:RDF><cc:Work
         rdf:about=""><dc:format>image/svg+xml</dc:format><dc:type
           rdf:resource="http://purl.org/dc/dcmitype/StillImage" /><dc:title></dc:title></cc:Work></rdf:RDF></metadata><defs
     id="defs6"><clipPath
       clipPathUnits="userSpaceOnUse"
       id="clipPath40"><path
         d="m 55.648,61.118 293.656,0 0,-2 -293.656,0 0,2 z"
         id="path42" /></clipPath><clipPath
       clipPathUnits="userSpaceOnUse"
       id="clipPath50"><path
         d="m 55.648,99.118 293.656,0 0,-1 -293.656,0 0,1 z"
         id="path52" /></clipPath><clipPath
       clipPathUnits="userSpaceOnUse"
       id="clipPath60"><path
         d="m 55.648,138.118 293.656,0 0,-2 -293.656,0 0,2 z"
         id="path62" /></clipPath><clipPath
       clipPathUnits="userSpaceOnUse"
       id="clipPath70"><path
         d="m 55.648,176.118 293.656,0 0,-2 -293.656,0 0,2 z"
         id="path72" /></clipPath><clipPath
       clipPathUnits="userSpaceOnUse"
       id="clipPath80"><path
         d="m 55.648,214.118 293.656,0 0,-1 -293.656,0 0,1 z"
         id="path82" /></clipPath><clipPath
       clipPathUnits="userSpaceOnUse"
       id="clipPath90"><path
         d="m 61,219.368 1,0 0,-164.703 -1,0 0,164.703 z"
         id="path92" /></clipPath><clipPath
       clipPathUnits="userSpaceOnUse"
       id="clipPath100"><path
         d="m 202,219.368 1,0 0,-164.703 -1,0 0,164.703 z"
         id="path102" /></clipPath><clipPath
       clipPathUnits="userSpaceOnUse"
       id="clipPath110"><path
         d="m 343,219.368 1,0 0,-164.703 -1,0 0,164.703 z"
         id="path112" /></clipPath><clipPath
       clipPathUnits="userSpaceOnUse"
       id="clipPath124"><path
         d="m 63,219.368 2,0 0,-164.703 -2,0 0,164.703 z"
         id="path126" /></clipPath><clipPath
       clipPathUnits="userSpaceOnUse"
       id="clipPath134"><path
         d="m 83,219.368 2,0 0,-164.703 -2,0 0,164.703 z"
         id="path136" /></clipPath><clipPath
       clipPathUnits="userSpaceOnUse"
       id="clipPath144"><path
         d="m 100,219.368 2,0 0,-164.703 -2,0 0,164.703 z"
         id="path146" /></clipPath><clipPath
       clipPathUnits="userSpaceOnUse"
       id="clipPath154"><path
         d="m 148,219.368 2,0 0,-164.703 -2,0 0,164.703 z"
         id="path156" /></clipPath><clipPath
       clipPathUnits="userSpaceOnUse"
       id="clipPath164"><path
         d="m 159,219.368 2,0 0,-164.703 -2,0 0,164.703 z"
         id="path166" /></clipPath><clipPath
       clipPathUnits="userSpaceOnUse"
       id="clipPath174"><path
         d="m 193,219.368 2,0 0,-164.703 -2,0 0,164.703 z"
         id="path176" /></clipPath></defs><sodipodi:namedview
     pagecolor="#ffffff"
     bordercolor="#666666"
     borderopacity="1"
     objecttolerance="10"
     gridtolerance="10"
     guidetolerance="10"
     inkscape:pageopacity="0"
     inkscape:pageshadow="2"
     inkscape:window-width="1600"
     inkscape:window-height="837"
     id="namedview4"
     showgrid="false"
     inkscape:zoom="2.0006015"
     inkscape:cx="294.55045"
     inkscape:cy="151.45035"
     inkscape:window-x="-8"
     inkscape:window-y="-8"
     inkscape:window-maximized="1"
     inkscape:current-layer="g122" /><g
     id="g10"
     inkscape:groupmode="layer"
     inkscape:label="SmoothedPlot_0,17,48_res3"
     transform="matrix(1.25,0,0,-1.25,0,318.89764)"><g
       id="g12"><text
         transform="matrix(1,0,0,-1,165.97656,21.914985)"
         id="text14"><tspan
           style="fill:#564a55;fill-opacity:1;fill-rule:nonzero;stroke:none;font-family:Tahoma;font-variant:normal;font-weight:normal;font-size:11;writing-mode:lr;-inkscape-font-specification:Tahoma"
           x="0 4.103 13.332 19.096 25.168 30.954 34.386 41.723 47.85 57.079 63.151 68.937"
           y="0"
           sodipodi:role="line"
           id="tspan16">Image Number</tspan></text>
<text
         transform="matrix(1,0,0,-1,58.816406,43.832954)"
         id="text18"><tspan
           style="fill:#6c606b;fill-opacity:1;fill-rule:nonzero;stroke:none;font-family:Tahoma;font-variant:normal;font-weight:normal;font-size:8;writing-mode:lr;-inkscape-font-specification:Tahoma"
           x="0 139.16016 143.52016 277.816408 282.176408 286.536408"
           y="0"
           sodipodi:role="line"
           id="tspan20">050100</tspan></text>
<text
         style="font-size:12px"
         y="-150.44398"
         x="351.5322"
         id="text32"
         transform="scale(1,-1)"><tspan
           style="font-size:11px;font-variant:normal;font-weight:normal;writing-mode:lr-tb;fill:#362a35;fill-opacity:1;fill-rule:nonzero;stroke:none;font-family:Tahoma;-inkscape-font-specification:Tahoma"
           x="351.5322 358.1322 364.09421 366.6022 372.56421 378.69119 382.65121 386.08319 392.54019 398.3262"
           y="-150.44398"
           sodipodi:role="line"
           id="tspan34">Colour Key</tspan></text>
<text
         style="font-size:12px"
         y="-137.91887"
         x="358.46719"
         id="text22"
         transform="scale(1,-1)"><tspan
           style="font-size:8px;font-variant:normal;font-weight:normal;writing-mode:lr-tb;fill:#4c404b;fill-opacity:1;fill-rule:nonzero;stroke:none;font-family:Tahoma;-inkscape-font-specification:Tahoma"
           x="358.46719 362.92319 369.63519 373.97119 378.30719 380.97919 385.43518 389.64319 394.05917 396.55518 400.76318 404.33118 407.00317 408.82718 415.53918 419.7312 422.4032"
           y="-137.91887"
           sodipodi:role="line"
           id="tspan24">Smoothed estimate</tspan><tspan
           style="font-size:8px;font-variant:normal;font-weight:normal;writing-mode:lr-tb;fill:#4c404b;fill-opacity:1;fill-rule:nonzero;stroke:none;font-family:Tahoma;-inkscape-font-specification:Tahoma"
           x="358.46719 364.1232 368.53918 372.10718 376.31519 379.19519 383.1792 387.37119 390.04318 391.86719 396.20319 400.65918 403.15518 408.81119 412.49918 416.18719 420.64319 423.52319 427.7312 432.18719 435.87518"
           y="-127.63763"
           sodipodi:role="line"
           id="tspan26">Observation Occurence</tspan><tspan
           style="font-size:8px;font-variant:normal;font-weight:normal;writing-mode:lr-tb;fill:#4c404b;fill-opacity:1;fill-rule:nonzero;stroke:none;font-family:Tahoma;-inkscape-font-specification:Tahoma"
           x="358.46719 358.46719 358.46719 358.46719 358.46719 358.46719 358.46719 358.46719 364.1232 368.53918 372.10718 376.31519 379.19519 383.1792 387.37119 390.04318 391.86719 396.20319 400.65918 403.15518 408.81119 412.49918 416.18719 420.64319 423.52319 427.7312 432.18719 435.87518"
           y="-127.63763 -127.63763 -127.63763 -127.63763 -127.63763 -127.63763 -127.63763 -127.63763"
           sodipodi:role="line"
           id="tspan3869" /></text>
<path
         d="m 351.88671,143.48932 5.141,0 0,-5.14101 -5.141,0 0,5.14101 z"
         style="fill:#00bfff;fill-opacity:1;fill-rule:nonzero;stroke:none"
         id="path28"
         inkscape:connector-curvature="0" /><path
         d="m 351.88671,133.46348 5.141,0 0,-5.141 -5.141,0 0,5.141 z"
         style="fill:#d4ca3a;fill-opacity:1;fill-rule:nonzero;stroke:none"
         id="path30"
         inkscape:connector-curvature="0" /><path
         inkscape:connector-curvature="0"
         d="m 351.88671,123.43764 5.141,0 0,-5.14101 -5.141,0 0,5.14101 z"
         style="fill:#00e5b2;fill-opacity:1;fill-rule:nonzero;stroke:none"
         id="path30-1" /><text
         style="font-size:12px"
         y="-118.03646"
         x="358.46719"
         id="text22-7"
         transform="scale(1,-1)"><tspan
           style="font-size:8px;font-variant:normal;font-weight:normal;writing-mode:lr-tb;fill:#4c404b;fill-opacity:1;fill-rule:nonzero;stroke:none;font-family:Tahoma;-inkscape-font-specification:Tahoma"
           sodipodi:role="line"
           id="tspan26-0"
           x="358.46719"
           y="-118.03646">CTruncate estimate</tspan><tspan
           style="font-size:8px;font-variant:normal;font-weight:normal;writing-mode:lr-tb;fill:#4c404b;fill-opacity:1;fill-rule:nonzero;stroke:none;font-family:Tahoma;-inkscape-font-specification:Tahoma"
           x="358.46719 358.46719 358.46719 358.46719 358.46719 358.46719 358.46719 358.46719 364.1232 368.53922 372.10721 376.31522 379.19519 383.1792 387.37122 390.04321 391.86722 396.20322 400.65921 403.15521 408.81122 412.49921 416.18719 420.64322 423.52319 427.7312 432.18719 435.87521"
           y="-107.75521 -107.75521 -107.75521 -107.75521 -107.75521 -107.75521 -107.75521 -107.75521"
           sodipodi:role="line"
           id="tspan3869-9" /></text>
</g><g
       id="g36"><g
         id="g38"
         clip-path="url(#clipPath40)"><path
           d="m 55.648,60.337 293.657,0"
           style="fill:none;stroke:#d0d0e0;stroke-opacity:1;stroke-width:0.566929;stroke-linecap:butt;stroke-linejoin:miter;stroke-miterlimit:10;stroke-dasharray:1.417323,1.417323;stroke-dashoffset:0"
           id="path44" /></g></g><g
       id="g46"><g
         id="g48"
         clip-path="url(#clipPath50)"><path
           d="m 55.648,98.677 293.657,0"
           style="fill:none;stroke:#d0d0e0;stroke-opacity:1;stroke-width:0.566929;stroke-linecap:butt;stroke-linejoin:miter;stroke-miterlimit:10;stroke-dasharray:1.417323,1.417323;stroke-dashoffset:0"
           id="path54" /></g></g><g
       id="g56"><g
         id="g58"
         clip-path="url(#clipPath60)"><path
           d="m 55.648,137.017 293.657,0"
           style="fill:none;stroke:#d0d0e0;stroke-opacity:1;stroke-width:0.566929;stroke-linecap:butt;stroke-linejoin:miter;stroke-miterlimit:10;stroke-dasharray:1.417323,1.417323;stroke-dashoffset:0"
           id="path64" /></g></g><g
       id="g66"><g
         id="g68"
         clip-path="url(#clipPath70)"><path
           d="m 55.648,175.356 293.657,0"
           style="fill:none;stroke:#d0d0e0;stroke-opacity:1;stroke-width:0.566929;stroke-linecap:butt;stroke-linejoin:miter;stroke-miterlimit:10;stroke-dasharray:1.417323,1.417323;stroke-dashoffset:0"
           id="path74" /></g></g><g
       id="g76"><g
         id="g78"
         clip-path="url(#clipPath80)"><path
           d="m 55.648,213.7 293.657,0"
           style="fill:none;stroke:#d0d0e0;stroke-opacity:1;stroke-width:0.566929;stroke-linecap:butt;stroke-linejoin:miter;stroke-miterlimit:10;stroke-dasharray:1.417323,1.417323;stroke-dashoffset:0"
           id="path84" /></g></g><g
       id="g86"><g
         id="g88"
         clip-path="url(#clipPath90)"><path
           d="m 61.316,219.368 0,-164.703"
           style="fill:none;stroke:#d0d0e0;stroke-opacity:1;stroke-width:0.566929;stroke-linecap:butt;stroke-linejoin:miter;stroke-miterlimit:10;stroke-dasharray:1.417323,1.417323;stroke-dashoffset:0"
           id="path94" /></g></g><g
       id="g96"><g
         id="g98"
         clip-path="url(#clipPath100)"><path
           d="m 202.477,219.368 0,-164.703"
           style="fill:none;stroke:#d0d0e0;stroke-opacity:1;stroke-width:0.566929;stroke-linecap:butt;stroke-linejoin:miter;stroke-miterlimit:10;stroke-dasharray:1.417323,1.417323;stroke-dashoffset:0"
           id="path104" /></g></g><g
       id="g106"><g
         id="g108"
         clip-path="url(#clipPath110)"><path
           d="m 343.633,219.368 0,-164.703"
           style="fill:none;stroke:#d0d0e0;stroke-opacity:1;stroke-width:0.566929;stroke-linecap:butt;stroke-linejoin:miter;stroke-miterlimit:10;stroke-dasharray:1.417323,1.417323;stroke-dashoffset:0"
           id="path114" /></g></g><g
       id="g180"><path
         d="m 343.633,98.317 -2.82,0.285 -2.825,0.29 -2.824,0.281 -2.82,0.285 -2.824,0.285 -5.649,0.563 -2.82,0.281 -2.824,0.281 -2.825,0.277 -2.824,0.282 -2.82,0.281 -2.824,0.277 -2.825,0.282 -2.82,0.277 -5.648,0.562 -2.825,0.278 -2.82,0.281 -8.473,0.844 -2.82,0.285 -2.824,0.281 -5.649,0.57 -2.82,0.29 -5.648,0.578 -2.821,0.293 -5.648,0.586 -2.824,0.296 -2.821,0.301 -2.824,0.301 -5.648,0.609 -2.821,0.309 -2.824,0.312 -2.824,0.317 -2.82,0.316 -5.649,0.649 -2.824,0.328 -2.82,0.336 -2.824,0.336 -2.825,0.343 -2.824,0.348 -2.82,0.352 -2.824,0.359 -2.825,0.363 -2.824,0.371 -2.82,0.375 -2.824,0.204 -2.825,0.21 -2.82,0.219 -2.824,0.227 -2.824,0.234 -2.825,0.242 -2.82,0.254 -2.824,0.262 -2.824,0.27 -2.825,0.281 -2.82,0.289 -2.824,0.305 -2.824,0.234 -2.821,0.246 -2.824,0.258 -2.824,0.273 -2.824,-0.035 -2.821,-0.023 -2.824,-0.004 -2.824,0.008 -2.824,0.023 -2.821,0.039 -2.824,0.055 -2.824,0.07 -2.82,0.09 -2.825,0.105 -2.824,0.125 -2.824,0.141 -2.82,0.164 -2.824,0.184 -2.825,0.207 -2.824,0.23 -2.82,0.254 -2.824,0.152 -2.825,0.18 -2.824,0.207 -2.82,0.238 -2.824,0.27 -2.825,0.305 -2.82,0.32 -2.824,0.359 -2.824,0.403 -2.825,0.445 -2.82,0.496 -2.824,0.547 -2.824,0.605 0,29.86 2.824,0.707 2.824,0.648 2.82,0.594 2.825,0.547 2.824,0.504 2.824,0.461 2.82,0.422 2.825,0.511 2.824,0.477 2.82,0.449 2.824,0.414 2.825,0.391 2.824,0.363 2.82,0.606 2.824,0.585 2.825,0.563 2.824,0.539 2.82,0.52 2.824,0.5 2.824,0.48 2.825,0.465 2.82,0.449 2.824,0.43 2.824,0.414 2.821,0.398 2.824,0.387 2.824,0.371 2.824,0.356 2.821,0.343 2.824,0.328 2.824,0.348 2.824,0.336 2.821,0.32 2.824,0.313 2.824,0.512 2.82,0.503 2.825,0.493 2.824,0.48 2.824,0.473 2.82,0.465 2.825,0.457 2.824,0.449 2.824,0.441 2.82,0.43 2.825,0.43 2.824,0.418 2.82,0.589 2.824,0.582 2.825,0.575 2.824,0.57 2.82,0.566 2.824,0.563 5.649,1.109 2.82,0.547 2.824,0.547 2.825,0.543 2.824,0.539 2.82,0.535 5.648,1.063 2.821,0.527 2.824,0.527 2.824,0.524 2.824,0.519 2.821,0.52 2.824,0.519 5.648,1.032 2.821,0.515 5.648,1.024 2.82,0.511 5.649,1.024 2.824,0.508 2.82,0.511 5.649,1.016 2.824,0.512 2.82,0.508 2.825,0.507 2.824,0.512 2.824,0.508 2.82,0.512 2.825,0.511 2.824,0.508 2.82,0.516 5.649,1.023 2.824,0.516 2.82,0.516 2.824,0.515 5.649,1.039 2.82,0.52 2.824,0.519 2.825,0.524 2.82,0.527 0,-105.012 z"
         style="fill:#bde8ff;fill-opacity:1;fill-rule:nonzero;stroke:none"
         id="path184" /><text
         transform="matrix(1,0,0,-1,40.8125,57.33686)"
         id="text186"><tspan
           style="fill:#6c606b;fill-opacity:1;fill-rule:nonzero;stroke:none;font-family:Tahoma;font-variant:normal;font-weight:normal;font-size:8;writing-mode:lr;-inkscape-font-specification:Tahoma"
           x="0 2.904 7.264"
           y="0"
           sodipodi:role="line"
           id="tspan188">-50</tspan><tspan
           style="fill:#6c606b;fill-opacity:1;fill-rule:nonzero;stroke:none;font-family:Tahoma;font-variant:normal;font-weight:normal;font-size:8;writing-mode:lr;-inkscape-font-specification:Tahoma"
           x="7"
           y="-38.33984"
           id="tspan190">0</tspan><tspan
           style="fill:#6c606b;fill-opacity:1;fill-rule:nonzero;stroke:none;font-family:Tahoma;font-variant:normal;font-weight:normal;font-size:8;writing-mode:lr;-inkscape-font-specification:Tahoma"
           x="3 7.36"
           y="-76.67968"
           sodipodi:role="line"
           id="tspan192">50</tspan><tspan
           style="fill:#6c606b;fill-opacity:1;fill-rule:nonzero;stroke:none;font-family:Tahoma;font-variant:normal;font-weight:normal;font-size:8;writing-mode:lr;-inkscape-font-specification:Tahoma"
           x="-2 2.36 6.72"
           y="-115.01952"
           sodipodi:role="line"
           id="tspan194">100</tspan><tspan
           style="fill:#6c606b;fill-opacity:1;fill-rule:nonzero;stroke:none;font-family:Tahoma;font-variant:normal;font-weight:normal;font-size:8;writing-mode:lr;-inkscape-font-specification:Tahoma"
           x="-2 2.36 6.72"
           y="-153.36327"
           sodipodi:role="line"
           id="tspan196">150</tspan></text>
<text
         transform="matrix(0,1,1,0,23.792969,112.51655)"
         id="text198"><tspan
           style="fill:#564a55;fill-opacity:1;fill-rule:nonzero;stroke:none;font-family:Tahoma;font-variant:normal;font-weight:normal;font-size:11;writing-mode:lr;-inkscape-font-specification:Tahoma"
           x="0 6.589 15.818 21.89 24.398 26.906 30.58 36.707 42.779"
           y="0"
           sodipodi:role="line"
           id="tspan200">Amplitude</tspan></text>
<text
         transform="matrix(1,0,0,-1,107.97656,227.03608)"
         id="text202"><tspan
           style="fill:#564a55;fill-opacity:1;fill-rule:nonzero;stroke:none;font-family:Tahoma;font-variant:normal;font-weight:normal;font-size:11;writing-mode:lr;-inkscape-font-specification:Tahoma"
           x="0 6.82 12.606 16.104 18.612 24.398 29.469 33.143 35.651 41.613 47.74 51.172 55.374 61.369 64.691 70.686 76.681 80.003 85.998 91.993 96.195 99.517 102.949 109.769 115.555 120.461 126.423 128.931 135.058 138.732 141.24 147.202 153.329 157.212 160.644 166.639 169.961 175.956 181.951"
           y="0"
           sodipodi:role="line"
           id="tspan204">Reflection [0,17,48]. Resolution: 2.54A</tspan></text>
<path
         d="m 64.141,105.099 279.492,0"
         style="fill:none;stroke:#00e5b2;stroke-opacity:1;stroke-width:2;stroke-linecap:butt;stroke-linejoin:miter;stroke-miterlimit:10;stroke-dasharray:none"
         id="path182" /></g><text
       style="font-size:6.68168163px"
       y="-234.73831"
       x="292.00183"
       id="text22-7-1"
       transform="scale(1,-1)"><tspan
         style="font-size:4.4544549px;font-variant:normal;font-weight:normal;writing-mode:lr-tb;fill:#4c404b;fill-opacity:1;fill-rule:nonzero;stroke:none;font-family:Tahoma;-inkscape-font-specification:Tahoma"
         sodipodi:role="line"
         id="tspan26-0-7"
         x="292.00183"
         y="-234.73831">o</tspan><tspan
         style="font-size:4.4544549px;font-variant:normal;font-weight:normal;writing-mode:lr-tb;fill:#4c404b;fill-opacity:1;fill-rule:nonzero;stroke:none;font-family:Tahoma;-inkscape-font-specification:Tahoma"
         x="292.00183 292.00183 292.00183 292.00183 292.00183 292.00183 292.00183 292.00183 295.15112 297.60999 299.59665 301.93973 303.5433 305.76163 308.09579 309.58356 310.59918 313.01349 315.49463 316.88443 320.03372 322.08722 324.14072 326.62186 328.22543 330.56848 333.04962 335.10312"
         y="-229.01364 -229.01364 -229.01364 -229.01364 -229.01364 -229.01364 -229.01364 -229.01364"
         sodipodi:role="line"
         id="tspan3869-9-4" /></text>
<g
       id="g170"><g
         id="g172"
         clip-path="url(#clipPath174)"><path
           d="m 194.008,219.368 0,-164.703"
           style="fill:none;stroke:#d4ca3a;stroke-opacity:1;stroke-width:1;stroke-linecap:butt;stroke-linejoin:miter;stroke-miterlimit:10;stroke-dasharray:none"
           id="path178" /></g></g><g
       id="g160"><g
         id="g162"
         clip-path="url(#clipPath164)"><path
           d="m 160.129,219.368 0,-164.703"
           style="fill:none;stroke:#d4ca3a;stroke-opacity:1;stroke-width:1;stroke-linecap:butt;stroke-linejoin:miter;stroke-miterlimit:10;stroke-dasharray:none"
           id="path168" /></g></g><g
       id="g150"><g
         id="g152"
         clip-path="url(#clipPath154)"><path
           d="m 148.836,219.368 0,-164.703"
           style="fill:none;stroke:#d4ca3a;stroke-opacity:1;stroke-width:1;stroke-linecap:butt;stroke-linejoin:miter;stroke-miterlimit:10;stroke-dasharray:none"
           id="path158" /></g></g><g
       id="g140"><g
         id="g142"
         clip-path="url(#clipPath144)"><path
           d="m 100.844,219.368 0,-164.703"
           style="fill:none;stroke:#d4ca3a;stroke-opacity:1;stroke-width:1;stroke-linecap:butt;stroke-linejoin:miter;stroke-miterlimit:10;stroke-dasharray:none"
           id="path148" /></g></g><g
       id="g130"><g
         id="g132"
         clip-path="url(#clipPath134)"><path
           d="m 83.902,219.368 0,-164.703"
           style="fill:none;stroke:#d4ca3a;stroke-opacity:1;stroke-width:1;stroke-linecap:butt;stroke-linejoin:miter;stroke-miterlimit:10;stroke-dasharray:none"
           id="path138" /></g></g><g
       id="g120"><g
         id="g122"
         clip-path="url(#clipPath124)"><path
           d="m 64.141,219.368 0,-164.703"
           style="fill:none;stroke:#d4ca3a;stroke-opacity:1;stroke-width:1;stroke-linecap:butt;stroke-linejoin:miter;stroke-miterlimit:10;stroke-dasharray:none"
           id="path128" /></g></g><g
       id="g116"><path
         d="m 64.141,139.411 5.648,0.102 2.82,0.05 2.825,0.047 5.648,0.102 2.82,0.055 2.825,0.101 2.824,0.106 2.82,0.101 8.473,0.317 2.82,0.175 2.824,0.176 5.649,0.359 2.82,0.176 8.473,0.539 2.82,0.176 2.824,0.18 2.824,0.183 2.821,0.18 5.648,0.359 2.824,0.184 2.821,0.18 2.824,0.183 2.824,0.035 2.824,0.04 2.821,0.039 2.824,0.039 2.824,0.105 2.82,0.106 8.473,0.316 2.82,0.105 2.825,0.11 5.648,0.211 2.82,0.109 2.825,0.106 2.824,0.109 2.82,0.105 5.649,0.211 2.824,0.11 2.82,0.105 2.824,0.106 2.825,0.109 2.824,0.106 2.82,0.109 2.824,0.105 5.649,0.219 2.82,0.11 5.648,0.218 2.821,0.11 8.472,0.328 2.821,0.109 2.824,0.113 5.648,0.219 2.821,0.113 2.824,0.114 2.824,0.109 2.82,0.113 8.473,0.34 2.82,0.114 8.473,0.339 2.82,0.114 2.825,0.113 2.824,0.117 2.824,0.113 2.82,0.118 2.825,0.113 2.824,0.117 2.82,0.117 2.824,0.117 2.825,0.114 2.824,0.117 2.82,0.117 2.824,0.117 2.825,0.121 2.824,0.118 2.82,0.117 2.824,0.117 2.825,0.121 2.82,0.117"
         style="fill:none;stroke:#00bfff;stroke-opacity:1;stroke-width:2;stroke-linecap:butt;stroke-linejoin:miter;stroke-miterlimit:10;stroke-dasharray:none"
         id="path118" /></g></g></svg>