<?xml version="1.0" encoding="UTF-8" standalone="no"?>
<!-- Created with Inkscape (http://www.inkscape.org/) -->

<svg
   xmlns:dc="http://purl.org/dc/elements/1.1/"
   xmlns:cc="http://creativecommons.org/ns#"
   xmlns:rdf="http://www.w3.org/1999/02/22-rdf-syntax-ns#"
   xmlns:svg="http://www.w3.org/2000/svg"
   xmlns="http://www.w3.org/2000/svg"
   xmlns:sodipodi="http://sodipodi.sourceforge.net/DTD/sodipodi-0.dtd"
   xmlns:inkscape="http://www.inkscape.org/namespaces/inkscape"
   id="svg2"
   version="1.1"
   inkscape:version="0.48.5 r10040"
   width="566.92913"
   height="318.89764"
   xml:space="preserve"
   sodipodi:docname="SmoothedPlot_8,9,4_res6.pdf"><metadata
     id="metadata8"><rdf:RDF><cc:Work
         rdf:about=""><dc:format>image/svg+xml</dc:format><dc:type
           rdf:resource="http://purl.org/dc/dcmitype/StillImage" /><dc:title></dc:title></cc:Work></rdf:RDF></metadata><defs
     id="defs6"><clipPath
       clipPathUnits="userSpaceOnUse"
       id="clipPath40"><path
         d="m 55.648,61.118 293.656,0 0,-2 -293.656,0 0,2 z"
         id="path42" /></clipPath><clipPath
       clipPathUnits="userSpaceOnUse"
       id="clipPath50"><path
         d="m 55.648,92.118 293.656,0 0,-2 -293.656,0 0,2 z"
         id="path52" /></clipPath><clipPath
       clipPathUnits="userSpaceOnUse"
       id="clipPath60"><path
         d="m 55.648,122.118 293.656,0 0,-1 -293.656,0 0,1 z"
         id="path62" /></clipPath><clipPath
       clipPathUnits="userSpaceOnUse"
       id="clipPath70"><path
         d="m 55.648,153.118 293.656,0 0,-2 -293.656,0 0,2 z"
         id="path72" /></clipPath><clipPath
       clipPathUnits="userSpaceOnUse"
       id="clipPath80"><path
         d="m 55.648,184.118 293.656,0 0,-2 -293.656,0 0,2 z"
         id="path82" /></clipPath><clipPath
       clipPathUnits="userSpaceOnUse"
       id="clipPath90"><path
         d="m 55.648,214.118 293.656,0 0,-1 -293.656,0 0,1 z"
         id="path92" /></clipPath><clipPath
       clipPathUnits="userSpaceOnUse"
       id="clipPath100"><path
         d="m 61,219.368 1,0 0,-164.703 -1,0 0,164.703 z"
         id="path102" /></clipPath><clipPath
       clipPathUnits="userSpaceOnUse"
       id="clipPath110"><path
         d="m 202,219.368 1,0 0,-164.703 -1,0 0,164.703 z"
         id="path112" /></clipPath><clipPath
       clipPathUnits="userSpaceOnUse"
       id="clipPath120"><path
         d="m 343,219.368 1,0 0,-164.703 -1,0 0,164.703 z"
         id="path122" /></clipPath><clipPath
       clipPathUnits="userSpaceOnUse"
       id="clipPath134"><path
         d="m 136,219.368 3,0 0,-164.703 -3,0 0,164.703 z"
         id="path136" /></clipPath><clipPath
       clipPathUnits="userSpaceOnUse"
       id="clipPath144"><path
         d="m 184,219.368 3,0 0,-164.703 -3,0 0,164.703 z"
         id="path146" /></clipPath><clipPath
       clipPathUnits="userSpaceOnUse"
       id="clipPath154"><path
         d="m 213,219.368 2,0 0,-164.703 -2,0 0,164.703 z"
         id="path156" /></clipPath><clipPath
       clipPathUnits="userSpaceOnUse"
       id="clipPath164"><path
         d="m 277,219.368 3,0 0,-164.703 -3,0 0,164.703 z"
         id="path166" /></clipPath><clipPath
       clipPathUnits="userSpaceOnUse"
       id="clipPath174"><path
         d="m 297,219.368 3,0 0,-164.703 -3,0 0,164.703 z"
         id="path176" /></clipPath><clipPath
       clipPathUnits="userSpaceOnUse"
       id="clipPath184"><path
         d="m 303,219.368 2,0 0,-164.703 -2,0 0,164.703 z"
         id="path186" /></clipPath><clipPath
       clipPathUnits="userSpaceOnUse"
       id="clipPath194"><path
         d="m 323,219.368 2,0 0,-164.703 -2,0 0,164.703 z"
         id="path196" /></clipPath><clipPath
       clipPathUnits="userSpaceOnUse"
       id="clipPath204"><path
         d="m 331,219.368 3,0 0,-164.703 -3,0 0,164.703 z"
         id="path206" /></clipPath></defs><sodipodi:namedview
     pagecolor="#ffffff"
     bordercolor="#666666"
     borderopacity="1"
     objecttolerance="10"
     gridtolerance="10"
     guidetolerance="10"
     inkscape:pageopacity="0"
     inkscape:pageshadow="2"
     inkscape:window-width="1600"
     inkscape:window-height="837"
     id="namedview4"
     showgrid="false"
     inkscape:zoom="1.3723055"
     inkscape:cx="199.485"
     inkscape:cy="246.54363"
     inkscape:window-x="-8"
     inkscape:window-y="-8"
     inkscape:window-maximized="1"
     inkscape:current-layer="g10" /><g
     id="g10"
     inkscape:groupmode="layer"
     inkscape:label="SmoothedPlot_8,9,4_res6"
     transform="matrix(1.25,0,0,-1.25,0,318.89764)"><g
       id="g12"><text
         transform="matrix(1,0,0,-1,165.97656,21.914985)"
         id="text14"><tspan
           style="fill:#564a55;fill-opacity:1;fill-rule:nonzero;stroke:none;font-family:Tahoma;font-variant:normal;font-weight:normal;font-size:11;writing-mode:lr;-inkscape-font-specification:Tahoma"
           x="0 4.103 13.332 19.096 25.168 30.954 34.386 41.723 47.85 57.079 63.151 68.937"
           y="0"
           sodipodi:role="line"
           id="tspan16">Image Number</tspan></text>
<text
         transform="matrix(1,0,0,-1,58.816406,43.832954)"
         id="text18"><tspan
           style="fill:#6c606b;fill-opacity:1;fill-rule:nonzero;stroke:none;font-family:Tahoma;font-variant:normal;font-weight:normal;font-size:8;writing-mode:lr;-inkscape-font-specification:Tahoma"
           x="0 139.16016 143.52016 277.816408 282.176408 286.536408"
           y="0"
           sodipodi:role="line"
           id="tspan20">050100</tspan></text>
<text
         style="font-size:12px"
         y="-149.76553"
         x="353.85129"
         id="text32"
         transform="scale(1,-1)"><tspan
           style="font-size:11px;font-variant:normal;font-weight:normal;writing-mode:lr-tb;fill:#362a35;fill-opacity:1;fill-rule:nonzero;stroke:none;font-family:Tahoma;-inkscape-font-specification:Tahoma"
           x="353.85129 360.45129 366.4133 368.9213 374.8833 381.01028 384.97031 388.40228 394.85928 400.64529"
           y="-149.76553"
           sodipodi:role="line"
           id="tspan34">Colour Key</tspan></text>
<text
         style="font-size:12px"
         y="-137.24042"
         x="360.78629"
         id="text22"
         transform="scale(1,-1)"><tspan
           style="font-size:8px;font-variant:normal;font-weight:normal;writing-mode:lr-tb;fill:#4c404b;fill-opacity:1;fill-rule:nonzero;stroke:none;font-family:Tahoma;-inkscape-font-specification:Tahoma"
           x="360.78629 365.24228 371.95428 376.29028 380.62628 383.29828 387.75427 391.96228 396.37827 398.87427 403.08228 406.65027 409.32227 411.14627 417.85828 422.05029 424.72229"
           y="-137.24042"
           sodipodi:role="line"
           id="tspan24">Smoothed estimate</tspan><tspan
           style="font-size:8px;font-variant:normal;font-weight:normal;writing-mode:lr-tb;fill:#4c404b;fill-opacity:1;fill-rule:nonzero;stroke:none;font-family:Tahoma;-inkscape-font-specification:Tahoma"
           x="360.78629 366.44229 370.85828 374.42627 378.63428 381.51428 385.49829 389.69028 392.36227 394.18628 398.52228 402.97827 405.47427 411.13028 414.81827 418.50629 422.96228 425.84229 430.05029 434.50629 438.19427"
           y="-126.95917"
           sodipodi:role="line"
           id="tspan26">Observation Occurence</tspan><tspan
           style="font-size:8px;font-variant:normal;font-weight:normal;writing-mode:lr-tb;fill:#4c404b;fill-opacity:1;fill-rule:nonzero;stroke:none;font-family:Tahoma;-inkscape-font-specification:Tahoma"
           x="360.78629 360.78629 360.78629 360.78629 360.78629 360.78629 360.78629 360.78629 366.44229 370.85828 374.42627 378.63428 381.51428 385.49829 389.69028 392.36227 394.18628 398.52228 402.97827 405.47427 411.13028 414.81827 418.50629 422.96228 425.84229 430.05029 434.50629 438.19427"
           y="-126.95917 -126.95917 -126.95917 -126.95917 -126.95917 -126.95917 -126.95917 -126.95917"
           sodipodi:role="line"
           id="tspan3869" /></text>
<path
         d="m 354.20579,142.81086 5.141,0 0,-5.14101 -5.141,0 0,5.14101 z"
         style="fill:#00bfff;fill-opacity:1;fill-rule:nonzero;stroke:none"
         id="path28"
         inkscape:connector-curvature="0" /><path
         d="m 354.20579,132.78502 5.141,0 0,-5.141 -5.141,0 0,5.141 z"
         style="fill:#d4ca3a;fill-opacity:1;fill-rule:nonzero;stroke:none"
         id="path30"
         inkscape:connector-curvature="0" /><path
         inkscape:connector-curvature="0"
         d="m 354.20579,122.75918 5.141,0 0,-5.141 -5.141,0 0,5.141 z"
         style="fill:#00e5b2;fill-opacity:1;fill-rule:nonzero;stroke:none"
         id="path30-1" /><text
         style="font-size:12px"
         y="-117.35801"
         x="360.78629"
         id="text22-7"
         transform="scale(1,-1)"><tspan
           style="font-size:8px;font-variant:normal;font-weight:normal;writing-mode:lr-tb;fill:#4c404b;fill-opacity:1;fill-rule:nonzero;stroke:none;font-family:Tahoma;-inkscape-font-specification:Tahoma"
           sodipodi:role="line"
           id="tspan26-0"
           x="360.78629"
           y="-117.35801">CTruncate estimate</tspan><tspan
           style="font-size:8px;font-variant:normal;font-weight:normal;writing-mode:lr-tb;fill:#4c404b;fill-opacity:1;fill-rule:nonzero;stroke:none;font-family:Tahoma;-inkscape-font-specification:Tahoma"
           x="360.78629 360.78629 360.78629 360.78629 360.78629 360.78629 360.78629 360.78629 366.44229 370.85831 374.4263 378.63431 381.51428 385.49829 389.69031 392.3623 394.18631 398.52231 402.9783 405.4743 411.13031 414.8183 418.50629 422.96231 425.84229 430.05029 434.50629 438.19431"
           y="-107.07675 -107.07675 -107.07675 -107.07675 -107.07675 -107.07675 -107.07675 -107.07675"
           sodipodi:role="line"
           id="tspan3869-9" /></text>
</g><g
       id="g36"><g
         id="g38"
         clip-path="url(#clipPath40)"><path
           d="m 55.648,60.337 293.657,0"
           style="fill:none;stroke:#d0d0e0;stroke-opacity:1;stroke-width:0.566929;stroke-linecap:butt;stroke-linejoin:miter;stroke-miterlimit:10;stroke-dasharray:1.417323,1.417323;stroke-dashoffset:0"
           id="path44" /></g></g><g
       id="g46"><g
         id="g48"
         clip-path="url(#clipPath50)"><path
           d="m 55.648,91.009 293.657,0"
           style="fill:none;stroke:#d0d0e0;stroke-opacity:1;stroke-width:0.566929;stroke-linecap:butt;stroke-linejoin:miter;stroke-miterlimit:10;stroke-dasharray:1.417323,1.417323;stroke-dashoffset:0"
           id="path54" /></g></g><g
       id="g56"><g
         id="g58"
         clip-path="url(#clipPath60)"><path
           d="m 55.648,121.681 293.657,0"
           style="fill:none;stroke:#d0d0e0;stroke-opacity:1;stroke-width:0.566929;stroke-linecap:butt;stroke-linejoin:miter;stroke-miterlimit:10;stroke-dasharray:1.417323,1.417323;stroke-dashoffset:0"
           id="path64" /></g></g><g
       id="g66"><g
         id="g68"
         clip-path="url(#clipPath70)"><path
           d="m 55.648,152.352 293.657,0"
           style="fill:none;stroke:#d0d0e0;stroke-opacity:1;stroke-width:0.566929;stroke-linecap:butt;stroke-linejoin:miter;stroke-miterlimit:10;stroke-dasharray:1.417323,1.417323;stroke-dashoffset:0"
           id="path74" /></g></g><g
       id="g76"><g
         id="g78"
         clip-path="url(#clipPath80)"><path
           d="m 55.648,183.028 293.657,0"
           style="fill:none;stroke:#d0d0e0;stroke-opacity:1;stroke-width:0.566929;stroke-linecap:butt;stroke-linejoin:miter;stroke-miterlimit:10;stroke-dasharray:1.417323,1.417323;stroke-dashoffset:0"
           id="path84" /></g></g><g
       id="g86"><g
         id="g88"
         clip-path="url(#clipPath90)"><path
           d="m 55.648,213.7 293.657,0"
           style="fill:none;stroke:#d0d0e0;stroke-opacity:1;stroke-width:0.566929;stroke-linecap:butt;stroke-linejoin:miter;stroke-miterlimit:10;stroke-dasharray:1.417323,1.417323;stroke-dashoffset:0"
           id="path94" /></g></g><g
       id="g96"><g
         id="g98"
         clip-path="url(#clipPath100)"><path
           d="m 61.316,219.368 0,-164.703"
           style="fill:none;stroke:#d0d0e0;stroke-opacity:1;stroke-width:0.566929;stroke-linecap:butt;stroke-linejoin:miter;stroke-miterlimit:10;stroke-dasharray:1.417323,1.417323;stroke-dashoffset:0"
           id="path104" /></g></g><g
       id="g106"><g
         id="g108"
         clip-path="url(#clipPath110)"><path
           d="m 202.477,219.368 0,-164.703"
           style="fill:none;stroke:#d0d0e0;stroke-opacity:1;stroke-width:0.566929;stroke-linecap:butt;stroke-linejoin:miter;stroke-miterlimit:10;stroke-dasharray:1.417323,1.417323;stroke-dashoffset:0"
           id="path114" /></g></g><g
       id="g116"><g
         id="g118"
         clip-path="url(#clipPath120)"><path
           d="m 343.633,219.368 0,-164.703"
           style="fill:none;stroke:#d0d0e0;stroke-opacity:1;stroke-width:0.566929;stroke-linecap:butt;stroke-linejoin:miter;stroke-miterlimit:10;stroke-dasharray:1.417323,1.417323;stroke-dashoffset:0"
           id="path124" /></g></g><g
       id="g210"><path
         d="m 343.633,141.392 -2.82,2.55 -2.825,2.766 -2.824,3.25 -2.82,4.289 -2.824,-4.812 -2.825,-2.918 -2.824,-0.801 -2.82,2.09 -2.824,3.265 -2.825,3.918 -2.824,4.461 -2.82,5.082 -2.824,5.938 -2.825,7.394 -2.82,-9.621 -2.824,-6.914 -2.824,-4.531 -2.825,-2.805 -2.82,-1.742 -2.824,-0.891 -2.824,-0.058 -2.825,0.933 -2.82,2.418 -2.824,-4.875 -2.824,-3.535 -2.825,-2.758 -2.82,-2.226 -2.824,-1.836 -2.824,-1.535 -2.821,-1.289 -2.824,-1.09 -2.824,-0.918 -2.824,-0.77 -2.821,-0.636 -2.824,-0.512 -2.824,-0.391 -2.824,-0.265 -2.821,-0.137 -2.824,0.012 -2.824,0.179 -2.82,0.391 -2.824,0.652 -2.825,1.004 -2.824,1.496 -2.82,2.238 -2.824,3.579 -2.825,-5.715 -2.824,-4.227 -2.82,-3.297 -2.824,-2.601 -2.825,-2.008 -2.824,-1.457 -2.82,-0.883 -2.824,-0.226 -2.825,0.644 -2.82,2.059 -2.824,-5.621 -2.824,-4.207 -2.825,-3.372 -2.82,-2.781 -2.824,-2.328 -2.824,-1.957 -2.825,-1.637 -2.82,-1.355 -2.824,-1.086 -2.824,-0.832 -2.821,-0.567 -2.824,-0.277 -2.824,0.047 -2.824,0.445 -2.821,0.965 -2.824,1.719 -2.824,3.035 -2.824,-3.875 -2.821,-2.644 -2.824,-1.965 -2.824,-1.528 -2.82,-1.214 -2.825,-0.977 -2.824,-0.801 -2.824,-0.66 -2.82,-0.543 -2.824,-0.449 -2.825,-0.371 -2.824,-0.301 -2.82,-0.246 -2.824,-0.192 -2.825,-0.14 -2.824,-0.094 -2.82,-0.047 -2.824,0.004 -2.825,0.059 -2.82,0.121 -2.824,0.187 -2.824,0.27 -2.825,0.371 -2.82,0.492 -2.824,0.641 -2.824,0.832 0,46.258 2.824,0.988 2.824,0.797 2.82,0.644 2.825,0.524 2.824,0.422 2.824,0.339 2.82,0.27 2.825,0.207 2.824,0.152 2.82,0.098 2.824,0.051 2.825,0 2.824,-0.051 2.82,-0.109 2.824,-0.168 2.825,-0.239 2.824,-0.32 2.82,-0.422 2.824,-0.535 2.824,-0.684 2.825,-0.867 2.82,-1.109 2.824,-1.426 2.824,-1.871 2.821,-2.555 2.824,-3.793 2.824,4.715 2.824,3.414 2.821,2.68 2.824,2.191 2.824,1.84 2.824,1.57 2.821,1.36 2.824,1.18 2.824,1.027 2.82,0.883 2.825,0.73 2.824,0.57 2.824,0.372 2.82,0.113 2.825,-0.262 2.824,-0.859 2.824,-2.008 2.82,5.156 2.825,3.758 2.824,2.934 2.82,2.347 2.824,1.883 2.825,1.465 2.824,1.043 2.82,0.543 2.824,-0.145 2.825,-1.359 2.824,4.211 2.82,2.875 2.824,2.133 2.825,1.66 2.824,1.328 2.82,1.086 2.824,0.906 2.824,0.774 2.821,0.664 2.824,0.586 2.824,0.511 2.824,0.457 2.821,0.407 2.824,0.351 2.824,0.289 2.824,0.227 2.821,0.133 2.824,0.019 2.824,-0.144 2.82,-0.379 2.825,-0.735 2.824,-1.316 2.824,-2.441 2.82,3.847 2.825,2.375 2.824,1.414 2.824,0.617 2.82,-0.175 2.825,-1.161 2.824,-2.796 2.824,10.703 2.82,8.121 2.825,-1.067 2.824,-2.605 2.82,-3.688 2.824,-4.664 2.825,-5.711 2.824,-7.015 2.82,-9.004 2.824,5.824 2.825,3.754 2.824,1.969 2.82,4.496 2.824,3.461 2.825,2.98 2.82,2.758 0,-51.226 z"
         style="fill:#bde8ff;fill-opacity:1;fill-rule:nonzero;stroke:none"
         id="path214" /><text
         transform="matrix(1,0,0,-1,38.8125,57.33686)"
         id="text216"><tspan
           style="fill:#6c606b;fill-opacity:1;fill-rule:nonzero;stroke:none;font-family:Tahoma;font-variant:normal;font-weight:normal;font-size:8;writing-mode:lr;-inkscape-font-specification:Tahoma"
           x="0 4.36 8.72"
           y="0"
           sodipodi:role="line"
           id="tspan218">250</tspan><tspan
           style="fill:#6c606b;fill-opacity:1;fill-rule:nonzero;stroke:none;font-family:Tahoma;font-variant:normal;font-weight:normal;font-size:8;writing-mode:lr;-inkscape-font-specification:Tahoma"
           x="0 4.36 8.72"
           y="-30.671872"
           sodipodi:role="line"
           id="tspan220">300</tspan><tspan
           style="fill:#6c606b;fill-opacity:1;fill-rule:nonzero;stroke:none;font-family:Tahoma;font-variant:normal;font-weight:normal;font-size:8;writing-mode:lr;-inkscape-font-specification:Tahoma"
           x="0 4.36 8.72"
           y="-61.343744"
           sodipodi:role="line"
           id="tspan222">350</tspan><tspan
           style="fill:#6c606b;fill-opacity:1;fill-rule:nonzero;stroke:none;font-family:Tahoma;font-variant:normal;font-weight:normal;font-size:8;writing-mode:lr;-inkscape-font-specification:Tahoma"
           x="0 4.36 8.72"
           y="-92.015616"
           sodipodi:role="line"
           id="tspan224">400</tspan><tspan
           style="fill:#6c606b;fill-opacity:1;fill-rule:nonzero;stroke:none;font-family:Tahoma;font-variant:normal;font-weight:normal;font-size:8;writing-mode:lr;-inkscape-font-specification:Tahoma"
           x="0 4.36 8.72"
           y="-122.6914"
           sodipodi:role="line"
           id="tspan226">450</tspan><tspan
           style="fill:#6c606b;fill-opacity:1;fill-rule:nonzero;stroke:none;font-family:Tahoma;font-variant:normal;font-weight:normal;font-size:8;writing-mode:lr;-inkscape-font-specification:Tahoma"
           x="0 4.36 8.72"
           y="-153.36327"
           sodipodi:role="line"
           id="tspan228">500</tspan></text>
<text
         transform="matrix(0,1,1,0,23.792969,112.51655)"
         id="text230"><tspan
           style="fill:#564a55;fill-opacity:1;fill-rule:nonzero;stroke:none;font-family:Tahoma;font-variant:normal;font-weight:normal;font-size:11;writing-mode:lr;-inkscape-font-specification:Tahoma"
           x="0 6.589 15.818 21.89 24.398 26.906 30.58 36.707 42.779"
           y="0"
           sodipodi:role="line"
           id="tspan232">Amplitude</tspan></text>
<text
         transform="matrix(1,0,0,-1,113.97656,227.03608)"
         id="text234"><tspan
           style="fill:#564a55;fill-opacity:1;fill-rule:nonzero;stroke:none;font-family:Tahoma;font-variant:normal;font-weight:normal;font-size:11;writing-mode:lr;-inkscape-font-specification:Tahoma"
           x="0 6.82 12.606 16.104 18.612 24.398 29.469 33.143 35.651 41.613 47.74 51.172 55.374 61.369 64.691 70.686 74.008 80.003 84.205 87.527 90.959 97.779 103.565 108.471 114.433 116.941 123.068 126.742 129.25 135.212 141.339 145.222 148.654 154.649 157.971 163.966 169.961"
           y="0"
           sodipodi:role="line"
           id="tspan236">Reflection [8,9,4]. Resolution: 6.04A</tspan></text>
<path
         d="m 64.141,186.532 279.492,0"
         style="fill:#00e5b2;stroke:#00e5b2;stroke-opacity:1;stroke-width:2;stroke-linecap:butt;stroke-linejoin:miter;stroke-miterlimit:10;stroke-dasharray:none;fill-opacity:1"
         id="path212" /></g><g
       id="g130"><g
         id="g132"
         clip-path="url(#clipPath134)"><path
           d="m 137.543,219.368 0,-164.703"
           style="fill:none;stroke:#d4ca3a;stroke-opacity:1;stroke-width:1;stroke-linecap:butt;stroke-linejoin:miter;stroke-miterlimit:10;stroke-dasharray:none"
           id="path138" /></g></g><g
       id="g150"><g
         id="g152"
         clip-path="url(#clipPath154)"><path
           d="m 213.77,219.368 0,-164.703"
           style="fill:none;stroke:#d4ca3a;stroke-opacity:1;stroke-width:1;stroke-linecap:butt;stroke-linejoin:miter;stroke-miterlimit:10;stroke-dasharray:none"
           id="path158" /></g></g><g
       id="g160"><g
         id="g162"
         clip-path="url(#clipPath164)"><path
           d="m 278.703,219.368 0,-164.703"
           style="fill:none;stroke:#d4ca3a;stroke-opacity:1;stroke-width:1;stroke-linecap:butt;stroke-linejoin:miter;stroke-miterlimit:10;stroke-dasharray:none"
           id="path168" /></g></g><g
       id="g170"><g
         id="g172"
         clip-path="url(#clipPath174)"><path
           d="m 298.465,219.368 0,-164.703"
           style="fill:none;stroke:#d4ca3a;stroke-opacity:1;stroke-width:1;stroke-linecap:butt;stroke-linejoin:miter;stroke-miterlimit:10;stroke-dasharray:none"
           id="path178" /></g></g><g
       id="g180"><g
         id="g182"
         clip-path="url(#clipPath184)"><path
           d="m 304.109,219.368 0,-164.703"
           style="fill:none;stroke:#d4ca3a;stroke-opacity:1;stroke-width:1;stroke-linecap:butt;stroke-linejoin:miter;stroke-miterlimit:10;stroke-dasharray:none"
           id="path188" /></g></g><g
       id="g190"><g
         id="g192"
         clip-path="url(#clipPath194)"><path
           d="m 323.871,219.368 0,-164.703"
           style="fill:none;stroke:#d4ca3a;stroke-opacity:1;stroke-width:1;stroke-linecap:butt;stroke-linejoin:miter;stroke-miterlimit:10;stroke-dasharray:none"
           id="path198" /></g></g><g
       id="g200"><g
         id="g202"
         clip-path="url(#clipPath204)"><path
           d="m 332.344,219.368 0,-164.703"
           style="fill:none;stroke:#d4ca3a;stroke-opacity:1;stroke-width:1;stroke-linecap:butt;stroke-linejoin:miter;stroke-miterlimit:10;stroke-dasharray:none"
           id="path208" /></g></g><g
       id="g140"><g
         id="g142"
         clip-path="url(#clipPath144)"><path
           d="m 185.539,219.368 0,-164.703"
           style="fill:none;stroke:#d4ca3a;stroke-opacity:1;stroke-width:1;stroke-linecap:butt;stroke-linejoin:miter;stroke-miterlimit:10;stroke-dasharray:none"
           id="path148" /></g></g><g
       id="g126"><path
         d="m 64.141,113.97 5.648,0.156 2.82,0.078 2.825,0.074 2.824,0.078 2.824,0.075 2.82,0.074 5.649,0.148 2.82,0.074 8.473,0.211 2.82,0.067 2.824,0.07 2.825,0.067 2.824,0.062 2.82,0.063 8.473,0.175 2.82,0.051 2.824,0.051 2.824,0.047 2.821,0.043 2.824,0.043 2.824,0.84 2.824,0.847 2.821,0.856 2.824,0.875 2.824,0.894 2.824,0.926 2.821,0.961 2.824,1.008 2.824,1.058 2.82,1.118 2.825,1.183 2.824,1.266 2.824,1.347 2.82,1.45 2.825,1.554 2.824,1.672 2.824,1.809 2.82,1.547 2.825,1.558 2.824,1.578 2.82,1.618 2.824,1.668 2.825,1.738 2.824,1.82 2.82,1.922 2.824,2.039 2.825,2.18 2.824,0.312 2.82,0.321 2.824,0.32 2.825,0.328 2.824,0.336 2.82,0.348 2.824,0.363 2.824,0.379 2.821,0.402 2.824,0.426 2.824,0.453 2.824,0.484 2.821,0.52 2.824,0.559 2.824,0.605 2.824,0.656 2.821,0.715 2.824,0.777 2.824,0.844 2.82,0.926 2.825,1.012 2.824,1.109 2.824,1.215 2.82,0.715 2.825,0.722 2.824,0.735 2.824,0.754 2.82,0.785 2.825,0.82 2.824,0.867 2.824,8.809 2.82,8.871 2.825,-4.23 2.824,-4.274 2.82,-4.383 2.824,-4.562 2.825,-4.813 2.824,-5.144 2.82,-5.547 2.824,3.312 2.825,3.336 2.824,3.391 2.82,0.105 5.649,0.211 2.82,0.106"
         style="fill:none;stroke:#00bfff;stroke-opacity:1;stroke-width:2;stroke-linecap:butt;stroke-linejoin:miter;stroke-miterlimit:10;stroke-dasharray:none"
         id="path128" /></g><text
       style="font-size:6.68168163px"
       y="-234.88426"
       x="286.01877"
       id="text22-7-1"
       transform="scale(1,-1)"><tspan
         style="font-size:4.4544549px;font-variant:normal;font-weight:normal;writing-mode:lr-tb;fill:#4c404b;fill-opacity:1;fill-rule:nonzero;stroke:none;font-family:Tahoma;-inkscape-font-specification:Tahoma"
         sodipodi:role="line"
         id="tspan26-0-7"
         x="286.01877"
         y="-234.88426">o</tspan><tspan
         style="font-size:4.4544549px;font-variant:normal;font-weight:normal;writing-mode:lr-tb;fill:#4c404b;fill-opacity:1;fill-rule:nonzero;stroke:none;font-family:Tahoma;-inkscape-font-specification:Tahoma"
         x="286.01877 286.01877 286.01877 286.01877 286.01877 286.01877 286.01877 286.01877 289.16806 291.62692 293.61359 295.95667 297.56024 299.77856 302.11273 303.60049 304.61612 307.03043 309.51157 310.90137 314.05066 316.10416 318.15765 320.63879 322.24237 324.58542 327.06656 329.12006"
         y="-229.15959 -229.15959 -229.15959 -229.15959 -229.15959 -229.15959 -229.15959 -229.15959"
         sodipodi:role="line"
         id="tspan3869-9-4" /></text>
</g></svg>