<?xml version="1.0" encoding="UTF-8" standalone="no"?>
<!-- Created with Inkscape (http://www.inkscape.org/) -->

<svg
   xmlns:dc="http://purl.org/dc/elements/1.1/"
   xmlns:cc="http://creativecommons.org/ns#"
   xmlns:rdf="http://www.w3.org/1999/02/22-rdf-syntax-ns#"
   xmlns:svg="http://www.w3.org/2000/svg"
   xmlns="http://www.w3.org/2000/svg"
   xmlns:sodipodi="http://sodipodi.sourceforge.net/DTD/sodipodi-0.dtd"
   xmlns:inkscape="http://www.inkscape.org/namespaces/inkscape"
   id="svg2"
   version="1.1"
   inkscape:version="0.48.5 r10040"
   width="566.92913"
   height="318.89764"
   xml:space="preserve"
   sodipodi:docname="SmoothedPlot_0,37,11_res2.svg"><metadata
     id="metadata8"><rdf:RDF><cc:Work
         rdf:about=""><dc:format>image/svg+xml</dc:format><dc:type
           rdf:resource="http://purl.org/dc/dcmitype/StillImage" /><dc:title></dc:title></cc:Work></rdf:RDF></metadata><defs
     id="defs6"><clipPath
       clipPathUnits="userSpaceOnUse"
       id="clipPath40"><path
         d="m 55.648,61.118 293.656,0 0,-2 -293.656,0 0,2 z"
         id="path42" /></clipPath><clipPath
       clipPathUnits="userSpaceOnUse"
       id="clipPath50"><path
         d="m 55.648,112.118 293.656,0 0,-1 -293.656,0 0,1 z"
         id="path52" /></clipPath><clipPath
       clipPathUnits="userSpaceOnUse"
       id="clipPath60"><path
         d="m 55.648,163.118 293.656,0 0,-1 -293.656,0 0,1 z"
         id="path62" /></clipPath><clipPath
       clipPathUnits="userSpaceOnUse"
       id="clipPath70"><path
         d="m 55.648,214.118 293.656,0 0,-1 -293.656,0 0,1 z"
         id="path72" /></clipPath><clipPath
       clipPathUnits="userSpaceOnUse"
       id="clipPath80"><path
         d="m 61,219.368 1,0 0,-164.703 -1,0 0,164.703 z"
         id="path82" /></clipPath><clipPath
       clipPathUnits="userSpaceOnUse"
       id="clipPath90"><path
         d="m 117,219.368 2,0 0,-164.703 -2,0 0,164.703 z"
         id="path92" /></clipPath><clipPath
       clipPathUnits="userSpaceOnUse"
       id="clipPath100"><path
         d="m 173,219.368 2,0 0,-164.703 -2,0 0,164.703 z"
         id="path102" /></clipPath><clipPath
       clipPathUnits="userSpaceOnUse"
       id="clipPath110"><path
         d="m 230,219.368 1,0 0,-164.703 -1,0 0,164.703 z"
         id="path112" /></clipPath><clipPath
       clipPathUnits="userSpaceOnUse"
       id="clipPath120"><path
         d="m 286,219.368 2,0 0,-164.703 -2,0 0,164.703 z"
         id="path122" /></clipPath><clipPath
       clipPathUnits="userSpaceOnUse"
       id="clipPath130"><path
         d="m 343,219.368 1,0 0,-164.703 -1,0 0,164.703 z"
         id="path132" /></clipPath><clipPath
       clipPathUnits="userSpaceOnUse"
       id="clipPath144"><path
         d="m 149,219.368 3,0 0,-164.703 -3,0 0,164.703 z"
         id="path146" /></clipPath><clipPath
       clipPathUnits="userSpaceOnUse"
       id="clipPath154"><path
         d="m 191,219.368 3,0 0,-164.703 -3,0 0,164.703 z"
         id="path156" /></clipPath><clipPath
       clipPathUnits="userSpaceOnUse"
       id="clipPath164"><path
         d="m 297,219.368 2,0 0,-164.703 -2,0 0,164.703 z"
         id="path166" /></clipPath></defs><sodipodi:namedview
     pagecolor="#ffffff"
     bordercolor="#666666"
     borderopacity="1"
     objecttolerance="10"
     gridtolerance="10"
     guidetolerance="10"
     inkscape:pageopacity="0"
     inkscape:pageshadow="2"
     inkscape:window-width="1280"
     inkscape:window-height="961"
     id="namedview4"
     showgrid="false"
     inkscape:zoom="2.8292778"
     inkscape:cx="285.37995"
     inkscape:cy="194.2204"
     inkscape:window-x="1592"
     inkscape:window-y="-8"
     inkscape:window-maximized="1"
     inkscape:current-layer="g10" /><g
     id="g10"
     inkscape:groupmode="layer"
     inkscape:label="SmoothedPlot_0,37,11_res2"
     transform="matrix(1.25,0,0,-1.25,0,318.89764)"><g
   id="g12"><text
   transform="matrix(1,0,0,-1,165.97656,21.914985)"
   id="text14"><tspan
     style="fill:#564a55;fill-opacity:1;fill-rule:nonzero;stroke:none;font-family:Tahoma;font-variant:normal;font-weight:normal;font-size:11;writing-mode:lr;-inkscape-font-specification:Tahoma"
     x="0 4.103 13.332 19.096 25.168 30.954 34.386 41.723 47.85 57.079 63.151 68.937"
     y="0"
     sodipodi:role="line"
     id="tspan16">Image Number</tspan></text>


<text
   transform="matrix(1,0,0,-1,58.816406,43.832954)"
   id="text18"><tspan
     style="fill:#6c606b;fill-opacity:1;fill-rule:nonzero;stroke:none;font-family:Tahoma;font-variant:normal;font-weight:normal;font-size:8;writing-mode:lr;-inkscape-font-specification:Tahoma"
     x="0 51.96 56.32 60.68 108.429688 112.789688 117.149688 164.869688 169.229688 173.589688 221.355472 225.715472 230.075472 277.795472 282.155472 286.515472"
     y="0"
     sodipodi:role="line"
     id="tspan20">0100200300400500</tspan></text>



<text
   transform="matrix(1,0,0,-1,352.13672,149.84858)"
   id="text32"><tspan
     style="fill:#362a35;fill-opacity:1;fill-rule:nonzero;stroke:none;font-family:Tahoma;font-variant:normal;font-weight:normal;font-size:11;writing-mode:lr;-inkscape-font-specification:Tahoma"
     x="0 6.6 12.562 15.07 21.032 27.159 31.119 34.551 41.008 46.794"
     y="0"
     sodipodi:role="line"
     id="tspan34">Colour Key</tspan></text>


</g><g
   id="g36"><g
     id="g38"
     clip-path="url(#clipPath40)"><path
       d="m 55.648,60.337 293.657,0"
       style="fill:none;stroke:#d0d0e0;stroke-opacity:1;stroke-width:0.566929;stroke-linecap:butt;stroke-linejoin:miter;stroke-miterlimit:10;stroke-dasharray:1.417323,1.417323;stroke-dashoffset:0"
       id="path44" /></g></g><g
   id="g46"><g
     id="g48"
     clip-path="url(#clipPath50)"><path
       d="m 55.648,111.458 293.657,0"
       style="fill:none;stroke:#d0d0e0;stroke-opacity:1;stroke-width:0.566929;stroke-linecap:butt;stroke-linejoin:miter;stroke-miterlimit:10;stroke-dasharray:1.417323,1.417323;stroke-dashoffset:0"
       id="path54" /></g></g><g
   id="g56"><g
     id="g58"
     clip-path="url(#clipPath60)"><path
       d="m 55.648,162.579 293.657,0"
       style="fill:none;stroke:#d0d0e0;stroke-opacity:1;stroke-width:0.566929;stroke-linecap:butt;stroke-linejoin:miter;stroke-miterlimit:10;stroke-dasharray:1.417323,1.417323;stroke-dashoffset:0"
       id="path64" /></g></g><g
   id="g66"><g
     id="g68"
     clip-path="url(#clipPath70)"><path
       d="m 55.648,213.7 293.657,0"
       style="fill:none;stroke:#d0d0e0;stroke-opacity:1;stroke-width:0.566929;stroke-linecap:butt;stroke-linejoin:miter;stroke-miterlimit:10;stroke-dasharray:1.417323,1.417323;stroke-dashoffset:0"
       id="path74" /></g></g><g
   id="g76"><g
     id="g78"
     clip-path="url(#clipPath80)"><path
       d="m 61.316,219.368 0,-164.703"
       style="fill:none;stroke:#d0d0e0;stroke-opacity:1;stroke-width:0.566929;stroke-linecap:butt;stroke-linejoin:miter;stroke-miterlimit:10;stroke-dasharray:1.417323,1.417323;stroke-dashoffset:0"
       id="path84" /></g></g><g
   id="g86"><g
     id="g88"
     clip-path="url(#clipPath90)"><path
       d="m 117.781,219.368 0,-164.703"
       style="fill:none;stroke:#d0d0e0;stroke-opacity:1;stroke-width:0.566929;stroke-linecap:butt;stroke-linejoin:miter;stroke-miterlimit:10;stroke-dasharray:1.417323,1.417323;stroke-dashoffset:0"
       id="path94" /></g></g><g
   id="g96"><g
     id="g98"
     clip-path="url(#clipPath100)"><path
       d="m 174.246,219.368 0,-164.703"
       style="fill:none;stroke:#d0d0e0;stroke-opacity:1;stroke-width:0.566929;stroke-linecap:butt;stroke-linejoin:miter;stroke-miterlimit:10;stroke-dasharray:1.417323,1.417323;stroke-dashoffset:0"
       id="path104" /></g></g><g
   id="g106"><g
     id="g108"
     clip-path="url(#clipPath110)"><path
       d="m 230.707,219.368 0,-164.703"
       style="fill:none;stroke:#d0d0e0;stroke-opacity:1;stroke-width:0.566929;stroke-linecap:butt;stroke-linejoin:miter;stroke-miterlimit:10;stroke-dasharray:1.417323,1.417323;stroke-dashoffset:0"
       id="path114" /></g></g><g
   id="g116"><g
     id="g118"
     clip-path="url(#clipPath120)"><path
       d="m 287.172,219.368 0,-164.703"
       style="fill:none;stroke:#d0d0e0;stroke-opacity:1;stroke-width:0.566929;stroke-linecap:butt;stroke-linejoin:miter;stroke-miterlimit:10;stroke-dasharray:1.417323,1.417323;stroke-dashoffset:0"
       id="path124" /></g></g><g
   id="g126"><g
     id="g128"
     clip-path="url(#clipPath130)"><path
       d="m 343.633,219.368 0,-164.703"
       style="fill:none;stroke:#d0d0e0;stroke-opacity:1;stroke-width:0.566929;stroke-linecap:butt;stroke-linejoin:miter;stroke-miterlimit:10;stroke-dasharray:1.417323,1.417323;stroke-dashoffset:0"
       id="path134" /></g></g><g
   id="g170"><path
   d="m 315.402,94.606 -0.562,0.403 -0.567,0.406 -0.562,0.41 -0.566,0.414 -0.567,0.418 -0.562,0.426 -0.567,0.426 -0.562,0.433 -0.567,0.438 -0.562,0.445 -0.567,0.449 -0.562,0.457 -0.566,0.465 -0.563,0.469 -0.566,0.477 -0.567,0.48 -0.562,0.492 -0.567,0.5 -0.562,0.508 -0.567,0.516 -0.562,0.527 -0.567,0.535 -0.562,0.551 -0.566,0.559 -0.563,0.57 -0.566,0.586 -0.567,0.597 -0.562,0.614 -0.567,0.633 -0.562,0.648 -0.567,0.668 -0.562,-0.449 -0.566,-0.426 -0.563,-0.41 -0.566,-0.395 -0.563,-0.375 -0.566,-0.363 -0.567,-0.344 -0.562,-0.336 -0.567,-0.32 -0.562,-0.309 -0.566,-0.3 -0.563,-0.286 -0.566,-0.277 -0.563,-0.266 -0.566,-0.257 -0.563,-0.246 -0.566,-0.239 -0.567,-0.23 -0.562,-0.223 -0.567,-0.215 -0.562,-0.207 -0.566,-0.199 -0.563,-0.191 -0.566,-0.184 -0.563,-0.18 -0.566,-0.172 -0.567,-0.164 -0.562,-0.16 -0.567,-0.152 -0.562,-0.149 -0.566,-0.14 -0.563,-0.137 -0.566,-0.133 -0.563,-0.125 -0.566,-0.121 -0.563,-0.113 -0.566,-0.109 -0.567,-0.106 -0.562,-0.101 -0.566,-0.094 -0.563,-0.09 -0.566,-0.09 -0.563,-0.082 -0.566,-0.078 -0.563,-0.07 -0.566,-0.071 -0.563,-0.066 -1.133,-0.117 -0.562,-0.051 -0.566,-0.051 -0.563,-0.047 -0.566,-0.039 -0.563,-0.039 -0.566,-0.031 -0.563,-0.031 -0.566,-0.028 -0.563,-0.023 -0.566,-0.02 -0.566,-0.015 -0.563,-0.012 -0.566,-0.008 -0.563,-0.008 -1.129,0 -0.566,0.008 -0.563,0.008 -0.566,0.008 -0.563,0.015 -1.132,0.04 -0.563,0.023 -0.566,0.027 -0.563,0.032 -0.566,0.035 -0.563,0.035 -0.566,0.043 -0.563,0.043 -0.566,0.047 -0.563,0.047 -1.132,0.109 -0.563,0.059 -0.566,0.062 -0.563,0.066 -0.566,0.067 -0.563,0.074 -0.566,0.074 -0.563,0.074 -0.566,0.083 -0.562,0.082 -1.133,0.179 -0.563,0.09 -0.566,0.098 -0.563,0.097 -0.566,0.106 -0.563,0.105 -0.566,0.11 -0.562,0.109 -0.567,0.117 -0.562,0.117 -0.567,0.122 -0.566,0.125 -0.563,0.128 -0.566,0.129 -0.563,0.137 -0.566,0.137 -0.563,0.14 -0.566,0.145 -0.562,0.148 -0.567,0.153 -0.562,0.156 -0.567,0.156 -0.566,0.164 -0.563,0.164 -0.566,0.168 -0.563,0.176 -0.566,0.176 -0.562,0.18 -0.567,0.183 -0.562,0.188 -0.567,0.191 -0.562,0.195 -0.567,0.2 -0.566,0.207 -0.563,0.207 -0.566,0.211 -0.562,0.214 -0.567,0.223 -0.562,0.223 -0.567,0.23 -0.562,0.235 -0.567,0.234 -0.562,0.246 -0.567,0.246 -0.566,0.254 -0.563,0.254 -0.566,0.266 -0.562,0.265 -0.567,0.274 -0.562,0.277 -0.567,0.285 -0.562,0.289 -0.567,0.293 -0.562,0.301 -0.567,0.305 -0.566,0.316 -0.562,0.316 -0.567,0.329 -0.562,0.332 -0.567,0.339 -0.562,0.344 -0.567,0.356 -0.562,0.363 -0.567,0.367 -0.562,0.379 -0.566,0.387 -0.567,0.394 -0.562,0.403 -0.567,0.414 -0.562,0.422 -0.567,0.433 -0.562,0.446 -0.567,0.453 -0.562,0.468 -0.567,0.477 -0.566,0.492 -0.562,0.508 -0.567,0.519 -0.562,0.536 -0.567,0.55 -0.562,0.571 -0.567,0.59 -0.562,0.605 -0.567,0.633 -0.562,0.652 -0.566,0.68 -0.567,0.707 -0.562,0.738 -0.567,0.774 -0.562,0.812 -0.567,0.86 -0.562,0.91 -0.567,0.972 -0.562,1.047 -0.566,1.141 -0.563,-0.735 -0.566,-0.64 -0.567,-0.567 -0.562,-0.5 -0.567,-0.449 -0.562,-0.402 -0.567,-0.363 -0.562,-0.325 -0.567,-0.293 -0.562,-0.257 -0.566,-0.235 -0.563,-0.211 -0.566,-0.183 -0.567,-0.164 -0.562,-0.141 -0.567,-0.125 -0.562,-0.105 -0.567,-0.086 -0.562,-0.071 -0.566,-0.054 -0.563,-0.043 -0.566,-0.024 -0.563,-0.015 -0.566,0.003 -0.567,0.012 -0.562,0.028 -0.567,0.035 -0.562,0.05 -0.566,0.063 -0.563,0.07 -0.566,0.082 -0.563,0.094 -0.566,0.102 -0.563,0.113 -0.566,0.125 -0.567,0.133 -0.562,0.144 -0.567,0.153 -0.562,0.16 -0.566,0.172 -0.563,0.179 -0.566,0.188 -0.563,0.199 -0.566,0.207 -0.563,0.215 -0.566,0.226 -0.567,0.231 -0.562,0.242 -0.566,0.254 -0.563,0.258 -0.566,0.269 -0.563,0.278 -0.566,0.289 -0.563,0.293 -0.566,0.304 -0.563,0.313 -0.566,0.324 -0.566,0.332 -0.563,0.344 -0.566,0.348 -0.563,0.363 -0.566,0.371 -0.563,0.379 -0.566,0.39 -0.563,0.403 -0.566,0.41 -0.563,0.422 -0.566,0.433 -0.566,0.446 -0.563,0.457 -0.566,0.465 -0.563,0.48 -0.566,0.496 -0.563,0.504 -0.566,-0.402 -0.563,-0.391 -0.566,-0.379 -0.563,-0.363 -0.566,-0.356 -0.566,-0.343 -0.563,-0.336 -0.566,-0.321 -0.563,-0.316 -0.566,-0.305 -0.563,-0.296 -0.566,-0.286 -0.563,-0.281 -0.566,-0.269 -0.562,-0.262 -0.567,-0.258 -0.566,-0.25 -0.563,-0.238 -0.566,-0.239 -0.563,-0.226 -0.566,-0.223 -0.563,-0.215 -0.566,-0.207 -0.563,-0.203 -0.566,-0.199 -0.562,-0.191 -0.567,-0.188 -0.566,-0.18 -0.563,-0.175 -0.566,-0.168 -0.563,-0.168 -0.566,-0.16 -0.563,-0.153 -0.566,-0.152 -0.562,-0.145 -0.567,-0.14 -0.562,-0.137 -0.567,-0.133 -0.566,-0.125 -0.563,-0.125 -0.566,-0.117 -0.563,-0.113 -0.566,-0.114 -0.562,-0.105 -0.567,-0.102 -0.562,-0.097 -0.567,-0.094 -0.562,-0.09 -0.567,-0.086 -0.566,-0.082 -0.563,-0.078 -0.566,-0.074 -0.563,-0.074 -0.566,-0.067 -0.562,-0.062 -0.567,-0.063 -0.562,-0.054 -0.567,-0.055 -0.566,-0.047 -0.563,-0.047 -0.566,-0.043 -0.563,-0.039 -0.566,-0.035 -0.562,-0.031 -0.567,-0.028 -0.562,-0.027 -0.567,-0.02 -0.562,-0.019 -0.567,-0.016 -0.566,-0.008 -0.563,-0.011 -0.566,-0.004 -1.129,0 -0.562,0.008 -0.567,0.007 -0.562,0.012 -0.567,0.016 -0.562,0.019 -0.567,0.02 -0.566,0.027 -0.563,0.028 -0.566,0.035 -0.562,0.035 -0.567,0.039 -0.562,0.039 -0.567,0.047 -0.562,0.051 -0.567,0.05 -0.562,0.059 -0.567,0.059 -0.566,0.062 -0.562,0.067 -0.567,0.07 -0.562,0.074 -0.567,0.078 -0.562,0.082 -0.567,0.082 -0.562,0.09 -0.567,0.094 -0.562,0.094 -1.133,0.203 -0.562,0.109 -0.567,0.109 -0.562,0.118 -0.567,0.117 -0.562,0.125 -0.567,0.129 -0.562,0.129 -0.567,0.136 -0.562,0.141 -0.566,0.145 -0.567,0.152 -0.562,0.152 -0.567,0.16 -0.562,0.161 -0.567,0.168 -0.562,0.175 -0.567,0.176 -0.562,0.184 -0.566,0.187 -0.563,0.195 -0.566,0.196 -0.567,0.207 -0.562,0.207 -0.567,0.215 -0.562,0.222 -0.567,0.227 -0.562,0.234 -0.566,0.242 -0.563,0.247 -0.566,0.25 -0.563,0.261 -0.566,0.266 -0.567,0.277 -0.562,0.282 -0.567,0.289 -0.562,0.296 -0.567,0.305 -0.562,0.317 -0.566,0.324 -0.563,0.332 -0.566,0.344 -0.563,0.351 -0.566,0.363 -0.567,0.375 -0.562,0.387 -0.567,0.399 -0.562,0.41 -0.566,0.422 -0.563,0.441 -0.566,0.453 -0.563,0.469 -0.566,0.484 -0.563,0.504 -0.566,0.524 0,42.968 0.566,0.508 0.563,0.488 0.566,0.469 0.563,0.453 0.566,0.434 0.563,0.422 0.566,0.406 0.562,0.395 0.567,0.382 0.562,0.368 0.567,0.359 0.566,0.348 0.563,0.336 0.566,0.324 0.563,0.316 0.566,0.309 0.562,0.297 0.567,0.289 0.562,0.281 0.567,0.273 0.562,0.266 0.567,0.258 0.566,0.25 0.563,0.242 0.566,0.238 0.563,0.231 0.566,0.222 0.562,0.215 0.567,0.211 0.562,0.207 0.567,0.196 0.562,0.195 0.567,0.187 0.566,0.18 0.563,0.18 0.566,0.168 0.562,0.168 0.567,0.16 0.562,0.156 0.567,0.152 0.562,0.145 0.567,0.144 0.562,0.137 0.567,0.133 0.566,0.129 0.562,0.121 0.567,0.121 0.562,0.117 0.567,0.11 0.562,0.105 0.567,0.106 0.562,0.097 0.567,0.094 0.562,0.094 0.567,0.086 0.566,0.082 0.562,0.078 0.567,0.078 0.562,0.07 0.567,0.071 0.562,0.062 0.567,0.063 0.562,0.054 0.567,0.055 0.562,0.051 0.566,0.047 0.567,0.043 0.562,0.039 0.567,0.035 0.562,0.035 0.567,0.027 0.562,0.028 0.567,0.019 0.562,0.02 0.566,0.015 0.563,0.012 0.566,0.012 0.567,0.004 0.562,0.004 0.567,-0.004 0.562,-0.004 0.567,-0.008 0.562,-0.012 0.567,-0.011 0.562,-0.02 0.566,-0.023 0.563,-0.024 0.566,-0.027 0.567,-0.031 0.562,-0.036 0.567,-0.039 0.562,-0.039 0.567,-0.047 0.562,-0.047 0.566,-0.05 0.563,-0.059 0.566,-0.058 0.563,-0.063 0.566,-0.062 0.567,-0.071 0.562,-0.074 0.567,-0.074 0.562,-0.082 0.566,-0.082 0.563,-0.09 0.566,-0.09 0.563,-0.098 0.566,-0.097 0.567,-0.102 0.562,-0.105 0.567,-0.114 0.562,-0.113 0.567,-0.117 0.562,-0.125 0.566,-0.125 0.563,-0.129 0.566,-0.137 0.563,-0.14 1.133,-0.289 0.562,-0.157 0.567,-0.156 0.562,-0.16 0.566,-0.168 0.563,-0.172 0.566,-0.176 0.563,-0.179 0.566,-0.188 0.563,-0.191 0.566,-0.199 0.567,-0.204 0.562,-0.207 0.566,-0.214 0.563,-0.219 0.566,-0.227 0.563,-0.23 0.566,-0.239 0.563,-0.242 0.566,-0.254 0.563,-0.257 0.566,-0.266 0.567,-0.27 0.562,-0.281 0.566,-0.285 0.563,-0.297 0.566,-0.305 0.563,-0.312 0.566,-0.32 0.563,-0.329 0.566,-0.339 0.563,-0.352 0.566,-0.359 0.566,-0.371 0.563,-0.383 0.566,-0.395 0.563,-0.406 0.566,-0.422 0.563,0.02 0.566,0.004 0.563,-0.008 0.566,-0.02 0.563,-0.035 0.566,-0.047 0.566,-0.054 0.563,-0.071 0.566,-0.082 0.563,-0.09 0.566,-0.101 0.563,-0.114 0.566,-0.125 0.563,-0.132 0.566,-0.145 0.563,-0.156 0.566,-0.164 0.566,-0.176 0.563,-0.184 0.566,-0.191 0.563,-0.207 0.566,-0.211 0.563,-0.223 0.566,-0.234 0.563,-0.242 0.566,-0.25 0.562,-0.262 0.567,-0.273 0.566,-0.282 0.563,-0.289 0.566,-0.3 0.563,-0.313 0.566,-0.316 0.563,-0.332 0.566,-0.34 0.562,-0.352 0.567,-0.359 0.562,-0.371 0.567,-0.383 0.566,-0.391 0.563,-0.402 0.566,-0.418 0.563,-0.426 0.566,-0.437 0.563,-0.449 0.566,-0.461 0.562,-0.473 0.567,-0.488 0.562,-0.496 0.567,-0.516 0.566,-0.527 0.563,-0.539 0.566,-0.559 0.563,-0.57 0.566,-0.59 0.562,-0.606 0.567,-0.625 0.562,-0.64 0.567,-0.66 0.562,-0.684 0.567,-0.703 0.566,-0.727 0.563,-0.75 0.566,-0.781 0.562,-0.805 0.567,-0.84 0.562,-0.875 0.567,-0.91 0.562,-0.957 0.567,-1 0.562,-1.058 0.567,-1.121 0.566,-1.2 0.563,-1.293 0.566,1.004 0.562,0.91 0.567,0.836 0.562,0.774 0.567,0.723 0.562,0.675 0.567,0.641 0.562,0.601 0.567,0.571 0.566,0.543 0.562,0.519 0.567,0.492 0.562,0.473 0.567,0.449 0.562,0.434 0.567,0.418 0.562,0.398 0.567,0.383 0.562,0.371 0.566,0.356 0.567,0.34 0.562,0.332 0.567,0.316 0.562,0.309 0.567,0.296 0.562,0.286 0.567,0.277 0.562,0.266 0.567,0.257 0.566,0.247 0.562,0.242 0.567,0.23 0.562,0.227 0.567,0.215 0.562,0.207 0.567,0.203 0.562,0.195 0.567,0.188 0.562,0.179 0.566,0.176 0.567,0.168 0.562,0.164 0.567,0.156 0.562,0.149 0.567,0.144 0.562,0.141 0.567,0.133 0.562,0.129 0.566,0.125 0.563,0.117 0.566,0.113 0.567,0.106 0.562,0.105 0.567,0.098 0.562,0.093 0.567,0.09 0.562,0.082 0.567,0.082 0.562,0.075 0.566,0.07 0.563,0.07 0.566,0.063 0.567,0.058 0.562,0.051 0.567,0.051 0.562,0.047 0.567,0.043 0.562,0.039 0.566,0.035 0.563,0.027 0.566,0.028 0.563,0.023 0.566,0.02 0.567,0.015 0.562,0.012 0.567,0.008 0.562,0.004 0.566,0.004 0.563,-0.004 0.566,-0.008 0.563,-0.008 0.566,-0.012 0.563,-0.019 0.566,-0.02 0.567,-0.023 0.562,-0.028 0.567,-0.031 0.562,-0.031 0.566,-0.039 0.563,-0.039 0.566,-0.043 0.563,-0.051 0.566,-0.051 0.563,-0.051 0.566,-0.058 0.567,-0.063 0.562,-0.062 0.566,-0.067 0.563,-0.07 0.566,-0.074 0.563,-0.078 0.566,-0.082 0.563,-0.082 0.566,-0.09 0.563,-0.09 0.566,-0.094 0.566,-0.097 0.563,-0.102 0.566,-0.105 0.563,-0.106 0.566,-0.113 0.563,-0.113 0.566,-0.118 0.563,-0.125 0.566,-0.125 0.563,-0.125 0.566,-0.132 0.566,-0.137 0.563,-0.137 0.566,-0.144 0.563,-0.145 0.566,-0.152 0.563,-0.153 0.566,-0.156 0.563,-0.16 0.566,-0.168 0.563,-0.168 0.566,-0.172 0.566,-0.176 0.563,-0.179 0.566,-0.184 0.563,-0.187 0.566,-0.192 0.563,-0.195 0.566,-0.203 0.563,-0.203 0.566,-0.207 0.562,-0.215 0.567,-0.215 0.566,-0.223 0.563,-0.226 0.566,-0.231 0.563,-0.234 0.566,-0.238 0.563,-0.246 0.566,-0.247 0.563,-0.253 0.566,-0.262 0.562,-0.262 0.567,-0.269 0.566,-0.278 0.563,-0.277 0.566,-0.285 0.563,-0.293 0.566,-0.297 0.563,-0.301 0.566,-0.309 0.562,-0.316 0.567,-0.32 0.562,-0.324 0.567,-0.336 0.566,-0.34 0.563,-0.348 0.566,-0.355 0.563,-0.364 0.566,-0.367 0.562,-0.379 0.567,-0.386 0.562,-0.391 0.567,-0.402 0.566,-0.414 0.563,-0.418 0.566,-0.434 0.563,-0.438 0.566,-0.453 0.563,-0.461 0.566,-0.472 0.562,-0.485 0.567,-0.5 0.562,-0.507 0.567,-0.528 0.566,-0.539 0.563,-0.555 0.566,-0.57 0.563,-0.59 0.566,-0.605 0.562,-0.629 0.567,0.656 0.562,0.637 0.567,0.621 0.562,0.602 0.567,0.589 0.566,0.571 0.563,0.562 0.566,0.547 0.562,0.535 0.567,0.524 0.562,0.515 0.567,0.508 0.562,0.496 0.567,0.485 0.562,0.48 0.567,0.473 0.566,0.465 0.563,0.457 0.566,0.449 0.562,0.445 0.567,0.438 0.562,0.433 0.567,0.43 0.562,0.422 0.567,0.414 0.562,0.414 0.567,0.406 0.566,0.402 0.562,0.399 0.567,0.394 0.562,0.391 0,-73.305 z"
   style="fill:#bde8ff;fill-opacity:1;fill-rule:nonzero;stroke:none"
   id="path174" /><path
   d="m 61.883,146.177 253.519,0"
   style="fill:none;stroke:#00e5b2;stroke-opacity:1;stroke-width:2;stroke-linecap:butt;stroke-linejoin:miter;stroke-miterlimit:10;stroke-dasharray:none"
   id="path172" /><text
   transform="matrix(1,0,0,-1,47.8125,57.33686)"
   id="text176"><tspan
     style="fill:#6c606b;fill-opacity:1;fill-rule:nonzero;stroke:none;font-family:Tahoma;font-variant:normal;font-weight:normal;font-size:8;writing-mode:lr;-inkscape-font-specification:Tahoma"
     x="0"
     y="0"
     id="tspan178">0</tspan><tspan
     style="fill:#6c606b;fill-opacity:1;fill-rule:nonzero;stroke:none;font-family:Tahoma;font-variant:normal;font-weight:normal;font-size:8;writing-mode:lr;-inkscape-font-specification:Tahoma"
     x="-4 0.36"
     y="-51.121096"
     sodipodi:role="line"
     id="tspan180">50</tspan><tspan
     style="fill:#6c606b;fill-opacity:1;fill-rule:nonzero;stroke:none;font-family:Tahoma;font-variant:normal;font-weight:normal;font-size:8;writing-mode:lr;-inkscape-font-specification:Tahoma"
     x="-9 -4.64 -0.28"
     y="-102.24219"
     sodipodi:role="line"
     id="tspan182">100</tspan><tspan
     style="fill:#6c606b;fill-opacity:1;fill-rule:nonzero;stroke:none;font-family:Tahoma;font-variant:normal;font-weight:normal;font-size:8;writing-mode:lr;-inkscape-font-specification:Tahoma"
     x="-9 -4.64 -0.28"
     y="-153.36329"
     sodipodi:role="line"
     id="tspan184">150</tspan></text>


<text
   transform="matrix(0,1,1,0,23.792969,112.51655)"
   id="text186"><tspan
     style="fill:#564a55;fill-opacity:1;fill-rule:nonzero;stroke:none;font-family:Tahoma;font-variant:normal;font-weight:normal;font-size:11;writing-mode:lr;-inkscape-font-specification:Tahoma"
     x="0 6.589 15.818 21.89 24.398 26.906 30.58 36.707 42.779"
     y="0"
     sodipodi:role="line"
     id="tspan188">Amplitude</tspan></text>


<text
   transform="matrix(1,0,0,-1,107.97656,227.03608)"
   id="text190"><tspan
     style="fill:#564a55;fill-opacity:1;fill-rule:nonzero;stroke:none;font-family:Tahoma;font-variant:normal;font-weight:normal;font-size:11;writing-mode:lr;-inkscape-font-specification:Tahoma"
     x="0 6.82 12.606 16.104 18.612 24.398 29.469 33.143 35.651 41.613 47.74 51.172 55.374 61.369 64.691 70.686 76.681 80.003 85.998 91.993 96.195 99.517 102.949 109.769 115.555 120.461 126.423 128.931 135.058 138.732 141.24 147.202 153.329 157.212 160.644 166.639 169.961 175.956 181.951"
     y="0"
     sodipodi:role="line"
     id="tspan192">Reflection [0,37,11]. Resolution: 2.02A</tspan></text>


</g><g
   id="g140"><g
     id="g142"
     clip-path="url(#clipPath144)"><path
       d="m 150.531,219.368 0,-164.703"
       style="fill:none;stroke:#d4ca3a;stroke-opacity:1;stroke-width:1;stroke-linecap:butt;stroke-linejoin:miter;stroke-miterlimit:10;stroke-dasharray:none"
       id="path148" /></g></g><g
   id="g150"><g
     id="g152"
     clip-path="url(#clipPath154)"><path
       d="m 192.313,219.368 0,-164.703"
       style="fill:none;stroke:#d4ca3a;stroke-opacity:1;stroke-width:1;stroke-linecap:butt;stroke-linejoin:miter;stroke-miterlimit:10;stroke-dasharray:none"
       id="path158" /></g></g><g
   id="g160"><g
     id="g162"
     clip-path="url(#clipPath164)"><path
       d="m 297.898,219.368 0,-164.703"
       style="fill:none;stroke:#d4ca3a;stroke-opacity:1;stroke-width:1;stroke-linecap:butt;stroke-linejoin:miter;stroke-miterlimit:10;stroke-dasharray:none"
       id="path168" /></g></g><g
   id="g136"><path
     d="m 61.883,165.958 0.566,-0.008 0.563,-0.008 0.566,-0.007 0.563,-0.008 0.566,-0.012 0.563,-0.008 0.566,-0.008 0.562,-0.007 0.567,-0.008 0.562,-0.008 0.567,-0.008 0.566,-0.012 0.563,-0.007 0.566,-0.008 0.563,-0.008 0.566,-0.008 0.562,-0.008 0.567,-0.007 0.562,-0.012 0.567,-0.008 0.562,-0.008 1.133,-0.015 0.563,-0.008 0.566,-0.008 0.563,-0.008 0.566,-0.012 0.562,-0.007 0.567,-0.008 0.562,-0.008 0.567,-0.008 0.562,-0.008 0.567,-0.007 0.566,-0.012 0.563,-0.008 0.566,-0.008 0.562,-0.008 0.567,-0.007 0.562,-0.008 0.567,-0.008 0.562,-0.008 0.567,-0.012 0.562,-0.007 1.133,-0.016 0.562,-0.008 0.567,-0.008 0.562,-0.007 0.567,-0.012 0.562,-0.008 0.567,-0.008 0.562,-0.008 0.567,-0.007 0.562,-0.008 1.133,-0.016 0.562,-0.012 0.567,-0.007 0.562,-0.008 0.567,-0.008 0.562,-0.008 0.567,-0.008 0.562,-0.007 0.567,-0.008 0.562,-0.012 1.133,-0.016 0.562,-0.007 0.567,-0.008 0.562,-0.008 0.567,-0.008 0.562,-0.008 0.567,-0.008 0.562,-0.011 0.566,-0.008 0.563,-0.008 1.133,-0.015 0.562,-0.008 0.567,-0.008 0.562,-0.008 0.567,-0.012 0.562,-0.007 0.567,-0.008 0.562,-0.008 0.566,-0.008 0.563,-0.008 1.133,-0.015 0.562,-0.008 0.567,-0.012 0.562,-0.008 0.567,-0.007 0.562,-0.008 0.566,-0.008 0.563,-0.008 0.566,-0.008 0.563,-0.008 0.566,-0.007 0.567,-0.012 0.562,-0.008 0.567,-0.008 0.562,-0.008 0.566,-0.007 0.563,-0.008 0.566,-0.008 0.563,-0.008 0.566,-0.008 0.567,-0.011 0.562,-0.008 0.567,-0.008 0.562,-0.008 0.567,-0.008 0.562,-0.007 0.566,-0.008 0.563,-0.008 0.566,-0.008 0.563,-0.012 1.133,-0.015 0.562,-0.008 0.567,-0.008 0.562,-0.008 0.566,-0.007 0.563,-0.008 0.566,-0.008 0.563,-0.008 0.566,-0.012 0.563,-0.007 1.133,-0.016 0.562,-0.008 0.566,-0.008 0.563,-0.007 0.566,-0.008 0.563,-0.008 0.566,-0.008 0.563,-0.008 0.566,-0.011 0.563,-0.008 1.133,-0.016 0.562,-0.008 0.566,-0.007 0.563,-0.008 0.566,-0.008 0.563,-0.008 0.566,-0.008 0.563,-0.008 0.566,-0.011 0.563,-0.008 1.132,-0.016 0.563,-0.007 0.566,-0.008 0.563,-0.008 0.566,-0.008 0.563,-0.246 0.566,-0.242 0.563,-0.246 0.566,-0.242 0.563,-0.247 1.132,-0.492 0.563,-0.246 0.566,-0.246 0.563,-0.246 0.566,-0.246 0.563,-0.246 0.566,-0.246 0.563,-0.246 0.566,-0.25 0.563,-0.247 1.132,-0.5 0.563,-0.246 0.566,-0.25 0.563,-0.25 0.566,-0.25 0.563,-0.25 0.566,-0.25 0.563,-0.254 0.566,-0.25 0.562,-0.253 0.567,-0.25 0.566,-0.254 0.563,-0.254 0.566,-0.254 0.563,-0.254 0.566,-0.254 0.563,-0.254 0.566,-0.258 0.562,-0.254 0.567,-0.257 0.562,-0.254 1.133,-0.516 0.563,-0.262 0.566,-0.257 0.563,-0.258 0.566,-0.262 0.563,-0.258 0.566,-0.262 0.562,-0.261 0.567,-0.262 0.562,-0.266 0.567,-0.261 0.566,-0.266 0.563,-0.262 0.566,-0.265 0.563,-0.266 0.566,-0.269 0.562,-0.266 0.567,-0.27 0.562,-0.265 0.567,-0.27 0.562,-0.269 0.567,-0.27 0.566,-0.273 0.563,-0.27 0.566,-0.273 0.562,-0.274 0.567,-0.273 0.562,-0.274 0.567,-0.277 0.562,-0.273 0.567,-0.278 0.562,-0.277 0.567,-0.281 0.566,-0.278 0.563,-0.281 0.566,-0.066 0.562,-0.071 0.567,-0.066 0.562,-0.066 0.567,-0.071 0.562,-0.066 0.567,-0.07 0.562,-0.067 0.567,-0.07 0.566,-0.067 0.562,-0.066 0.567,-0.07 0.562,-0.067 0.567,-0.07 0.562,-0.066 0.567,-0.071 0.562,-0.066 0.567,-0.07 0.562,-0.067 0.566,-0.07 0.567,-0.067 0.562,-0.07 0.567,-0.066 0.562,-0.071 0.567,-0.066 0.562,-0.07 0.567,-0.067 0.562,-0.07 0.567,-0.066 0.566,-0.071 0.562,-0.066 0.567,-0.07 0.562,-0.071 0.567,-0.066 0.562,-0.07 0.567,-0.071 0.562,-0.066 0.567,-0.07 0.562,-0.067 1.133,-0.141 0.562,-0.07 0.567,-0.066 0.562,-0.071 0.567,-0.07 0.562,-0.07 0.567,-0.067 0.562,-0.07 0.566,-0.07 0.563,-0.071 0.566,-0.07 0.567,-0.066 0.562,-0.071 0.567,-0.07 0.562,-0.07 0.567,-0.07 0.562,-0.071 0.567,-0.07 0.562,-0.07 0.566,-0.071 0.563,-0.07 1.133,-0.141 0.562,-0.07 0.567,-0.07 0.562,-0.071 0.567,-0.074 0.562,-0.07 0.566,-0.07 0.563,-0.071 0.566,-0.07 0.563,-0.074 1.133,-0.141 0.562,-0.07 0.567,-0.074 0.562,-0.071 0.566,-0.074 0.563,-0.07 0.566,-0.071 0.563,-0.074 0.566,-0.07 0.563,-0.074 0.566,-0.071 0.567,-0.074 0.562,-0.074 0.567,-0.07 0.562,-0.075 0.566,-0.074 0.563,-0.07 0.566,-0.074 0.563,-0.075 0.566,-0.074 0.563,-0.07 1.133,-0.149 0.562,-0.074 0.566,-0.074 0.563,-0.074 0.566,-0.074 0.563,-0.075 0.566,-0.074 0.563,-0.074 0.566,-0.074 0.563,-0.075 0.566,-0.078 0.566,-0.074 0.563,-0.074 0.566,-0.074 0.563,-0.078 0.566,-0.075 0.563,-0.078 0.566,-0.074 0.563,-0.078 0.566,-0.074 0.563,-0.078 0.566,-0.075 0.566,-0.078 0.563,-0.078 0.566,-0.074 0.563,-0.078 0.566,-0.078 0.563,-0.079 0.566,-0.074 0.563,-0.078 0.566,-0.078 0.563,-0.078 1.132,-0.156 0.563,-0.079 0.566,-0.082 0.563,-0.078 0.566,-0.078 0.563,-0.078 0.566,-0.082 0.563,-0.078 0.566,-0.078 0.562,-0.082 0.567,-0.078 0.566,-0.082 0.563,-0.079 0.566,-0.082 0.563,-0.082 0.566,-0.078 0.563,-0.082 0.566,-0.082 0.563,-0.082 0.566,-0.082 0.562,-0.082 1.133,-0.164 0.563,-0.082 0.566,-0.082 0.563,-0.082 0.566,-0.082 0.563,-0.086 0.566,-0.082 0.562,-0.082 0.567,-0.086 0.562,-0.082 1.133,-0.172 0.563,-0.082 0.566,-0.086 0.563,-0.086 0.566,-0.086 0.562,-0.082 0.567,-0.086 0.562,-0.086 1.133,-0.172 0.563,-0.089 0.566,-0.086 0.563,-0.086 0.566,-0.086 0.563,-0.09 0.566,-0.086 0.562,-0.09 0.567,-0.086 0.562,-0.09 0.567,-0.089 0.566,-0.086 0.563,-0.09 0.566,-0.09 0.563,-0.09 0.566,-0.09 0.562,-0.09 0.567,-0.003 0.562,-0.008 0.567,-0.004 0.562,-0.008 0.567,-0.004 0.566,-0.008 0.563,-0.004 0.566,-0.007 0.562,-0.004 0.567,-0.008 0.562,-0.004 0.567,-0.008 0.562,-0.004 0.567,-0.008 0.562,-0.004 0.567,-0.007 0.566,-0.004 0.563,-0.008 0.566,-0.004 0.562,-0.008 0.567,-0.004 0.562,-0.007 0.567,-0.004 0.562,-0.008 0.567,-0.004 0.562,-0.008 0.567,-0.004 0.566,-0.008 0.562,-0.004 0.567,-0.003 0.562,-0.008"
     style="fill:none;stroke:#00bfff;stroke-opacity:1;stroke-width:2;stroke-linecap:butt;stroke-linejoin:miter;stroke-miterlimit:10;stroke-dasharray:none"
     id="path138" /></g><text
   style="font-size:12px"
   y="-137.32349"
   x="359.07172"
   id="text22"
   transform="scale(1,-1)"><tspan
     style="font-size:8px;font-variant:normal;font-weight:normal;writing-mode:lr-tb;fill:#4c404b;fill-opacity:1;fill-rule:nonzero;stroke:none;font-family:Tahoma;-inkscape-font-specification:Tahoma"
     x="359.07172 363.52771 370.23972 374.57571 378.91171 381.58371 386.0397 390.24771 394.6637 397.1597 401.36771 404.9357 407.6077 409.4317 416.14371 420.33572 423.00772"
     y="-137.32349"
     sodipodi:role="line"
     id="tspan24">Smoothed estimate</tspan><tspan
     style="font-size:8px;font-variant:normal;font-weight:normal;writing-mode:lr-tb;fill:#4c404b;fill-opacity:1;fill-rule:nonzero;stroke:none;font-family:Tahoma;-inkscape-font-specification:Tahoma"
     x="359.07172 364.72772 369.14371 372.7117 376.91971 379.79971 383.78372 387.97571 390.64771 392.47171 396.80771 401.2637 403.7597 409.41571 413.1037 416.79172 421.24771 424.12772 428.33572 432.79172 436.47971"
     y="-127.04224"
     sodipodi:role="line"
     id="tspan26">Observation Occurence</tspan><tspan
     style="font-size:8px;font-variant:normal;font-weight:normal;writing-mode:lr-tb;fill:#4c404b;fill-opacity:1;fill-rule:nonzero;stroke:none;font-family:Tahoma;-inkscape-font-specification:Tahoma"
     x="359.07172 359.07172 359.07172 359.07172 359.07172 359.07172 359.07172 359.07172 364.72772 369.14371 372.7117 376.91971 379.79971 383.78372 387.97571 390.64771 392.47171 396.80771 401.2637 403.7597 409.41571 413.1037 416.79172 421.24771 424.12772 428.33572 432.79172 436.47971"
     y="-127.04224 -127.04224 -127.04224 -127.04224 -127.04224 -127.04224 -127.04224 -127.04224"
     sodipodi:role="line"
     id="tspan3869" /></text>

<path
   d="m 352.49121,142.89392 5.141,0 0,-5.14101 -5.141,0 0,5.14101 z"
   style="fill:#00bfff;fill-opacity:1;fill-rule:nonzero;stroke:none"
   id="path28"
   inkscape:connector-curvature="0" /><path
   d="m 352.49121,132.86808 5.141,0 0,-5.141 -5.141,0 0,5.141 z"
   style="fill:#d4ca3a;fill-opacity:1;fill-rule:nonzero;stroke:none"
   id="path30"
   inkscape:connector-curvature="0" /><path
   inkscape:connector-curvature="0"
   d="m 352.49121,122.84224 5.141,0 0,-5.141 -5.141,0 0,5.141 z"
   style="fill:#00e5b2;fill-opacity:1;fill-rule:nonzero;stroke:none"
   id="path30-1" /><text
   style="font-size:12px"
   y="-117.44107"
   x="359.07172"
   id="text22-7"
   transform="scale(1,-1)"><tspan
     style="font-size:8px;font-variant:normal;font-weight:normal;writing-mode:lr-tb;fill:#4c404b;fill-opacity:1;fill-rule:nonzero;stroke:none;font-family:Tahoma;-inkscape-font-specification:Tahoma"
     sodipodi:role="line"
     id="tspan26-0"
     x="359.07172"
     y="-117.44107">CTruncate estimate</tspan><tspan
     style="font-size:8px;font-variant:normal;font-weight:normal;writing-mode:lr-tb;fill:#4c404b;fill-opacity:1;fill-rule:nonzero;stroke:none;font-family:Tahoma;-inkscape-font-specification:Tahoma"
     x="359.07172 359.07172 359.07172 359.07172 359.07172 359.07172 359.07172 359.07172 364.72772 369.14374 372.71173 376.91974 379.79971 383.78372 387.97574 390.64774 392.47174 396.80774 401.26373 403.75974 409.41574 413.10373 416.79172 421.24774 424.12772 428.33572 432.79172 436.47974"
     y="-107.15982 -107.15982 -107.15982 -107.15982 -107.15982 -107.15982 -107.15982 -107.15982"
     sodipodi:role="line"
     id="tspan3869-9" /></text>

<text
   style="font-size:6.68168163px"
   y="-234.72679"
   x="291.96503"
   id="text22-7-1"
   transform="scale(1,-1)"><tspan
     style="font-size:4.4544549px;font-variant:normal;font-weight:normal;writing-mode:lr-tb;fill:#4c404b;fill-opacity:1;fill-rule:nonzero;stroke:none;font-family:Tahoma;-inkscape-font-specification:Tahoma"
     sodipodi:role="line"
     id="tspan26-0-7"
     x="291.96503"
     y="-234.72679">o</tspan><tspan
     style="font-size:4.4544549px;font-variant:normal;font-weight:normal;writing-mode:lr-tb;fill:#4c404b;fill-opacity:1;fill-rule:nonzero;stroke:none;font-family:Tahoma;-inkscape-font-specification:Tahoma"
     x="291.96503 291.96503 291.96503 291.96503 291.96503 291.96503 291.96503 291.96503 295.11432 297.57318 299.55984 301.90292 303.5065 305.72482 308.05899 309.54675 310.56238 312.97668 315.45782 316.84763 319.99692 322.05042 324.10391 326.58505 328.18863 330.53168 333.01282 335.06631"
     y="-229.00212 -229.00212 -229.00212 -229.00212 -229.00212 -229.00212 -229.00212 -229.00212"
     sodipodi:role="line"
     id="tspan3869-9-4" /></text>

</g></svg>